{"glyphs":{"0":{"ha":718,"x_min":39,"x_max":685,"o":"m 411 728 q 614 649 543 728 q 685 415 685 571 q 640 191 685 289 q 510 38 594 93 q 314 -17 426 -17 q 110 63 181 -17 q 39 297 39 143 q 84 519 39 421 q 213 672 129 617 q 411 728 297 728 m 374 476 q 278 442 304 476 q 251 333 251 407 q 272 246 251 272 q 347 219 292 219 q 443 256 414 219 q 472 365 472 292 q 451 452 472 428 q 374 476 429 476 z "},"1":{"ha":526,"x_min":17,"x_max":465,"o":"m 401 292 l 376 0 l 103 0 l 147 264 l 165 417 l 32 389 l 17 401 l 43 619 l 429 725 l 465 697 l 401 292 z "},"2":{"ha":681,"x_min":3,"x_max":639,"o":"m 381 725 q 560 677 490 725 q 631 543 631 629 q 590 428 631 488 q 449 276 549 368 l 379 211 l 383 204 l 492 204 l 628 218 l 639 201 l 583 -11 l 385 0 l 65 0 l 14 -4 l 3 6 l 24 168 l 218 322 q 319 409 286 375 q 353 467 353 443 q 307 497 353 497 q 219 478 269 497 q 122 428 169 460 l 93 428 l 74 638 q 381 725 240 725 z "},"3":{"ha":629,"x_min":-17,"x_max":606,"o":"m 339 728 q 476 704 415 728 q 572 638 538 681 q 606 543 606 596 q 565 422 606 485 q 456 326 525 360 l 456 318 q 539 249 513 286 q 565 154 565 213 q 515 7 565 71 q 373 -93 465 -57 q 158 -129 281 -129 q -17 -114 60 -129 l -7 85 l 14 101 q 179 74 106 74 q 306 144 306 74 q 246 186 306 186 l 129 186 l 121 203 l 150 389 l 233 393 q 292 417 264 394 q 321 468 321 439 q 264 510 321 510 q 104 464 206 510 l 76 464 l 60 651 q 339 728 204 728 z "},"4":{"ha":733,"x_min":-12,"x_max":690,"o":"m 561 42 l 553 -101 l 536 -119 l 324 -132 l 313 -115 l 339 44 l 158 44 l 1 39 l -12 61 l 8 232 l 396 714 l 644 714 l 582 251 l 678 251 l 690 228 l 657 39 l 561 42 m 371 251 l 392 418 l 376 418 l 243 251 l 371 251 z "},"5":{"ha":622,"x_min":-29,"x_max":633,"o":"m 583 504 l 563 485 l 411 506 l 300 506 l 289 419 l 371 401 q 565 200 565 358 q 512 28 565 103 q 363 -90 458 -47 q 147 -132 268 -132 q -29 -112 64 -132 l -19 81 l -1 99 q 175 72 88 72 q 270 93 236 72 q 304 151 304 114 q 226 211 304 199 l 78 236 l 64 256 l 118 692 l 147 719 l 235 714 l 458 714 l 621 725 l 633 708 l 583 504 z "},"6":{"ha":694,"x_min":21,"x_max":658,"o":"m 432 522 q 553 488 501 522 q 631 399 604 454 q 658 281 658 343 q 620 138 658 206 q 506 26 582 69 q 322 -17 429 -17 q 101 61 181 -17 q 21 275 21 139 q 143 588 21 443 q 485 831 265 732 l 497 831 l 654 711 l 651 686 q 343 517 433 622 l 350 507 q 432 522 390 522 m 332 156 q 392 183 371 156 q 413 257 413 211 q 343 335 413 335 q 265 321 308 335 q 264 274 264 306 q 279 183 264 210 q 332 156 294 156 z "},"7":{"ha":625,"x_min":32,"x_max":640,"o":"m 560 714 l 640 717 l 615 521 l 383 122 l 254 -135 l 47 -75 l 35 -33 l 351 492 l 199 492 l 42 475 l 32 496 l 76 721 l 268 714 l 560 714 z "},"8":{"ha":717,"x_min":33,"x_max":679,"o":"m 413 831 q 608 776 538 831 q 679 629 679 722 q 547 435 679 511 l 546 424 q 629 348 600 390 q 658 240 658 306 q 619 106 658 164 q 506 15 579 47 q 338 -17 433 -17 q 115 39 196 -17 q 33 188 33 94 q 73 305 33 258 q 196 382 113 351 l 197 393 q 94 576 94 457 q 134 709 94 651 q 245 799 174 767 q 413 831 317 831 m 393 649 q 335 631 356 649 q 315 588 315 614 q 338 539 315 558 q 407 500 360 519 q 465 590 465 546 q 393 649 465 649 m 338 313 q 258 229 258 283 q 343 160 258 160 q 413 179 389 160 q 438 225 438 199 q 412 274 438 254 q 338 313 386 293 z "},"9":{"ha":694,"x_min":43,"x_max":681,"o":"m 269 190 q 149 224 200 190 q 70 314 97 258 q 43 432 43 369 q 81 575 43 507 q 196 686 119 643 q 379 729 272 729 q 601 651 521 729 q 681 438 681 574 q 558 125 681 269 q 217 -118 436 -19 l 204 -118 l 47 1 l 50 26 q 358 196 268 90 l 351 206 q 269 190 311 190 m 369 557 q 310 529 331 557 q 289 456 289 501 q 358 378 289 378 q 436 392 393 378 q 438 439 438 407 q 422 530 438 503 q 369 557 407 557 z "}," ":{"ha":176,"x_min":0,"x_max":0,"o":""},"!":{"ha":397,"x_min":44,"x_max":431,"o":"m 292 360 l 139 338 l 115 363 l 157 888 l 183 918 l 403 933 l 431 901 l 292 360 m 186 263 q 281 228 247 263 q 314 132 314 193 q 276 26 314 65 q 175 -12 239 -12 q 78 22 111 -12 q 44 119 44 56 q 83 224 44 185 q 186 263 121 263 z "},"\"":{"ha":606,"x_min":110,"x_max":622,"o":"m 251 518 l 129 499 l 110 514 l 142 885 l 351 897 l 364 881 l 251 518 m 511 518 l 388 499 l 368 514 l 400 885 l 610 897 l 622 881 l 511 518 z "},"#":{"ha":815,"x_min":28,"x_max":786,"o":"m 629 356 l 729 356 l 744 339 l 733 206 l 606 206 l 579 43 l 425 43 l 414 60 l 438 206 l 310 206 l 283 43 l 131 43 l 118 60 l 142 206 l 43 206 l 28 221 l 39 356 l 165 356 l 185 481 l 85 481 l 69 497 l 81 632 l 208 632 l 235 794 l 385 794 l 401 776 l 378 632 l 504 632 l 531 794 l 679 794 l 696 776 l 672 632 l 771 632 l 786 615 l 775 481 l 649 481 l 629 356 m 354 481 l 333 356 l 461 356 l 481 481 l 354 481 z "},"$":{"ha":651,"x_min":0,"x_max":628,"o":"m 326 515 q 345 488 326 499 q 406 461 364 476 q 499 418 461 440 q 566 356 538 396 q 594 256 594 317 q 540 99 594 171 q 378 -1 486 26 l 357 -194 l 224 -194 l 208 -175 l 225 -17 q 0 22 103 -11 l 61 244 l 86 263 q 197 192 136 219 q 300 164 258 164 q 336 190 336 164 q 317 217 336 206 q 258 243 299 228 q 163 286 201 264 q 95 349 124 308 q 67 451 67 389 q 131 619 67 547 q 307 715 194 690 l 326 896 l 457 896 l 476 876 l 460 725 q 628 689 551 717 l 568 476 l 532 467 q 437 518 488 499 q 357 538 386 538 q 326 515 326 538 z "},"%":{"ha":1244,"x_min":64,"x_max":1208,"o":"m 1046 865 l 281 -131 l 176 -61 l 171 -37 l 938 964 l 1036 899 l 1046 865 m 351 910 q 492 858 443 910 q 540 707 540 806 q 465 475 540 560 q 256 390 390 390 q 113 442 163 390 q 64 592 64 494 q 140 825 64 740 q 351 910 215 910 m 313 743 q 248 716 269 743 q 226 617 226 689 q 240 560 226 578 q 288 543 254 543 q 360 574 342 543 q 378 669 378 606 q 363 726 378 708 q 313 743 347 743 m 1019 510 q 1160 458 1111 510 q 1208 307 1208 406 q 1133 75 1208 160 q 924 -10 1058 -10 q 782 42 831 -10 q 733 192 733 94 q 808 425 733 340 q 1019 510 883 510 m 981 343 q 916 316 938 343 q 894 217 894 289 q 908 160 894 178 q 956 143 922 143 q 1028 175 1010 143 q 1047 269 1047 207 q 1032 326 1047 308 q 981 343 1017 343 z "},"&":{"ha":946,"x_min":22,"x_max":1004,"o":"m 971 368 l 954 203 l 753 203 q 401 -18 664 -18 q 121 78 219 -18 q 22 353 22 175 q 112 626 22 525 q 361 726 201 726 q 504 692 456 726 q 557 599 553 658 q 881 989 789 785 l 901 989 q 1004 824 981 917 q 865 638 978 750 q 594 413 753 525 q 281 225 436 300 q 418 167 322 167 q 556 217 507 167 q 617 374 604 268 l 635 388 l 956 388 l 971 368 m 353 560 q 276 520 304 560 q 244 406 249 481 q 364 468 310 438 q 396 524 396 489 q 353 560 396 560 z "},"'":{"ha":346,"x_min":110,"x_max":364,"o":"m 251 518 l 129 499 l 110 514 l 142 885 l 351 897 l 364 881 l 251 518 z "},"(":{"ha":426,"x_min":75,"x_max":483,"o":"m 481 815 q 333 537 376 717 q 289 194 289 357 q 369 -90 289 8 l 367 -111 l 261 -190 l 238 -190 q 75 206 75 -58 q 142 610 75 417 q 374 915 210 803 l 397 915 l 483 836 l 481 815 z "},")":{"ha":426,"x_min":-50,"x_max":358,"o":"m -47 -92 q 101 187 57 7 q 144 529 144 367 q 64 814 144 715 l 67 835 l 172 914 l 196 914 q 358 518 358 782 q 291 114 358 307 q 60 -192 224 -79 l 36 -192 l -50 -112 l -47 -92 z "},"*":{"ha":547,"x_min":83,"x_max":607,"o":"m 369 853 l 299 844 l 286 856 l 278 1019 q 413 1043 338 1040 l 419 1029 l 369 853 m 257 769 l 242 763 l 83 804 q 101 939 82 865 l 118 943 l 269 840 l 257 769 m 544 900 q 607 779 582 846 l 597 768 l 414 763 l 382 826 l 389 842 l 544 900 m 513 611 q 417 514 479 565 l 403 519 l 340 693 l 392 742 l 408 740 l 513 611 m 317 692 l 228 553 q 104 611 175 568 l 106 628 l 250 740 l 314 707 l 317 692 z "},"+":{"ha":663,"x_min":13,"x_max":656,"o":"m 436 444 l 640 444 l 656 426 l 622 264 l 414 264 l 388 53 l 224 40 l 207 57 l 233 264 l 26 264 l 13 282 l 44 444 l 256 444 l 281 656 l 444 668 l 461 651 l 436 444 z "},",":{"ha":318,"x_min":-28,"x_max":269,"o":"m 204 253 q 269 106 269 189 q 219 -49 269 25 q 60 -197 168 -122 l -25 -124 l -28 -104 q 50 47 50 -36 q 4 150 50 106 l 6 172 q 204 253 106 228 z "},"-":{"ha":417,"x_min":26,"x_max":394,"o":"m 376 286 l 43 233 l 26 253 l 46 419 l 378 472 l 394 453 l 376 286 z "},".":{"ha":319,"x_min":-1,"x_max":268,"o":"m 140 263 q 235 228 201 263 q 268 132 268 193 q 231 26 268 65 q 129 -12 193 -12 q 32 22 65 -12 q -1 119 -1 56 q 37 224 -1 185 q 140 263 75 263 z "},"/":{"ha":389,"x_min":-76,"x_max":490,"o":"m 125 -164 l -62 -164 l -76 -143 l 289 949 l 471 949 l 490 926 l 125 -164 z "},":":{"ha":319,"x_min":-1,"x_max":313,"o":"m 140 263 q 235 228 201 263 q 268 132 268 193 q 231 26 268 65 q 129 -12 193 -12 q 32 22 65 -12 q -1 119 -1 56 q 37 224 -1 185 q 140 263 75 263 m 185 617 q 279 582 246 617 q 313 486 313 547 q 275 381 313 419 q 174 342 238 342 q 76 376 110 342 q 43 474 43 410 q 81 578 43 539 q 185 617 119 617 z "},";":{"ha":318,"x_min":-33,"x_max":304,"o":"m 199 253 q 264 106 264 189 q 213 -49 264 25 q 54 -197 163 -122 l -31 -124 l -33 -104 q 44 47 44 -36 q -1 150 44 106 l 0 172 q 199 253 100 228 m 176 617 q 271 582 238 617 q 304 486 304 547 q 267 381 304 419 q 165 342 229 342 q 68 376 101 342 q 35 474 35 410 q 73 578 35 539 q 176 617 111 617 z "},"<":{"ha":683,"x_min":43,"x_max":654,"o":"m 642 496 l 242 367 l 240 354 l 608 228 l 554 78 l 529 60 l 43 247 l 69 463 l 89 486 l 618 667 l 654 513 l 642 496 z "},"=":{"ha":664,"x_min":7,"x_max":668,"o":"m 656 410 l 58 410 l 42 428 l 54 590 l 651 590 l 668 572 l 656 410 m 621 117 l 24 117 l 7 135 l 19 297 l 617 297 l 633 279 l 621 117 z "},">":{"ha":699,"x_min":58,"x_max":654,"o":"m 654 463 l 628 247 l 96 60 l 75 78 l 58 228 l 458 354 l 460 367 l 89 496 l 82 513 l 156 667 l 640 486 l 654 463 z "},"?":{"ha":489,"x_min":78,"x_max":581,"o":"m 190 940 q 480 877 379 932 q 581 726 581 822 q 538 604 581 661 q 417 510 494 547 l 331 468 l 326 460 l 324 361 l 132 333 l 117 350 l 122 539 l 133 554 l 256 604 q 332 686 332 635 q 285 740 332 721 q 118 767 238 758 l 101 790 l 165 928 l 190 940 m 219 263 q 313 228 279 263 q 347 132 347 193 q 310 26 347 65 q 208 -12 272 -12 q 111 22 144 -12 q 78 119 78 56 q 116 224 78 185 q 219 263 154 263 z "},"@":{"ha":1203,"x_min":26,"x_max":1188,"o":"m 1188 454 q 1037 119 1188 236 q 606 3 886 3 l 625 147 l 604 147 q 506 -7 554 50 l 476 -7 q 335 72 374 18 q 296 214 296 126 q 330 380 296 297 q 435 531 364 463 q 611 633 507 599 l 619 633 l 746 613 l 889 642 l 904 631 l 844 183 q 969 274 922 201 q 1015 446 1015 346 q 923 668 1015 586 q 674 750 831 750 q 426 690 533 750 q 260 523 319 629 q 201 283 201 417 q 267 42 201 143 q 451 -112 332 -60 q 728 -165 569 -165 l 736 -189 l 668 -312 q 329 -247 474 -312 q 106 -54 185 -182 q 26 254 26 74 q 108 590 26 439 q 339 828 190 742 q 682 915 488 915 q 948 860 833 915 q 1125 701 1063 806 q 1188 454 1188 597 m 539 207 q 660 411 576 207 l 664 442 l 575 464 q 511 310 511 464 q 539 207 511 207 z "},"A":{"ha":869,"x_min":-37,"x_max":815,"o":"m 535 0 l 529 149 l 529 154 l 392 157 l 276 151 l 233 0 l -37 0 l 346 899 l 681 899 l 815 0 l 535 0 m 486 651 l 469 651 l 354 356 l 433 354 l 511 356 l 486 651 z "},"B":{"ha":875,"x_min":46,"x_max":854,"o":"m 690 463 q 802 388 769 431 q 835 272 835 344 q 718 61 835 132 q 349 -10 601 -10 q 46 0 269 -10 l 92 264 l 156 899 l 542 900 q 770 847 686 900 q 854 690 854 793 q 813 558 854 619 q 690 463 771 497 m 476 528 q 568 639 568 554 q 556 686 568 669 q 513 710 543 703 q 424 717 482 717 l 400 717 l 372 532 l 476 528 m 415 172 q 517 201 479 172 q 554 278 554 229 q 538 325 554 308 q 483 356 521 342 l 346 353 l 338 292 l 328 178 q 415 172 397 172 z "},"C":{"ha":717,"x_min":35,"x_max":783,"o":"m 550 914 q 783 876 682 914 l 710 656 l 690 646 q 611 677 657 665 q 525 689 565 689 q 376 622 419 689 q 332 410 332 556 q 369 261 332 308 q 483 214 406 214 q 660 243 575 214 l 679 231 l 631 11 q 447 -15 544 -15 q 141 83 247 -15 q 35 365 35 182 q 169 769 35 624 q 550 914 303 914 z "},"D":{"ha":928,"x_min":44,"x_max":924,"o":"m 547 904 q 824 813 725 904 q 924 551 924 721 q 788 137 924 286 q 396 -12 651 -12 q 44 0 238 -12 l 90 264 l 154 899 l 547 904 m 460 193 q 631 511 631 193 q 602 648 631 607 q 510 689 574 689 q 404 683 458 689 l 346 292 l 339 204 q 460 193 422 193 z "},"E":{"ha":750,"x_min":43,"x_max":810,"o":"m 386 558 l 522 558 l 668 563 l 681 543 l 639 340 l 479 344 l 354 344 l 346 292 l 339 213 l 472 213 l 704 221 l 717 201 l 675 0 l 43 0 l 89 264 l 154 899 l 797 899 l 810 879 l 767 678 l 547 686 l 404 686 l 386 558 z "},"F":{"ha":667,"x_min":43,"x_max":765,"o":"m 381 524 l 474 524 l 636 528 l 649 508 l 607 307 l 431 311 l 349 311 l 346 292 l 321 0 l 43 0 l 89 264 l 154 899 l 753 899 l 765 879 l 722 678 l 503 686 l 404 686 l 381 524 z "},"G":{"ha":832,"x_min":33,"x_max":860,"o":"m 592 914 q 860 872 754 914 l 771 628 l 749 628 q 635 678 683 663 q 526 693 586 693 q 415 667 458 693 q 348 569 372 642 q 324 361 324 497 q 358 228 324 265 q 476 192 393 192 q 526 197 496 192 l 532 243 l 546 394 l 801 413 l 782 290 l 751 44 q 439 -17 586 -17 q 138 82 243 -17 q 33 358 33 181 q 177 770 33 626 q 592 914 321 914 z "},"H":{"ha":988,"x_min":43,"x_max":972,"o":"m 882 292 l 857 0 l 579 0 l 626 264 l 633 333 l 483 336 l 351 332 l 346 292 l 321 0 l 43 0 l 90 264 l 154 899 l 436 899 l 386 558 l 526 556 l 656 558 l 690 899 l 972 899 l 882 292 z "},"I":{"ha":454,"x_min":43,"x_max":436,"o":"m 321 0 l 43 0 l 90 264 l 154 899 l 436 899 l 346 292 l 321 0 z "},"J":{"ha":503,"x_min":-24,"x_max":483,"o":"m 392 296 l 381 172 q 332 25 368 85 q 224 -78 296 -35 q 32 -156 153 -121 l -24 -12 l -21 8 q 85 81 53 43 q 125 181 118 119 l 136 268 l 182 704 l 67 700 l 54 718 l 88 899 l 483 899 l 392 296 z "},"K":{"ha":874,"x_min":43,"x_max":940,"o":"m 622 458 q 864 58 718 281 l 857 28 q 575 -17 706 -6 l 546 0 q 364 414 435 243 l 346 292 l 321 0 l 43 0 l 90 264 l 154 899 l 436 899 l 381 522 l 588 801 l 647 899 l 940 899 l 622 458 z "},"L":{"ha":628,"x_min":38,"x_max":613,"o":"m 572 0 l 38 0 l 83 264 l 147 899 l 429 899 l 340 292 l 335 226 l 600 226 l 613 207 l 572 0 z "},"M":{"ha":1119,"x_min":-4,"x_max":1074,"o":"m 792 0 l 819 272 l 832 501 l 815 501 l 617 85 l 408 85 l 339 501 l 322 501 l 276 299 l 228 0 l -4 0 l 193 899 l 514 899 l 525 771 l 565 443 l 582 443 l 708 761 l 758 899 l 1074 899 l 1036 0 l 792 0 z "},"N":{"ha":986,"x_min":44,"x_max":974,"o":"m 858 0 l 557 0 l 363 483 l 346 483 l 325 325 l 296 0 l 44 0 l 90 264 l 154 899 l 456 899 l 651 415 l 668 415 l 718 889 l 974 904 l 883 293 l 858 0 z "},"O":{"ha":914,"x_min":33,"x_max":908,"o":"m 528 915 q 809 817 710 915 q 908 519 908 719 q 851 242 908 364 q 682 52 793 121 q 415 -17 571 -17 q 133 83 233 -17 q 33 383 33 182 q 91 659 33 539 q 260 847 149 779 q 528 915 372 915 m 496 694 q 403 669 440 694 q 345 576 367 644 q 324 379 324 507 q 333 264 324 304 q 369 206 343 224 q 444 188 394 188 q 536 213 499 188 q 595 306 574 238 q 617 503 617 375 q 607 617 617 576 q 572 676 597 658 q 496 694 546 694 z "},"P":{"ha":824,"x_min":44,"x_max":861,"o":"m 565 900 q 783 835 704 900 q 861 654 861 771 q 807 447 861 538 q 653 305 753 356 q 425 254 554 254 l 344 254 l 322 0 l 44 0 l 90 264 l 154 899 l 565 900 m 474 449 q 545 512 524 474 q 567 608 567 550 q 458 708 567 703 l 408 704 l 371 454 l 474 449 z "},"Q":{"ha":919,"x_min":33,"x_max":978,"o":"m 978 -110 q 824 -285 908 -217 l 804 -294 q 415 -17 583 -176 l 411 -17 q 131 83 229 -17 q 33 383 33 182 q 92 659 33 539 q 263 847 150 779 q 532 915 376 915 q 811 817 714 915 q 908 519 908 719 q 848 238 908 361 q 675 49 788 115 q 969 -85 814 -31 l 978 -110 m 324 379 q 333 264 324 304 q 369 206 343 224 q 444 188 394 188 q 536 213 499 188 q 595 306 574 238 q 617 503 617 375 q 607 617 617 576 q 572 676 597 658 q 496 694 546 694 q 403 669 440 694 q 345 576 367 644 q 324 379 324 507 z "},"R":{"ha":875,"x_min":43,"x_max":864,"o":"m 864 660 q 816 484 864 565 q 681 347 768 403 q 842 65 765 188 l 835 35 q 550 -17 688 -8 l 526 6 q 439 268 456 214 l 344 268 l 321 0 l 43 0 l 90 264 l 154 899 l 565 900 q 784 837 704 900 q 864 660 864 774 m 567 614 q 541 683 567 661 q 458 708 515 706 l 407 704 l 372 471 l 474 465 q 545 522 524 486 q 567 614 567 558 z "},"S":{"ha":733,"x_min":-4,"x_max":743,"o":"m 486 915 q 743 867 619 915 l 674 642 l 635 625 q 526 682 581 661 q 436 703 471 703 q 381 688 401 703 q 361 653 361 674 q 388 608 361 626 q 475 561 415 589 q 588 501 543 529 q 667 424 633 472 q 700 308 700 376 q 648 146 700 221 q 502 27 596 71 q 289 -17 408 -17 q -4 36 146 -17 l 63 276 l 92 293 q 221 215 151 243 q 340 188 290 188 q 417 238 417 188 q 388 285 417 265 q 300 333 360 306 q 189 393 232 365 q 114 468 146 421 q 82 583 82 515 q 135 751 82 675 q 280 872 188 828 q 486 915 372 915 z "},"T":{"ha":719,"x_min":56,"x_max":778,"o":"m 739 678 l 557 686 l 539 686 l 483 292 l 458 0 l 182 0 l 229 264 l 274 686 l 256 686 l 69 678 l 56 697 l 96 899 l 765 899 l 778 879 l 739 678 z "},"U":{"ha":907,"x_min":63,"x_max":913,"o":"m 829 300 q 704 65 810 146 q 413 -17 599 -17 q 155 50 247 -17 q 63 240 63 117 q 67 300 63 269 l 88 443 l 135 899 l 413 899 l 332 338 q 329 300 329 310 q 354 225 329 249 q 436 201 379 201 q 535 233 501 201 q 575 338 568 265 l 631 899 l 913 899 l 847 443 l 829 300 z "},"V":{"ha":854,"x_min":76,"x_max":929,"o":"m 213 0 l 76 899 l 357 899 l 364 750 l 408 247 l 424 247 l 611 733 l 658 899 l 929 899 l 547 0 l 213 0 z "},"W":{"ha":1269,"x_min":94,"x_max":1339,"o":"m 669 0 l 625 325 l 610 325 l 490 0 l 194 0 l 94 899 l 364 899 l 361 760 l 390 279 l 406 279 l 560 690 l 538 899 l 819 899 l 818 731 l 857 279 l 872 279 l 1039 743 l 1083 899 l 1339 899 l 964 0 l 669 0 z "},"X":{"ha":881,"x_min":-37,"x_max":947,"o":"m 846 0 l 519 0 l 486 110 l 424 257 l 300 96 l 243 0 l -37 0 l 282 446 l 69 899 l 397 899 l 432 786 l 493 643 l 604 801 l 658 899 l 947 899 l 638 461 l 846 0 z "},"Y":{"ha":825,"x_min":60,"x_max":922,"o":"m 518 236 l 501 0 l 225 0 l 267 236 l 271 288 l 60 899 l 349 899 l 361 824 l 429 551 l 446 551 l 597 814 l 639 899 l 922 899 l 526 283 l 518 236 z "},"Z":{"ha":790,"x_min":-3,"x_max":817,"o":"m 349 204 l 572 204 l 744 217 l 751 204 l 703 -7 l 458 0 l 139 0 l -3 -8 l 22 189 l 474 694 l 254 694 l 86 681 l 78 692 l 124 903 l 332 899 l 713 899 l 817 900 l 792 701 l 349 204 z "},"[":{"ha":419,"x_min":22,"x_max":501,"o":"m 486 769 l 351 750 l 258 -19 l 388 -40 l 372 -158 l 361 -171 l 22 -157 l 101 365 l 151 888 l 493 901 l 501 889 l 486 769 z "},"\\":{"ha":632,"x_min":81,"x_max":571,"o":"m 571 -143 l 556 -164 l 369 -164 l 81 926 l 101 949 l 282 949 l 571 -143 z "},"]":{"ha":419,"x_min":-74,"x_max":406,"o":"m -58 -40 l 76 -21 l 169 749 l 40 769 l 56 888 l 67 900 l 406 886 l 326 364 l 276 -158 l -65 -172 l -74 -160 l -58 -40 z "},"^":{"ha":639,"x_min":3,"x_max":611,"o":"m 590 201 l 436 165 l 353 515 l 340 515 l 168 164 l 149 154 l 3 210 l 242 682 l 267 697 l 482 697 l 611 224 l 590 201 z "},"_":{"ha":608,"x_min":-94,"x_max":571,"o":"m 540 -292 l -81 -292 l -94 -274 l -64 -126 l 557 -126 l 571 -144 l 540 -292 z "},"`":{"ha":542,"x_min":136,"x_max":535,"o":"m 256 1047 q 535 825 397 926 l 474 725 l 450 724 q 140 875 338 775 l 136 899 l 232 1046 l 256 1047 z "},"a":{"ha":763,"x_min":-31,"x_max":701,"o":"m 443 103 l 333 106 l 243 101 l 215 0 l -31 0 l 281 713 l 586 713 l 701 0 l 446 0 l 443 103 m 428 286 l 408 489 l 393 489 l 313 286 l 369 285 l 428 286 z "},"b":{"ha":775,"x_min":33,"x_max":740,"o":"m 606 365 q 692 299 664 338 q 721 194 721 260 q 623 44 721 96 q 338 -8 525 -8 q 33 0 231 -8 l 72 207 l 121 713 l 481 713 q 671 669 601 713 q 740 544 740 625 q 706 441 740 488 q 606 365 671 394 m 422 426 q 469 496 469 447 q 453 532 469 524 q 393 540 438 540 l 347 540 l 332 431 l 422 426 m 368 161 q 433 178 408 161 q 457 224 457 194 q 431 267 457 247 l 308 264 l 304 233 l 299 165 q 368 161 340 161 z "},"c":{"ha":622,"x_min":25,"x_max":660,"o":"m 465 725 q 660 703 575 725 l 592 493 l 574 482 q 433 518 515 518 q 332 478 364 518 q 300 347 300 438 q 326 233 300 269 q 418 197 351 197 q 556 218 489 197 l 575 207 l 529 -3 q 399 -14 467 -14 q 115 67 206 -14 q 25 311 25 149 q 76 529 25 436 q 225 674 126 622 q 465 725 324 725 z "},"d":{"ha":800,"x_min":33,"x_max":782,"o":"m 460 717 q 697 643 611 717 q 782 435 782 569 q 668 106 782 224 q 338 -11 554 -11 q 33 0 222 -11 l 71 207 l 121 713 l 460 717 m 394 178 q 481 226 450 178 q 511 396 511 274 q 491 490 511 463 q 426 518 471 518 q 351 514 396 518 l 307 233 l 304 189 q 394 178 365 178 z "},"e":{"ha":667,"x_min":33,"x_max":693,"o":"m 342 454 l 453 454 l 575 458 l 586 440 l 549 253 l 414 257 l 313 257 l 308 233 l 306 196 l 415 196 l 610 203 l 622 186 l 583 0 l 33 0 l 72 207 l 121 713 l 681 713 l 693 694 l 654 508 l 469 517 l 351 517 l 342 454 z "},"f":{"ha":592,"x_min":28,"x_max":649,"o":"m 332 424 l 406 424 l 542 428 l 554 410 l 515 222 l 363 226 l 303 226 l 285 0 l 28 0 l 67 207 l 115 713 l 636 713 l 649 694 l 608 508 l 422 517 l 346 517 l 332 424 z "},"g":{"ha":715,"x_min":24,"x_max":726,"o":"m 499 725 q 726 697 619 725 l 643 472 l 624 472 q 526 510 567 499 q 435 522 486 522 q 356 507 386 522 q 309 444 326 492 q 292 306 292 397 q 300 228 292 254 q 332 189 308 201 q 406 176 356 176 q 426 177 422 176 q 431 178 429 178 l 435 196 l 446 322 l 682 338 l 667 240 l 642 36 q 375 -15 500 -15 q 114 70 204 -15 q 24 321 24 156 q 145 619 24 513 q 499 725 267 725 z "},"h":{"ha":854,"x_min":35,"x_max":828,"o":"m 754 233 l 736 0 l 479 0 l 517 207 l 521 247 l 410 250 l 311 247 l 308 233 l 292 0 l 35 0 l 72 207 l 122 713 l 383 713 l 343 456 l 449 453 l 542 456 l 567 713 l 828 713 l 754 233 z "},"i":{"ha":422,"x_min":35,"x_max":383,"o":"m 292 0 l 35 0 l 72 207 l 122 713 l 383 713 l 308 233 l 292 0 z "},"j":{"ha":479,"x_min":-14,"x_max":426,"o":"m 356 233 l 347 138 q 306 18 338 67 q 212 -67 275 -31 q 40 -137 149 -104 l -14 -6 l -12 14 q 76 65 50 38 q 108 139 103 93 l 118 208 l 150 525 l 40 522 l 29 538 l 65 713 l 426 713 l 356 233 z "},"k":{"ha":771,"x_min":33,"x_max":807,"o":"m 557 369 q 750 54 625 243 l 742 26 q 482 -14 606 -4 l 454 1 q 321 314 374 185 l 308 233 l 290 0 l 33 0 l 71 207 l 121 713 l 382 713 l 338 425 l 489 631 l 538 713 l 807 713 l 557 369 z "},"l":{"ha":560,"x_min":26,"x_max":528,"o":"m 489 0 l 26 0 l 65 207 l 114 713 l 375 713 l 301 233 l 300 208 l 517 208 l 528 192 l 489 0 z "},"m":{"ha":961,"x_min":-7,"x_max":910,"o":"m 654 0 l 679 215 l 685 344 l 671 344 l 529 61 l 336 61 l 288 344 l 272 344 l 247 240 l 208 0 l -7 0 l 153 713 l 451 713 l 458 613 l 481 394 l 496 394 l 578 601 l 618 713 l 910 713 l 881 0 l 654 0 z "},"n":{"ha":856,"x_min":33,"x_max":829,"o":"m 736 0 l 461 0 l 310 335 l 297 335 l 286 263 l 263 0 l 33 0 l 72 208 l 121 713 l 396 713 l 549 376 l 564 376 l 594 703 l 829 717 l 756 238 l 736 0 z "},"o":{"ha":789,"x_min":24,"x_max":769,"o":"m 442 726 q 684 647 599 726 q 769 406 769 567 q 720 188 769 283 q 576 39 671 93 q 351 -15 482 -15 q 109 65 194 -15 q 24 308 24 146 q 73 525 24 431 q 217 673 122 619 q 442 726 311 726 m 410 524 q 345 509 369 524 q 306 448 321 494 q 292 311 292 401 q 299 224 292 253 q 326 185 307 196 q 385 174 346 174 q 448 188 424 174 q 486 249 472 203 q 500 388 500 296 q 492 473 500 444 q 466 513 485 501 q 410 524 447 524 z "},"p":{"ha":731,"x_min":33,"x_max":743,"o":"m 472 713 q 668 653 593 713 q 743 486 743 593 q 694 332 743 400 q 558 226 644 264 q 361 188 471 188 l 304 188 l 290 0 l 33 0 l 71 207 l 121 713 l 472 713 m 411 365 q 457 415 444 390 q 469 472 469 439 q 457 519 469 504 q 407 538 444 533 l 354 533 l 329 371 l 411 365 z "},"q":{"ha":796,"x_min":24,"x_max":824,"o":"m 824 -72 q 685 -229 761 -171 l 667 -239 q 361 -15 497 -140 l 351 -15 q 109 65 194 -15 q 24 308 24 146 q 73 525 24 431 q 217 673 122 619 q 442 726 311 726 q 684 647 599 726 q 769 406 769 567 q 722 192 769 286 q 585 43 674 97 q 817 -50 689 -8 l 824 -72 m 292 311 q 299 224 292 253 q 326 185 307 196 q 385 174 346 174 q 448 188 424 174 q 486 249 472 203 q 500 388 500 296 q 492 473 500 444 q 466 513 485 501 q 410 524 447 524 q 345 509 369 524 q 306 448 321 494 q 292 311 292 401 z "},"r":{"ha":772,"x_min":33,"x_max":744,"o":"m 744 507 q 706 377 744 438 q 600 274 668 317 q 732 60 661 164 l 724 32 q 468 -14 589 -6 l 438 13 q 376 197 404 110 l 304 197 l 290 0 l 33 0 l 71 207 l 121 713 l 486 713 q 674 658 604 713 q 744 507 744 603 m 331 383 l 413 378 q 469 468 469 406 q 455 519 469 504 q 406 538 440 535 l 354 533 l 331 383 z "},"s":{"ha":650,"x_min":1,"x_max":629,"o":"m 415 726 q 629 689 526 726 l 569 476 l 533 467 q 438 518 489 499 q 358 538 388 538 q 328 515 328 538 q 347 488 328 499 q 407 461 365 476 q 501 418 463 440 q 567 356 539 396 q 596 256 596 317 q 560 124 596 186 q 445 23 524 63 q 249 -17 367 -17 q 1 22 122 -17 l 63 244 l 88 263 q 199 192 138 219 q 301 164 260 164 q 338 190 338 164 q 319 217 338 206 q 260 243 300 228 q 164 286 203 264 q 97 349 125 308 q 68 451 68 389 q 110 590 68 528 q 230 690 151 653 q 415 726 308 726 z "},"t":{"ha":635,"x_min":40,"x_max":660,"o":"m 624 508 l 468 517 l 463 517 l 422 233 l 404 0 l 149 0 l 186 207 l 218 517 l 213 517 l 53 508 l 40 526 l 78 713 l 650 713 l 660 694 l 624 508 z "},"u":{"ha":786,"x_min":47,"x_max":774,"o":"m 706 235 q 599 49 690 113 q 347 -15 508 -15 q 126 38 206 -15 q 47 189 47 90 q 51 235 47 213 l 68 350 l 106 713 l 361 713 l 296 269 q 294 247 294 261 q 313 200 294 214 q 374 186 331 186 q 444 206 422 186 q 471 269 467 225 l 514 713 l 774 713 l 721 351 l 706 235 z "},"v":{"ha":749,"x_min":60,"x_max":790,"o":"m 171 0 l 60 713 l 318 713 l 324 581 l 354 225 l 369 225 l 500 565 l 540 713 l 790 713 l 482 0 l 171 0 z "},"w":{"ha":1083,"x_min":76,"x_max":1126,"o":"m 550 0 l 519 210 l 504 210 l 432 0 l 154 0 l 76 713 l 329 713 l 325 589 l 336 260 l 351 260 l 458 551 l 443 713 l 707 713 l 706 561 l 726 260 l 742 260 l 850 574 l 888 713 l 1126 713 l 828 0 l 550 0 z "},"x":{"ha":769,"x_min":-32,"x_max":810,"o":"m 733 0 l 432 0 l 403 96 l 363 185 l 279 82 l 231 0 l -32 0 l 240 350 l 46 713 l 349 713 l 378 614 l 421 524 l 494 629 l 540 713 l 810 713 l 546 364 l 733 0 z "},"y":{"ha":728,"x_min":43,"x_max":792,"o":"m 453 182 l 442 0 l 186 0 l 221 182 l 224 211 l 43 713 l 311 713 l 322 647 l 374 461 l 388 461 l 493 638 l 531 713 l 792 713 l 458 208 l 453 182 z "},"z":{"ha":693,"x_min":1,"x_max":693,"o":"m 328 188 l 492 188 l 642 199 l 647 189 l 604 -7 l 383 0 l 126 0 l 1 -7 l 24 174 l 374 524 l 214 524 l 64 511 l 57 521 l 99 715 l 285 713 l 693 713 l 672 531 l 328 188 z "},"{":{"ha":421,"x_min":36,"x_max":492,"o":"m 376 915 q 485 899 433 915 l 492 881 l 456 749 q 410 756 431 756 q 356 734 375 756 q 338 676 338 713 q 346 614 338 658 q 354 546 354 569 q 324 457 354 499 q 239 390 294 415 l 238 381 q 297 326 276 360 q 318 254 318 293 q 288 156 318 217 q 261 72 261 100 q 319 15 261 15 q 367 22 339 15 l 371 -110 l 358 -128 q 246 -144 303 -144 q 97 -105 149 -144 q 44 7 44 -65 q 78 146 44 63 q 101 238 101 208 q 36 325 101 296 l 51 446 q 140 561 140 482 q 136 624 140 557 q 131 708 131 676 q 194 862 131 808 q 376 915 258 915 z "},"|":{"ha":417,"x_min":24,"x_max":410,"o":"m 317 408 l 226 -340 l 42 -356 l 24 -333 l 114 388 l 203 1110 l 393 1125 l 410 1107 l 317 408 z "},"}":{"ha":419,"x_min":-58,"x_max":397,"o":"m 57 -146 q -51 -129 0 -146 l -58 -111 l -22 21 q 24 14 3 14 q 77 35 58 14 q 96 93 96 57 q 88 156 96 111 q 79 224 79 200 q 109 313 79 271 q 194 379 139 354 l 196 389 q 136 443 157 410 q 115 515 115 476 q 146 614 115 553 q 172 697 172 669 q 114 754 172 754 q 67 747 94 754 l 63 879 l 75 897 q 188 914 131 914 q 337 874 285 914 q 389 763 389 835 q 356 624 389 707 q 332 532 332 561 q 397 444 332 474 l 382 324 q 293 208 293 288 q 297 146 293 213 q 303 61 303 93 q 239 -92 303 -39 q 57 -146 175 -146 z "},"~":{"ha":667,"x_min":4,"x_max":668,"o":"m 206 294 q 156 275 181 294 q 88 211 132 256 l 65 211 l 4 297 l 7 319 l 156 479 l 178 489 q 322 449 218 482 q 469 410 447 410 q 513 426 490 410 q 557 465 535 443 q 588 494 579 486 l 610 494 l 668 407 l 665 385 l 519 225 l 496 218 q 336 261 454 224 q 206 294 225 294 z "}," ":{"ha":176,"x_min":0,"x_max":0,"o":""},"¡":{"ha":397,"x_min":-18,"x_max":368,"o":"m 121 299 l 274 321 l 297 296 l 256 -229 l 229 -260 l 10 -275 l -18 -243 l 121 299 m 226 396 q 132 431 165 396 q 99 526 99 465 q 136 632 99 593 q 238 671 174 671 q 335 637 301 671 q 368 539 368 603 q 330 435 368 474 q 226 396 292 396 z "},"¢":{"ha":533,"x_min":18,"x_max":544,"o":"m 507 231 q 339 65 438 114 l 304 -176 l 169 -176 l 154 -157 l 183 54 q 57 143 96 81 q 18 311 18 206 q 84 557 18 451 q 279 700 150 663 l 310 917 l 440 917 l 461 897 l 435 711 l 536 683 l 544 660 l 482 496 l 432 494 q 390 534 407 522 q 349 546 372 546 q 236 356 236 546 q 251 263 236 292 q 301 233 267 233 q 349 253 326 233 q 403 322 372 272 l 432 321 l 507 231 z "},"£":{"ha":665,"x_min":-21,"x_max":694,"o":"m 529 829 q 694 811 613 829 l 660 625 l 640 614 q 486 658 547 658 q 396 588 406 658 l 382 490 l 557 490 l 563 478 l 536 346 l 363 346 l 356 300 q 336 229 350 254 q 290 182 322 204 l 290 175 l 457 175 l 611 186 l 617 175 l 578 -7 l 364 0 l -14 0 l -21 13 l 7 161 q 91 206 64 176 q 124 288 118 235 l 131 346 l 28 346 l 24 358 l 49 490 l 147 490 l 153 544 q 267 756 168 682 q 529 829 365 829 z "},"¤":{"ha":603,"x_min":-24,"x_max":658,"o":"m 656 658 l 546 574 q 558 494 558 539 q 528 381 558 439 l 618 304 l 619 281 l 488 158 l 465 158 l 396 257 q 288 231 344 231 q 196 251 242 231 l 110 154 l 85 150 l -24 265 l -19 288 l 88 369 q 75 447 75 403 q 107 565 75 508 l 19 642 l 19 665 l 150 789 l 172 788 l 243 689 q 346 711 294 711 q 433 693 390 711 l 525 793 l 550 797 l 658 681 l 656 658 m 329 571 q 247 540 278 571 q 215 457 215 510 q 238 394 215 417 q 304 371 261 371 q 388 402 357 371 q 418 485 418 433 q 394 548 418 525 q 329 571 371 571 z "},"¥":{"ha":813,"x_min":28,"x_max":833,"o":"m 778 443 l 756 333 l 576 333 l 524 257 l 743 257 l 753 247 l 733 138 l 481 138 l 471 0 l 236 0 l 263 138 l 35 138 l 28 150 l 47 257 l 256 257 l 225 333 l 58 333 l 51 346 l 72 453 l 179 453 l 79 710 l 326 710 l 339 647 l 410 446 l 424 446 l 557 639 l 593 710 l 833 710 l 657 453 l 768 453 l 778 443 z "},"¦":{"ha":417,"x_min":24,"x_max":410,"o":"m 333 531 l 146 507 l 131 522 l 203 1110 l 393 1125 l 410 1107 l 333 531 m 226 -340 l 42 -356 l 24 -333 l 90 203 l 274 224 l 292 201 l 226 -340 z "},"§":{"ha":646,"x_min":-12,"x_max":640,"o":"m 343 718 q 364 690 343 703 q 431 657 385 676 q 531 608 490 632 q 602 545 572 585 q 632 450 632 506 q 588 324 632 383 q 469 231 544 265 q 540 100 540 176 q 498 -17 540 36 q 383 -102 456 -71 q 222 -133 310 -133 q 105 -122 171 -133 q -12 -94 39 -111 l 39 93 l 63 108 q 165 46 108 69 q 263 22 221 22 q 306 33 292 22 q 321 57 321 43 q 299 86 321 74 q 233 117 278 99 q 133 165 174 142 q 62 228 92 189 q 32 325 32 268 q 74 451 32 392 q 189 547 117 511 q 122 676 122 600 q 165 795 122 740 q 283 882 208 850 q 446 914 357 914 q 640 879 553 914 l 593 700 l 563 690 q 474 735 519 719 q 399 750 429 750 q 358 740 374 750 q 343 718 343 731 m 253 390 q 275 344 253 364 q 339 301 297 324 q 410 385 410 338 q 388 433 410 413 q 322 474 365 453 q 253 390 253 440 z "},"¨":{"ha":542,"x_min":86,"x_max":589,"o":"m 208 993 q 291 964 261 993 q 321 881 321 935 q 288 788 321 822 q 199 754 256 754 q 115 784 143 754 q 86 869 86 814 q 119 960 86 928 q 208 993 151 993 m 478 993 q 560 963 531 993 q 589 881 589 933 q 556 788 589 822 q 468 754 524 754 q 383 784 413 754 q 354 869 354 814 q 388 960 354 928 q 478 993 421 993 z "},"©":{"ha":965,"x_min":69,"x_max":915,"o":"m 492 831 q 714 778 618 831 q 863 629 810 725 q 915 407 915 533 q 863 185 915 281 q 714 36 810 89 q 492 -17 618 -17 q 271 36 367 -17 q 122 185 175 89 q 69 407 69 281 q 122 629 69 533 q 271 778 175 725 q 492 831 367 831 m 492 746 q 317 703 393 746 q 198 584 240 661 q 156 407 156 507 q 198 230 156 307 q 317 110 240 153 q 492 68 393 68 q 668 110 592 68 q 787 230 744 153 q 829 407 829 307 q 787 584 829 507 q 668 703 744 661 q 492 746 592 746 m 533 644 q 650 632 585 644 l 619 493 l 610 486 q 526 503 575 503 q 476 487 490 503 q 461 426 461 471 q 479 346 461 371 q 539 321 497 321 q 619 328 581 321 l 633 319 l 619 182 q 571 179 603 179 l 525 179 q 276 406 276 179 q 344 581 276 518 q 533 644 411 644 z "},"ª":{"ha":468,"x_min":50,"x_max":486,"o":"m 440 554 l 436 450 l 283 440 l 300 572 l 286 572 q 194 435 242 486 l 174 435 q 77 492 104 453 q 50 593 50 531 q 110 780 50 693 q 283 900 169 867 l 290 900 l 383 885 l 475 904 l 486 897 l 440 554 m 215 571 q 324 744 249 571 l 328 775 l 261 790 q 210 754 228 790 q 192 654 192 718 q 215 571 192 571 z "},"«":{"ha":647,"x_min":40,"x_max":656,"o":"m 46 344 l 250 590 l 368 525 l 371 501 l 238 319 l 326 139 l 318 115 l 185 50 l 40 307 l 46 344 m 331 344 l 535 590 l 653 525 l 656 501 l 522 319 l 611 139 l 603 115 l 469 50 l 325 307 l 331 344 z "},"¬":{"ha":668,"x_min":15,"x_max":625,"o":"m 578 53 l 415 40 l 399 57 l 425 264 l 31 264 l 15 282 l 49 444 l 618 444 l 625 432 l 578 53 z "},"­":{"ha":417,"x_min":26,"x_max":394,"o":"m 376 286 l 43 233 l 26 253 l 46 419 l 378 472 l 394 453 l 376 286 z "},"®":{"ha":631,"x_min":49,"x_max":582,"o":"m 315 976 q 508 903 435 976 q 582 710 582 829 q 508 517 582 590 q 315 443 435 443 q 122 517 196 443 q 49 710 49 590 q 122 903 49 829 q 315 976 196 976 m 315 501 q 467 559 410 501 q 524 710 524 617 q 467 861 524 804 q 315 918 410 918 q 165 861 222 918 q 107 710 107 804 q 165 559 107 617 q 315 501 222 501 m 444 768 q 394 688 444 718 q 461 601 429 639 l 460 592 q 374 576 433 582 l 363 583 q 322 661 339 625 l 288 661 l 292 582 l 203 582 l 207 660 l 203 854 l 342 856 q 417 833 390 856 q 444 768 444 810 m 351 761 q 310 792 351 790 l 292 790 l 289 724 l 326 721 q 351 761 351 736 z "},"¯":{"ha":542,"x_min":132,"x_max":544,"o":"m 532 793 l 149 793 l 132 811 l 144 958 l 528 958 l 544 942 l 532 793 z "},"°":{"ha":407,"x_min":64,"x_max":442,"o":"m 275 915 q 394 867 347 915 q 442 747 442 818 q 413 644 442 692 q 334 568 383 596 q 229 540 285 540 q 111 589 158 540 q 64 708 64 638 q 93 812 64 764 q 171 888 122 860 q 275 915 219 915 m 263 806 q 199 781 224 806 q 174 718 174 757 q 192 668 174 686 q 243 650 211 650 q 306 674 281 650 q 331 738 331 699 q 312 787 331 768 q 263 806 293 806 z "},"±":{"ha":665,"x_min":-33,"x_max":656,"o":"m 436 444 l 640 444 l 656 426 l 622 264 l 414 264 l 388 53 l 224 40 l 207 57 l 233 264 l 26 264 l 13 282 l 44 444 l 256 444 l 281 656 l 444 668 l 461 651 l 436 444 m 581 -200 l -17 -200 l -33 -182 l -21 -19 l 576 -19 l 593 -37 l 581 -200 z "},"²":{"ha":521,"x_min":50,"x_max":521,"o":"m 347 982 q 472 949 424 982 q 521 854 521 915 q 490 761 521 810 q 386 638 460 713 l 331 581 l 333 576 l 413 576 l 513 586 l 521 574 l 481 418 l 331 426 l 94 426 l 58 424 l 50 431 l 64 547 l 204 671 q 286 749 264 725 q 308 793 308 772 q 275 818 308 818 q 212 803 249 818 q 142 763 175 788 l 119 763 l 103 913 q 347 982 239 982 z "},"³":{"ha":468,"x_min":50,"x_max":490,"o":"m 303 983 q 439 948 388 983 q 490 856 490 913 q 389 717 490 768 l 389 711 q 469 604 469 685 q 386 467 469 518 q 168 415 303 415 q 50 426 106 415 l 54 568 l 69 579 q 189 561 133 561 q 274 597 274 561 q 238 618 274 618 l 151 618 l 143 629 l 161 761 l 207 764 q 278 806 278 767 q 238 828 278 828 q 126 801 201 828 l 106 801 l 89 933 q 303 983 193 983 z "},"´":{"ha":542,"x_min":136,"x_max":535,"o":"m 535 899 l 531 875 q 221 724 333 775 l 197 725 l 136 825 q 415 1047 274 926 l 439 1046 l 535 899 z "},"µ":{"ha":725,"x_min":-14,"x_max":703,"o":"m 638 161 l 632 10 l 386 -6 l 408 163 l 390 163 q 251 1 325 74 l 238 -103 l 232 -254 l -14 -269 l 86 489 l 92 646 l 338 661 l 288 276 l 288 269 q 313 244 288 244 q 436 376 353 244 l 451 489 l 457 646 l 703 661 l 638 161 z "},"¶":{"ha":783,"x_min":43,"x_max":840,"o":"m 800 694 l 718 694 l 658 296 l 650 200 q 603 59 640 118 q 491 -47 567 0 q 289 -132 415 -93 l 235 -8 l 238 14 q 350 89 315 50 q 393 190 385 128 l 403 268 l 446 696 l 401 696 q 351 643 369 682 q 333 550 333 604 q 381 399 333 467 l 268 264 q 101 367 160 294 q 43 543 43 440 q 154 805 43 711 q 465 899 265 899 l 826 899 l 840 881 l 800 694 z "},"·":{"ha":319,"x_min":28,"x_max":297,"o":"m 169 499 q 264 464 231 499 q 297 368 297 429 q 260 263 297 301 q 158 224 222 224 q 61 258 94 224 q 28 356 28 292 q 66 460 28 421 q 169 499 104 499 z "},"¸":{"ha":542,"x_min":64,"x_max":344,"o":"m 283 -86 q 344 -174 344 -118 q 303 -258 344 -225 q 192 -290 263 -290 q 64 -257 124 -290 l 79 -153 l 90 -149 q 174 -187 136 -187 q 196 -168 196 -187 q 179 -147 196 -156 l 110 -110 l 140 46 l 256 46 l 236 -60 l 283 -86 z "},"¹":{"ha":410,"x_min":56,"x_max":406,"o":"m 354 622 l 339 426 l 132 426 l 161 603 l 181 761 l 68 744 l 56 753 l 75 908 l 379 981 l 406 961 l 354 622 z "},"º":{"ha":449,"x_min":53,"x_max":472,"o":"m 331 903 q 435 848 397 890 q 472 735 472 806 q 402 519 472 599 q 208 433 332 440 l 194 436 q 53 614 53 463 q 124 819 53 742 q 315 904 194 897 l 331 903 m 288 792 q 219 750 238 792 q 200 613 200 708 q 208 558 200 574 q 239 543 217 543 q 306 585 288 543 q 324 724 324 628 q 316 777 324 763 q 288 792 308 792 z "},"»":{"ha":647,"x_min":-8,"x_max":607,"o":"m 601 300 l 397 54 l 279 119 l 276 143 l 410 325 l 321 506 l 329 529 l 463 594 l 607 338 l 601 300 m 317 300 l 113 54 l -6 119 l -8 143 l 125 325 l 36 506 l 44 529 l 178 594 l 322 338 l 317 300 z "},"¼":{"ha":1133,"x_min":49,"x_max":1097,"o":"m 165 -131 l 61 -61 l 56 -37 l 822 964 l 921 899 l 931 865 l 165 -131 m 49 679 l 68 835 l 372 907 l 399 888 l 347 549 l 332 353 l 125 353 l 154 529 l 174 688 l 61 671 l 49 679 m 1008 97 l 1004 13 l 992 0 l 832 -8 l 822 3 l 838 100 l 718 100 l 601 96 l 592 111 l 606 233 l 875 546 l 1063 546 l 1021 247 l 1089 247 l 1097 231 l 1072 96 l 1008 97 m 860 247 l 869 338 l 858 338 l 779 247 l 860 247 z "},"½":{"ha":1121,"x_min":49,"x_max":1069,"o":"m 932 865 l 167 -131 l 63 -61 l 57 -37 l 824 964 l 922 899 l 932 865 m 347 549 l 332 353 l 125 353 l 154 529 l 174 688 l 61 671 l 49 679 l 68 835 l 372 907 l 399 888 l 347 549 m 896 556 q 1021 522 972 556 q 1069 428 1069 489 q 1039 335 1069 383 q 935 211 1008 286 l 879 154 l 882 150 l 961 150 l 1061 160 l 1069 147 l 1029 -8 l 879 0 l 643 0 l 607 -3 l 599 4 l 613 121 l 753 244 q 835 322 813 299 q 857 367 857 346 q 824 392 857 392 q 760 376 797 392 q 690 336 724 361 l 668 336 l 651 486 q 896 556 788 556 z "},"¾":{"ha":1192,"x_min":43,"x_max":1156,"o":"m 224 -131 l 119 -61 l 114 -37 l 881 964 l 979 899 l 989 865 l 224 -131 m 463 531 q 379 393 463 444 q 161 342 296 342 q 43 353 99 342 l 47 494 l 63 506 q 182 488 126 488 q 267 524 267 488 q 231 544 267 544 l 144 544 l 136 556 l 154 688 l 200 690 q 271 732 271 693 q 231 754 271 754 q 119 728 194 754 l 99 728 l 82 860 q 296 910 186 910 q 432 874 381 910 q 483 782 483 839 q 382 643 483 694 l 382 638 q 463 531 463 611 m 1067 97 l 1063 13 l 1050 0 l 890 -8 l 881 3 l 896 100 l 776 100 l 660 96 l 650 111 l 664 233 l 933 546 l 1121 546 l 1079 247 l 1147 247 l 1156 231 l 1131 96 l 1067 97 m 918 247 l 928 338 l 917 338 l 838 247 l 918 247 z "},"¿":{"ha":488,"x_min":-86,"x_max":417,"o":"m 304 -282 q 15 -219 115 -274 q -86 -68 -86 -164 q -43 54 -86 -3 q 78 149 0 111 l 164 190 l 168 199 l 171 297 l 363 325 l 378 308 l 372 119 l 361 104 l 239 54 q 163 -28 163 24 q 210 -81 163 -62 q 376 -108 257 -100 l 393 -132 l 329 -269 l 304 -282 m 275 396 q 181 431 215 396 q 147 526 147 465 q 185 632 147 593 q 286 671 222 671 q 383 637 350 671 q 417 539 417 603 q 378 435 417 474 q 275 396 340 396 z "},"À":{"ha":869,"x_min":-37,"x_max":815,"o":"m 535 0 l 529 149 l 529 154 l 392 157 l 276 151 l 233 0 l -37 0 l 346 899 l 681 899 l 815 0 l 535 0 m 486 651 l 469 651 l 354 356 l 433 354 l 511 356 l 486 651 m 425 1274 q 738 1104 557 1196 l 696 994 l 672 989 q 342 1085 525 1026 l 333 1107 l 401 1268 l 425 1274 z "},"Á":{"ha":869,"x_min":-37,"x_max":815,"o":"m 535 0 l 529 149 l 529 154 l 392 157 l 276 151 l 233 0 l -37 0 l 346 899 l 681 899 l 815 0 l 535 0 m 486 651 l 469 651 l 354 356 l 433 354 l 511 356 l 486 651 m 742 1107 l 733 1085 q 403 989 550 1026 l 379 994 l 338 1104 q 650 1274 496 1182 l 674 1268 l 742 1107 z "},"Â":{"ha":869,"x_min":-37,"x_max":815,"o":"m 535 0 l 529 149 l 529 154 l 392 157 l 276 151 l 233 0 l -37 0 l 346 899 l 681 899 l 815 0 l 535 0 m 486 651 l 469 651 l 354 356 l 433 354 l 511 356 l 486 651 m 300 1106 q 519 1269 438 1199 l 567 1269 q 772 1106 647 1193 l 713 1000 l 688 1000 l 538 1083 q 449 1042 510 1069 l 360 1000 l 335 1000 l 300 1106 z "},"Ã":{"ha":869,"x_min":-37,"x_max":815,"o":"m 535 0 l 529 149 l 529 154 l 392 157 l 276 151 l 233 0 l -37 0 l 346 899 l 681 899 l 815 0 l 535 0 m 486 651 l 469 651 l 354 356 l 433 354 l 511 356 l 486 651 m 807 1174 l 694 1017 l 672 1008 q 553 1036 635 1013 q 460 1056 472 1056 q 418 1038 436 1056 q 364 975 400 1019 l 342 975 l 263 1051 l 263 1074 l 375 1229 l 397 1238 q 517 1210 435 1233 q 610 1190 597 1190 q 651 1208 633 1190 q 706 1271 669 1226 l 728 1271 l 807 1196 l 807 1174 z "},"Ä":{"ha":869,"x_min":-37,"x_max":815,"o":"m 535 0 l 529 149 l 529 154 l 392 157 l 276 151 l 233 0 l -37 0 l 346 899 l 681 899 l 815 0 l 535 0 m 486 651 l 469 651 l 354 356 l 433 354 l 511 356 l 486 651 m 404 1236 q 487 1207 457 1236 q 517 1124 517 1178 q 484 1031 517 1065 q 394 997 451 997 q 310 1027 339 997 q 282 1113 282 1057 q 315 1203 282 1171 q 404 1236 347 1236 m 674 1236 q 756 1206 726 1236 q 785 1124 785 1176 q 752 1031 785 1065 q 664 997 719 997 q 579 1027 608 997 q 550 1113 550 1057 q 583 1203 550 1171 q 674 1236 617 1236 z "},"Å":{"ha":869,"x_min":-37,"x_max":815,"o":"m 535 0 l 529 149 l 529 154 l 392 157 l 276 151 l 233 0 l -37 0 l 346 899 l 681 899 l 815 0 l 535 0 m 486 651 l 469 651 l 354 356 l 433 354 l 511 356 l 486 651 m 542 1292 q 689 1149 689 1292 q 649 1031 689 1072 q 531 990 608 990 q 383 1139 383 990 q 542 1292 383 1292 m 535 1185 q 498 1176 508 1185 q 488 1143 488 1167 q 499 1106 488 1117 q 538 1096 510 1096 q 574 1106 564 1096 q 585 1139 585 1115 q 574 1174 585 1164 q 535 1185 563 1185 z "},"Æ":{"ha":1164,"x_min":-68,"x_max":1157,"o":"m 1149 201 l 1107 0 l 503 0 l 514 149 l 518 242 l 271 169 l 269 165 l 203 0 l -68 0 l 425 899 l 1144 899 l 1157 879 l 1115 678 l 908 686 l 804 686 l 796 528 l 1039 601 l 1057 586 l 1058 394 l 785 318 l 779 213 l 906 213 l 1135 221 l 1149 201 m 535 651 l 518 651 l 393 408 l 526 447 l 535 651 z "},"Ç":{"ha":717,"x_min":35,"x_max":782,"o":"m 549 914 q 782 876 681 914 l 710 656 l 690 646 q 611 677 657 665 q 525 689 565 689 q 376 622 419 689 q 332 410 332 556 q 369 261 332 308 q 483 214 406 214 q 660 243 572 214 l 679 231 l 631 11 q 481 -15 557 -11 l 472 -58 l 519 -85 q 581 -172 581 -117 q 540 -256 581 -224 q 428 -289 499 -289 q 300 -256 360 -289 l 315 -151 l 326 -147 q 410 -186 372 -186 q 432 -167 432 -186 q 415 -146 432 -154 l 346 -108 l 365 -11 q 119 105 204 8 q 35 365 35 201 q 168 769 35 624 q 549 914 301 914 z "},"È":{"ha":750,"x_min":43,"x_max":810,"o":"m 386 558 l 522 558 l 668 563 l 681 543 l 639 340 l 479 344 l 354 344 l 346 292 l 339 213 l 472 213 l 704 221 l 717 201 l 675 0 l 43 0 l 89 264 l 154 899 l 797 899 l 810 879 l 767 678 l 547 686 l 404 686 l 386 558 m 386 1274 q 699 1104 518 1196 l 657 994 l 633 989 q 303 1085 486 1026 l 294 1107 l 363 1268 l 386 1274 z "},"É":{"ha":750,"x_min":43,"x_max":810,"o":"m 386 558 l 522 558 l 668 563 l 681 543 l 639 340 l 479 344 l 354 344 l 346 292 l 339 213 l 472 213 l 704 221 l 717 201 l 675 0 l 43 0 l 89 264 l 154 899 l 797 899 l 810 879 l 767 678 l 547 686 l 404 686 l 386 558 m 703 1107 l 694 1085 q 364 989 511 1026 l 340 994 l 299 1104 q 611 1274 457 1182 l 635 1268 l 703 1107 z "},"Ê":{"ha":750,"x_min":43,"x_max":810,"o":"m 386 558 l 522 558 l 668 563 l 681 543 l 639 340 l 479 344 l 354 344 l 346 292 l 339 213 l 472 213 l 704 221 l 717 201 l 675 0 l 43 0 l 89 264 l 154 899 l 797 899 l 810 879 l 767 678 l 547 686 l 404 686 l 386 558 m 261 1106 q 481 1269 399 1199 l 528 1269 q 733 1106 608 1193 l 674 1000 l 649 1000 l 499 1083 q 410 1042 471 1069 l 321 1000 l 296 1000 l 261 1106 z "},"Ë":{"ha":750,"x_min":43,"x_max":810,"o":"m 386 558 l 522 558 l 668 563 l 681 543 l 639 340 l 479 344 l 354 344 l 346 292 l 339 213 l 472 213 l 704 221 l 717 201 l 675 0 l 43 0 l 89 264 l 154 899 l 797 899 l 810 879 l 767 678 l 547 686 l 404 686 l 386 558 m 365 1236 q 448 1207 418 1236 q 478 1124 478 1178 q 445 1031 478 1065 q 356 997 413 997 q 272 1027 300 997 q 243 1113 243 1057 q 276 1203 243 1171 q 365 1236 308 1236 m 635 1236 q 717 1206 688 1236 q 746 1124 746 1176 q 713 1031 746 1065 q 625 997 681 997 q 540 1027 569 997 q 511 1113 511 1057 q 544 1203 511 1171 q 635 1236 578 1236 z "},"Ì":{"ha":454,"x_min":43,"x_max":524,"o":"m 321 0 l 43 0 l 90 264 l 154 899 l 436 899 l 346 292 l 321 0 m 211 1274 q 524 1104 343 1196 l 482 994 l 458 989 q 128 1085 311 1026 l 119 1107 l 188 1268 l 211 1274 z "},"Í":{"ha":454,"x_min":43,"x_max":528,"o":"m 321 0 l 43 0 l 90 264 l 154 899 l 436 899 l 346 292 l 321 0 m 528 1107 l 519 1085 q 189 989 336 1026 l 165 994 l 124 1104 q 436 1274 282 1182 l 460 1268 l 528 1107 z "},"Î":{"ha":454,"x_min":43,"x_max":558,"o":"m 321 0 l 43 0 l 90 264 l 154 899 l 436 899 l 346 292 l 321 0 m 86 1106 q 306 1269 224 1199 l 353 1269 q 558 1106 433 1193 l 499 1000 l 474 1000 l 324 1083 q 235 1042 296 1069 l 146 1000 l 121 1000 l 86 1106 z "},"Ï":{"ha":454,"x_min":43,"x_max":564,"o":"m 321 0 l 43 0 l 90 264 l 154 899 l 436 899 l 346 292 l 321 0 m 197 1236 q 280 1206 250 1236 q 310 1122 310 1176 q 276 1031 310 1065 q 188 997 243 997 q 104 1026 133 997 q 75 1111 75 1056 q 108 1203 75 1169 q 197 1236 140 1236 m 453 1236 q 535 1206 506 1236 q 564 1122 564 1176 q 531 1031 564 1065 q 443 997 499 997 q 358 1026 388 997 q 329 1111 329 1056 q 363 1203 329 1169 q 453 1236 396 1236 z "},"Ð":{"ha":969,"x_min":25,"x_max":967,"o":"m 590 904 q 867 813 768 904 q 967 551 967 721 q 831 137 967 286 q 439 -12 694 -12 q 88 0 281 -12 l 133 264 l 142 346 l 36 346 l 25 364 l 50 526 l 160 526 l 197 899 l 590 904 m 501 193 q 674 511 674 193 q 645 648 674 607 q 553 689 617 689 q 447 683 501 689 l 424 526 l 529 526 l 539 508 l 515 346 l 397 346 l 389 292 l 382 204 q 501 193 465 193 z "},"Ñ":{"ha":986,"x_min":44,"x_max":974,"o":"m 858 0 l 557 0 l 363 483 l 346 483 l 325 325 l 296 0 l 44 0 l 90 264 l 154 899 l 456 899 l 651 415 l 668 415 l 718 889 l 974 904 l 883 293 l 858 0 m 864 1174 l 751 1017 l 729 1008 q 610 1036 692 1013 q 517 1056 529 1056 q 475 1038 493 1056 q 421 975 457 1019 l 399 975 l 319 1051 l 319 1074 l 432 1229 l 454 1238 q 574 1210 492 1233 q 667 1190 654 1190 q 708 1208 690 1190 q 763 1271 726 1226 l 785 1271 l 864 1196 l 864 1174 z "},"Ò":{"ha":914,"x_min":33,"x_max":908,"o":"m 528 915 q 809 817 710 915 q 908 519 908 719 q 851 242 908 364 q 682 52 793 121 q 415 -17 571 -17 q 133 83 233 -17 q 33 383 33 182 q 91 659 33 539 q 260 847 149 779 q 528 915 372 915 m 496 694 q 403 669 440 694 q 345 576 367 644 q 324 379 324 507 q 333 264 324 304 q 369 206 343 224 q 444 188 394 188 q 536 213 499 188 q 595 306 574 238 q 617 503 617 375 q 607 617 617 576 q 572 676 597 658 q 496 694 546 694 m 444 1274 q 757 1104 576 1196 l 715 994 l 692 989 q 361 1085 544 1026 l 353 1107 l 421 1268 l 444 1274 z "},"Ó":{"ha":914,"x_min":33,"x_max":908,"o":"m 528 915 q 809 817 710 915 q 908 519 908 719 q 851 242 908 364 q 682 52 793 121 q 415 -17 571 -17 q 133 83 233 -17 q 33 383 33 182 q 91 659 33 539 q 260 847 149 779 q 528 915 372 915 m 496 694 q 403 669 440 694 q 345 576 367 644 q 324 379 324 507 q 333 264 324 304 q 369 206 343 224 q 444 188 394 188 q 536 213 499 188 q 595 306 574 238 q 617 503 617 375 q 607 617 617 576 q 572 676 597 658 q 496 694 546 694 m 761 1107 l 753 1085 q 422 989 569 1026 l 399 994 l 357 1104 q 669 1274 515 1182 l 693 1268 l 761 1107 z "},"Ô":{"ha":914,"x_min":33,"x_max":908,"o":"m 528 915 q 809 817 710 915 q 908 519 908 719 q 851 242 908 364 q 682 52 793 121 q 415 -17 571 -17 q 133 83 233 -17 q 33 383 33 182 q 91 659 33 539 q 260 847 149 779 q 528 915 372 915 m 496 694 q 403 669 440 694 q 345 576 367 644 q 324 379 324 507 q 333 264 324 304 q 369 206 343 224 q 444 188 394 188 q 536 213 499 188 q 595 306 574 238 q 617 503 617 375 q 607 617 617 576 q 572 676 597 658 q 496 694 546 694 m 319 1106 q 539 1269 457 1199 l 586 1269 q 792 1106 667 1193 l 732 1000 l 707 1000 l 557 1083 q 468 1042 529 1069 l 379 1000 l 354 1000 l 319 1106 z "},"Õ":{"ha":914,"x_min":33,"x_max":908,"o":"m 528 915 q 809 817 710 915 q 908 519 908 719 q 851 242 908 364 q 682 52 793 121 q 415 -17 571 -17 q 133 83 233 -17 q 33 383 33 182 q 91 659 33 539 q 260 847 149 779 q 528 915 372 915 m 496 694 q 403 669 440 694 q 345 576 367 644 q 324 379 324 507 q 333 264 324 304 q 369 206 343 224 q 444 188 394 188 q 536 213 499 188 q 595 306 574 238 q 617 503 617 375 q 607 617 617 576 q 572 676 597 658 q 496 694 546 694 m 826 1174 l 714 1017 l 692 1008 q 572 1036 654 1013 q 479 1056 492 1056 q 438 1038 456 1056 q 383 975 419 1019 l 361 975 l 282 1051 l 282 1074 l 394 1229 l 417 1238 q 536 1210 454 1233 q 629 1190 617 1190 q 671 1208 653 1190 q 725 1271 689 1226 l 747 1271 l 826 1196 l 826 1174 z "},"Ö":{"ha":914,"x_min":33,"x_max":908,"o":"m 528 915 q 809 817 710 915 q 908 519 908 719 q 851 242 908 364 q 682 52 793 121 q 415 -17 571 -17 q 133 83 233 -17 q 33 383 33 182 q 91 659 33 539 q 260 847 149 779 q 528 915 372 915 m 496 694 q 403 669 440 694 q 345 576 367 644 q 324 379 324 507 q 333 264 324 304 q 369 206 343 224 q 444 188 394 188 q 536 213 499 188 q 595 306 574 238 q 617 503 617 375 q 607 617 617 576 q 572 676 597 658 q 496 694 546 694 m 424 1236 q 506 1207 476 1236 q 536 1124 536 1178 q 503 1031 536 1065 q 414 997 471 997 q 330 1027 358 997 q 301 1113 301 1057 q 334 1203 301 1171 q 424 1236 367 1236 m 693 1236 q 775 1206 746 1236 q 804 1124 804 1176 q 772 1031 804 1065 q 683 997 739 997 q 599 1027 628 997 q 569 1113 569 1057 q 603 1203 569 1171 q 693 1236 636 1236 z "},"×":{"ha":668,"x_min":44,"x_max":632,"o":"m 631 500 l 467 354 l 593 208 l 590 183 l 453 78 l 324 228 l 154 76 l 44 183 l 47 207 l 213 354 l 83 500 l 86 525 l 222 631 l 354 482 l 521 631 l 632 525 l 631 500 z "},"Ø":{"ha":914,"x_min":33,"x_max":908,"o":"m 801 825 q 908 519 908 722 q 851 242 908 364 q 682 52 793 121 q 415 -17 571 -17 q 300 -6 358 -17 l 190 -187 l 56 -122 l 47 -99 l 149 68 q 33 383 33 171 q 91 659 33 539 q 260 847 149 779 q 528 915 372 915 q 650 901 596 915 l 736 1044 l 867 981 l 879 954 l 801 825 m 444 188 q 536 213 499 188 q 595 306 574 238 q 617 503 617 375 q 607 617 617 576 q 572 676 597 658 q 496 694 546 694 q 403 669 440 694 q 345 576 367 644 q 324 379 324 507 q 333 264 324 304 q 369 206 343 224 q 444 188 394 188 z "},"Ù":{"ha":907,"x_min":63,"x_max":913,"o":"m 829 300 q 704 65 810 146 q 413 -17 599 -17 q 155 50 247 -17 q 63 240 63 117 q 67 300 63 269 l 88 443 l 135 899 l 413 899 l 332 338 q 329 300 329 310 q 354 225 329 249 q 436 201 379 201 q 535 233 501 201 q 575 338 568 265 l 631 899 l 913 899 l 847 443 l 829 300 m 442 1274 q 754 1104 574 1196 l 713 994 l 689 989 q 358 1085 542 1026 l 350 1107 l 418 1268 l 442 1274 z "},"Ú":{"ha":907,"x_min":63,"x_max":913,"o":"m 829 300 q 704 65 810 146 q 413 -17 599 -17 q 155 50 247 -17 q 63 240 63 117 q 67 300 63 269 l 88 443 l 135 899 l 413 899 l 332 338 q 329 300 329 310 q 354 225 329 249 q 436 201 379 201 q 535 233 501 201 q 575 338 568 265 l 631 899 l 913 899 l 847 443 l 829 300 m 758 1107 l 750 1085 q 419 989 567 1026 l 396 994 l 354 1104 q 667 1274 513 1182 l 690 1268 l 758 1107 z "},"Û":{"ha":907,"x_min":63,"x_max":913,"o":"m 829 300 q 704 65 810 146 q 413 -17 599 -17 q 155 50 247 -17 q 63 240 63 117 q 67 300 63 269 l 88 443 l 135 899 l 413 899 l 332 338 q 329 300 329 310 q 354 225 329 249 q 436 201 379 201 q 535 233 501 201 q 575 338 568 265 l 631 899 l 913 899 l 847 443 l 829 300 m 317 1106 q 536 1269 454 1199 l 583 1269 q 789 1106 664 1193 l 729 1000 l 704 1000 l 554 1083 q 465 1042 526 1069 l 376 1000 l 351 1000 l 317 1106 z "},"Ü":{"ha":907,"x_min":63,"x_max":913,"o":"m 829 300 q 704 65 810 146 q 413 -17 599 -17 q 155 50 247 -17 q 63 240 63 117 q 67 300 63 269 l 88 443 l 135 899 l 413 899 l 332 338 q 329 300 329 310 q 354 225 329 249 q 436 201 379 201 q 535 233 501 201 q 575 338 568 265 l 631 899 l 913 899 l 847 443 l 829 300 m 421 1236 q 503 1207 474 1236 q 533 1124 533 1178 q 501 1031 533 1065 q 411 997 468 997 q 327 1027 356 997 q 299 1113 299 1057 q 331 1203 299 1171 q 421 1236 364 1236 m 690 1236 q 772 1206 743 1236 q 801 1124 801 1176 q 769 1031 801 1065 q 681 997 736 997 q 596 1027 625 997 q 567 1113 567 1057 q 600 1203 567 1171 q 690 1236 633 1236 z "},"Ý":{"ha":825,"x_min":60,"x_max":922,"o":"m 518 236 l 501 0 l 225 0 l 267 236 l 271 288 l 60 899 l 349 899 l 361 824 l 429 551 l 446 551 l 597 814 l 639 899 l 922 899 l 526 283 l 518 236 m 718 1107 l 710 1085 q 379 989 526 1026 l 356 994 l 314 1104 q 626 1274 472 1182 l 650 1268 l 718 1107 z "},"Þ":{"ha":838,"x_min":43,"x_max":856,"o":"m 565 772 q 778 710 701 772 q 856 532 856 647 q 802 328 856 417 q 651 190 749 239 q 428 140 554 140 l 336 140 l 324 0 l 43 0 l 90 264 l 154 899 l 439 899 l 419 772 l 565 772 m 475 329 q 546 392 525 354 q 567 488 567 429 q 541 558 567 535 q 461 583 515 581 l 392 578 l 356 336 l 475 329 z "},"ß":{"ha":867,"x_min":18,"x_max":840,"o":"m 489 726 q 653 707 578 726 q 825 643 729 688 l 832 615 l 674 429 q 806 315 772 356 q 840 225 840 275 q 748 44 840 103 q 521 -15 656 -15 q 306 25 407 -15 l 368 247 l 389 260 q 528 186 469 186 q 560 208 560 186 q 542 235 560 222 q 465 283 524 249 l 375 339 l 374 363 l 506 518 q 439 526 472 526 q 356 507 381 526 q 325 438 331 488 l 293 233 l 275 0 l 18 0 l 57 208 l 79 438 q 201 649 96 572 q 489 726 306 726 z "},"à":{"ha":763,"x_min":-31,"x_max":701,"o":"m 443 103 l 333 106 l 243 101 l 215 0 l -31 0 l 281 713 l 586 713 l 701 0 l 446 0 l 443 103 m 428 286 l 408 489 l 393 489 l 313 286 l 369 285 l 428 286 m 349 1104 q 628 882 490 983 l 567 782 l 543 781 q 233 932 431 832 l 229 956 l 325 1103 l 349 1104 z "},"á":{"ha":763,"x_min":-31,"x_max":701,"o":"m 443 103 l 333 106 l 243 101 l 215 0 l -31 0 l 281 713 l 586 713 l 701 0 l 446 0 l 443 103 m 428 286 l 408 489 l 393 489 l 313 286 l 369 285 l 428 286 m 654 956 l 650 932 q 340 781 453 832 l 317 782 l 256 882 q 535 1104 393 983 l 558 1103 l 654 956 z "},"â":{"ha":763,"x_min":-31,"x_max":704,"o":"m 443 103 l 333 106 l 243 101 l 215 0 l -31 0 l 281 713 l 586 713 l 701 0 l 446 0 l 443 103 m 428 286 l 408 489 l 393 489 l 313 286 l 369 285 l 428 286 m 206 893 q 453 1100 283 953 l 500 1100 q 704 893 572 1018 l 626 793 l 601 793 q 456 901 499 865 q 283 793 406 865 l 258 793 l 206 893 z "},"ã":{"ha":763,"x_min":-31,"x_max":726,"o":"m 443 103 l 333 106 l 243 101 l 215 0 l -31 0 l 281 713 l 586 713 l 701 0 l 446 0 l 443 103 m 428 286 l 408 489 l 393 489 l 313 286 l 369 285 l 428 286 m 726 988 l 614 831 l 592 822 q 472 850 554 826 q 379 869 392 869 q 338 851 356 869 q 283 789 319 833 l 261 789 l 182 865 l 182 888 l 294 1043 l 317 1051 q 436 1024 354 1047 q 529 1004 517 1004 q 571 1022 553 1004 q 625 1085 589 1040 l 647 1085 l 726 1010 l 726 988 z "},"ä":{"ha":763,"x_min":-31,"x_max":704,"o":"m 443 103 l 333 106 l 243 101 l 215 0 l -31 0 l 281 713 l 586 713 l 701 0 l 446 0 l 443 103 m 428 286 l 408 489 l 393 489 l 313 286 l 369 285 l 428 286 m 324 1050 q 406 1021 376 1050 q 436 938 436 992 q 403 845 436 879 q 314 811 371 811 q 230 841 258 811 q 201 926 201 871 q 234 1017 201 985 q 324 1050 267 1050 m 593 1050 q 675 1020 646 1050 q 704 938 704 990 q 672 845 704 879 q 583 811 639 811 q 499 841 528 811 q 469 926 469 871 q 503 1017 469 985 q 593 1050 536 1050 z "},"å":{"ha":763,"x_min":-31,"x_max":701,"o":"m 443 103 l 333 106 l 243 101 l 215 0 l -31 0 l 281 713 l 586 713 l 701 0 l 446 0 l 443 103 m 428 286 l 408 489 l 393 489 l 313 286 l 369 285 l 428 286 m 461 1106 q 608 963 608 1106 q 568 845 608 886 q 450 804 528 804 q 303 953 303 804 q 461 1106 303 1106 m 454 999 q 417 990 428 999 q 407 957 407 981 q 418 920 407 931 q 457 910 429 910 q 494 919 483 910 q 504 953 504 929 q 493 988 504 978 q 454 999 482 999 z "},"æ":{"ha":1006,"x_min":-54,"x_max":990,"o":"m 989 168 l 954 0 l 439 0 l 450 122 l 451 185 l 222 119 l 174 0 l -54 0 l 367 711 l 978 711 l 990 693 l 954 525 l 775 533 l 685 533 l 681 419 l 892 481 l 907 467 l 907 307 l 674 246 l 671 178 l 781 178 l 979 185 l 989 168 m 460 504 l 444 504 l 338 322 l 456 356 l 460 504 z "},"ç":{"ha":622,"x_min":25,"x_max":658,"o":"m 433 518 q 332 478 364 518 q 300 347 300 438 q 326 233 300 269 q 418 197 351 197 q 556 218 486 197 l 575 207 l 529 -3 q 415 -14 489 -10 l 407 -58 l 454 -85 q 515 -172 515 -117 q 474 -256 515 -224 q 363 -289 433 -289 q 235 -256 294 -289 l 250 -151 l 261 -147 q 344 -186 307 -186 q 367 -167 367 -186 q 350 -146 367 -154 l 281 -108 l 300 -8 q 92 91 158 11 q 25 311 25 171 q 76 529 25 436 q 225 674 126 622 q 464 725 324 725 q 658 703 574 725 l 592 493 l 574 482 q 433 518 515 518 z "},"è":{"ha":667,"x_min":33,"x_max":693,"o":"m 342 454 l 453 454 l 575 458 l 586 440 l 549 253 l 414 257 l 313 257 l 308 233 l 306 196 l 415 196 l 610 203 l 622 186 l 583 0 l 33 0 l 72 207 l 121 713 l 681 713 l 693 694 l 654 508 l 469 517 l 351 517 l 342 454 m 299 1104 q 578 882 440 983 l 517 782 l 493 781 q 183 932 381 832 l 179 956 l 275 1103 l 299 1104 z "},"é":{"ha":667,"x_min":33,"x_max":693,"o":"m 342 454 l 453 454 l 575 458 l 586 440 l 549 253 l 414 257 l 313 257 l 308 233 l 306 196 l 415 196 l 610 203 l 622 186 l 583 0 l 33 0 l 72 207 l 121 713 l 681 713 l 693 694 l 654 508 l 469 517 l 351 517 l 342 454 m 604 956 l 600 932 q 290 781 403 832 l 267 782 l 206 882 q 485 1104 343 983 l 508 1103 l 604 956 z "},"ê":{"ha":667,"x_min":33,"x_max":693,"o":"m 342 454 l 453 454 l 575 458 l 586 440 l 549 253 l 414 257 l 313 257 l 308 233 l 306 196 l 415 196 l 610 203 l 622 186 l 583 0 l 33 0 l 72 207 l 121 713 l 681 713 l 693 694 l 654 508 l 469 517 l 351 517 l 342 454 m 156 893 q 403 1100 233 953 l 450 1100 q 654 893 522 1018 l 576 793 l 551 793 q 406 901 449 865 q 233 793 356 865 l 208 793 l 156 893 z "},"ë":{"ha":667,"x_min":33,"x_max":693,"o":"m 342 454 l 453 454 l 575 458 l 586 440 l 549 253 l 414 257 l 313 257 l 308 233 l 306 196 l 415 196 l 610 203 l 622 186 l 583 0 l 33 0 l 72 207 l 121 713 l 681 713 l 693 694 l 654 508 l 469 517 l 351 517 l 342 454 m 274 1050 q 356 1021 326 1050 q 386 938 386 992 q 353 845 386 879 q 264 811 321 811 q 180 841 208 811 q 151 926 151 871 q 184 1017 151 985 q 274 1050 217 1050 m 543 1050 q 625 1020 596 1050 q 654 938 654 990 q 622 845 654 879 q 533 811 589 811 q 449 841 478 811 q 419 926 419 871 q 453 1017 419 985 q 543 1050 486 1050 z "},"ì":{"ha":422,"x_min":35,"x_max":446,"o":"m 292 0 l 35 0 l 72 207 l 122 713 l 383 713 l 308 233 l 292 0 m 167 1104 q 446 882 308 983 l 385 782 l 361 781 q 51 932 249 832 l 47 956 l 143 1103 l 167 1104 z "},"í":{"ha":422,"x_min":35,"x_max":472,"o":"m 292 0 l 35 0 l 72 207 l 122 713 l 383 713 l 308 233 l 292 0 m 472 956 l 468 932 q 158 781 271 832 l 135 782 l 74 882 q 353 1104 211 983 l 376 1103 l 472 956 z "},"î":{"ha":422,"x_min":24,"x_max":522,"o":"m 292 0 l 35 0 l 72 207 l 122 713 l 383 713 l 308 233 l 292 0 m 24 893 q 271 1100 101 953 l 318 1100 q 522 893 390 1018 l 444 793 l 419 793 q 274 901 317 865 q 101 793 224 865 l 76 793 l 24 893 z "},"ï":{"ha":422,"x_min":26,"x_max":515,"o":"m 292 0 l 35 0 l 72 207 l 122 713 l 383 713 l 308 233 l 292 0 m 149 1050 q 231 1020 201 1050 q 261 936 261 990 q 228 845 261 879 q 139 811 194 811 q 56 840 85 811 q 26 925 26 869 q 59 1017 26 983 q 149 1050 92 1050 m 404 1050 q 486 1020 457 1050 q 515 936 515 990 q 483 845 515 879 q 394 811 450 811 q 310 840 339 811 q 281 925 281 869 q 314 1017 281 983 q 404 1050 347 1050 z "},"ð":{"ha":821,"x_min":4,"x_max":801,"o":"m 479 717 q 716 643 631 717 q 801 435 801 569 q 688 106 801 224 q 357 -11 574 -11 q 53 0 242 -11 l 90 207 l 97 271 l 15 271 l 4 289 l 32 428 l 113 428 l 140 713 l 479 717 m 414 178 q 500 226 469 178 q 531 396 531 274 q 510 490 531 463 q 446 518 490 518 q 371 514 415 518 l 357 428 l 476 428 l 486 410 l 460 271 l 332 271 l 326 233 l 324 189 q 414 178 385 178 z "},"ñ":{"ha":856,"x_min":33,"x_max":829,"o":"m 736 0 l 461 0 l 310 335 l 297 335 l 286 263 l 263 0 l 33 0 l 72 208 l 121 713 l 396 713 l 549 376 l 564 376 l 594 703 l 829 717 l 756 238 l 736 0 m 769 988 l 657 831 l 635 822 q 515 850 597 826 q 422 869 435 869 q 381 851 399 869 q 326 789 363 833 l 304 789 l 225 865 l 225 888 l 338 1043 l 360 1051 q 479 1024 397 1047 q 572 1004 560 1004 q 614 1022 596 1004 q 668 1085 632 1040 l 690 1085 l 769 1010 l 769 988 z "},"ò":{"ha":789,"x_min":24,"x_max":769,"o":"m 442 726 q 684 647 599 726 q 769 406 769 567 q 720 188 769 283 q 576 39 671 93 q 351 -15 482 -15 q 109 65 194 -15 q 24 308 24 146 q 73 525 24 431 q 217 673 122 619 q 442 726 311 726 m 410 524 q 345 509 369 524 q 306 448 321 494 q 292 311 292 401 q 299 224 292 253 q 326 185 307 196 q 385 174 346 174 q 448 188 424 174 q 486 249 472 203 q 500 388 500 296 q 492 473 500 444 q 466 513 485 501 q 410 524 447 524 m 356 1104 q 635 882 497 983 l 574 782 l 550 781 q 240 932 438 832 l 236 956 l 332 1103 l 356 1104 z "},"ó":{"ha":789,"x_min":24,"x_max":769,"o":"m 442 726 q 684 647 599 726 q 769 406 769 567 q 720 188 769 283 q 576 39 671 93 q 351 -15 482 -15 q 109 65 194 -15 q 24 308 24 146 q 73 525 24 431 q 217 673 122 619 q 442 726 311 726 m 410 524 q 345 509 369 524 q 306 448 321 494 q 292 311 292 401 q 299 224 292 253 q 326 185 307 196 q 385 174 346 174 q 448 188 424 174 q 486 249 472 203 q 500 388 500 296 q 492 473 500 444 q 466 513 485 501 q 410 524 447 524 m 661 956 l 657 932 q 347 781 460 832 l 324 782 l 263 882 q 542 1104 400 983 l 565 1103 l 661 956 z "},"ô":{"ha":789,"x_min":24,"x_max":769,"o":"m 442 726 q 684 647 599 726 q 769 406 769 567 q 720 188 769 283 q 576 39 671 93 q 351 -15 482 -15 q 109 65 194 -15 q 24 308 24 146 q 73 525 24 431 q 217 673 122 619 q 442 726 311 726 m 410 524 q 345 509 369 524 q 306 448 321 494 q 292 311 292 401 q 299 224 292 253 q 326 185 307 196 q 385 174 346 174 q 448 188 424 174 q 486 249 472 203 q 500 388 500 296 q 492 473 500 444 q 466 513 485 501 q 410 524 447 524 m 213 893 q 460 1100 290 953 l 507 1100 q 711 893 579 1018 l 633 793 l 608 793 q 463 901 506 865 q 290 793 413 865 l 265 793 l 213 893 z "},"õ":{"ha":789,"x_min":24,"x_max":769,"o":"m 442 726 q 684 647 599 726 q 769 406 769 567 q 720 188 769 283 q 576 39 671 93 q 351 -15 482 -15 q 109 65 194 -15 q 24 308 24 146 q 73 525 24 431 q 217 673 122 619 q 442 726 311 726 m 410 524 q 345 509 369 524 q 306 448 321 494 q 292 311 292 401 q 299 224 292 253 q 326 185 307 196 q 385 174 346 174 q 448 188 424 174 q 486 249 472 203 q 500 388 500 296 q 492 473 500 444 q 466 513 485 501 q 410 524 447 524 m 733 988 l 621 831 l 599 822 q 479 850 561 826 q 386 869 399 869 q 344 851 363 869 q 290 789 326 833 l 268 789 l 189 865 l 189 888 l 301 1043 l 324 1051 q 443 1024 361 1047 q 536 1004 524 1004 q 578 1022 560 1004 q 632 1085 596 1040 l 654 1085 l 733 1010 l 733 988 z "},"ö":{"ha":789,"x_min":24,"x_max":769,"o":"m 442 726 q 684 647 599 726 q 769 406 769 567 q 720 188 769 283 q 576 39 671 93 q 351 -15 482 -15 q 109 65 194 -15 q 24 308 24 146 q 73 525 24 431 q 217 673 122 619 q 442 726 311 726 m 410 524 q 345 509 369 524 q 306 448 321 494 q 292 311 292 401 q 299 224 292 253 q 326 185 307 196 q 385 174 346 174 q 448 188 424 174 q 486 249 472 203 q 500 388 500 296 q 492 473 500 444 q 466 513 485 501 q 410 524 447 524 m 331 1050 q 413 1021 383 1050 q 443 938 443 992 q 410 845 443 879 q 321 811 378 811 q 237 841 265 811 q 208 926 208 871 q 241 1017 208 985 q 331 1050 274 1050 m 600 1050 q 682 1020 653 1050 q 711 938 711 990 q 678 845 711 879 q 590 811 646 811 q 506 841 535 811 q 476 926 476 871 q 510 1017 476 985 q 600 1050 543 1050 z "},"÷":{"ha":664,"x_min":22,"x_max":649,"o":"m 636 264 l 39 264 l 22 282 l 35 444 l 632 444 l 649 426 l 636 264 m 276 234 q 353 206 326 234 q 381 128 381 178 q 350 41 381 73 q 267 9 319 9 q 187 37 215 9 q 160 117 160 65 q 191 203 160 171 q 276 234 223 234 m 320 604 q 398 575 371 604 q 425 497 425 547 q 394 411 425 442 q 311 379 364 379 q 232 407 259 379 q 204 487 204 434 q 236 572 204 540 q 320 604 267 604 z "},"ø":{"ha":789,"x_min":-3,"x_max":785,"o":"m 699 631 q 768 406 768 549 q 719 188 768 283 q 576 39 669 93 q 351 -15 482 -15 q 238 -3 290 -15 l 119 -164 l 0 -82 l -3 -60 l 99 76 q 24 308 24 160 q 73 525 24 431 q 217 673 122 619 q 442 726 311 726 q 561 713 510 726 l 664 853 l 775 772 l 785 749 l 699 631 m 385 174 q 447 188 424 174 q 485 249 471 203 q 499 388 499 296 q 492 473 499 444 q 466 513 485 501 q 410 524 447 524 q 345 509 369 524 q 306 448 321 494 q 292 311 292 401 q 299 224 292 253 q 326 185 307 196 q 385 174 346 174 z "},"ù":{"ha":786,"x_min":47,"x_max":774,"o":"m 706 235 q 599 49 690 113 q 347 -15 508 -15 q 126 38 206 -15 q 47 189 47 90 q 51 235 47 213 l 68 350 l 106 713 l 361 713 l 296 269 q 294 247 294 261 q 313 200 294 214 q 374 186 331 186 q 444 206 422 186 q 471 269 467 225 l 514 713 l 774 713 l 721 351 l 706 235 m 358 1104 q 638 882 500 983 l 576 782 l 553 781 q 243 932 440 832 l 239 956 l 335 1103 l 358 1104 z "},"ú":{"ha":786,"x_min":47,"x_max":774,"o":"m 706 235 q 599 49 690 113 q 347 -15 508 -15 q 126 38 206 -15 q 47 189 47 90 q 51 235 47 213 l 68 350 l 106 713 l 361 713 l 296 269 q 294 247 294 261 q 313 200 294 214 q 374 186 331 186 q 444 206 422 186 q 471 269 467 225 l 514 713 l 774 713 l 721 351 l 706 235 m 664 956 l 660 932 q 350 781 463 832 l 326 782 l 265 882 q 544 1104 403 983 l 568 1103 l 664 956 z "},"û":{"ha":786,"x_min":47,"x_max":774,"o":"m 706 235 q 599 49 690 113 q 347 -15 508 -15 q 126 38 206 -15 q 47 189 47 90 q 51 235 47 213 l 68 350 l 106 713 l 361 713 l 296 269 q 294 247 294 261 q 313 200 294 214 q 374 186 331 186 q 444 206 422 186 q 471 269 467 225 l 514 713 l 774 713 l 721 351 l 706 235 m 215 893 q 463 1100 293 953 l 510 1100 q 714 893 582 1018 l 636 793 l 611 793 q 465 901 508 865 q 293 793 415 865 l 268 793 l 215 893 z "},"ü":{"ha":786,"x_min":47,"x_max":774,"o":"m 706 235 q 599 49 690 113 q 347 -15 508 -15 q 126 38 206 -15 q 47 189 47 90 q 51 235 47 213 l 68 350 l 106 713 l 361 713 l 296 269 q 294 247 294 261 q 313 200 294 214 q 374 186 331 186 q 444 206 422 186 q 471 269 467 225 l 514 713 l 774 713 l 721 351 l 706 235 m 333 1050 q 416 1021 386 1050 q 446 938 446 992 q 413 845 446 879 q 324 811 381 811 q 240 841 268 811 q 211 926 211 871 q 244 1017 211 985 q 333 1050 276 1050 m 603 1050 q 685 1020 656 1050 q 714 938 714 990 q 681 845 714 879 q 593 811 649 811 q 508 841 538 811 q 479 926 479 871 q 513 1017 479 985 q 603 1050 546 1050 z "},"ý":{"ha":728,"x_min":43,"x_max":792,"o":"m 453 182 l 442 0 l 186 0 l 221 182 l 224 211 l 43 713 l 311 713 l 322 647 l 374 461 l 388 461 l 493 638 l 531 713 l 792 713 l 458 208 l 453 182 m 635 956 l 631 932 q 321 781 433 832 l 297 782 l 236 882 q 515 1104 374 983 l 539 1103 l 635 956 z "},"þ":{"ha":740,"x_min":33,"x_max":735,"o":"m 468 618 q 661 559 588 618 q 735 396 735 500 q 687 246 735 313 q 553 142 639 179 q 360 104 467 104 l 301 104 l 293 0 l 33 0 l 71 207 l 121 713 l 385 713 l 371 618 l 468 618 m 408 278 q 453 326 442 301 q 465 383 465 350 q 453 428 465 415 q 404 446 442 442 l 343 442 l 319 283 l 408 278 z "},"ÿ":{"ha":728,"x_min":43,"x_max":792,"o":"m 453 182 l 442 0 l 186 0 l 221 182 l 224 211 l 43 713 l 311 713 l 322 647 l 374 461 l 388 461 l 493 638 l 531 713 l 792 713 l 458 208 l 453 182 m 304 1050 q 387 1021 357 1050 q 417 938 417 992 q 384 845 417 879 q 294 811 351 811 q 210 841 239 811 q 182 926 182 871 q 215 1017 182 985 q 304 1050 247 1050 m 574 1050 q 656 1020 626 1050 q 685 938 685 990 q 652 845 685 879 q 564 811 619 811 q 479 841 508 811 q 450 926 450 871 q 483 1017 450 985 q 574 1050 517 1050 z "},"Ā":{"ha":869,"x_min":-37,"x_max":815,"o":"m 535 0 l 529 149 l 529 154 l 392 157 l 276 151 l 233 0 l -37 0 l 346 899 l 681 899 l 815 0 l 535 0 m 486 651 l 469 651 l 354 356 l 433 354 l 511 356 l 486 651 m 728 1036 l 344 1036 l 328 1054 l 340 1201 l 724 1201 l 740 1185 l 728 1036 z "},"ā":{"ha":763,"x_min":-31,"x_max":701,"o":"m 443 103 l 333 106 l 243 101 l 215 0 l -31 0 l 281 713 l 586 713 l 701 0 l 446 0 l 443 103 m 428 286 l 408 489 l 393 489 l 313 286 l 369 285 l 428 286 m 647 850 l 264 850 l 247 868 l 260 1015 l 643 1015 l 660 999 l 647 850 z "},"Ă":{"ha":869,"x_min":-37,"x_max":815,"o":"m 535 0 l 529 149 l 529 154 l 392 157 l 276 151 l 233 0 l -37 0 l 346 899 l 681 899 l 815 0 l 535 0 m 486 651 l 469 651 l 354 356 l 433 354 l 511 356 l 486 651 m 781 1167 q 526 994 701 994 q 374 1039 436 994 q 288 1167 311 1083 l 354 1249 l 392 1249 q 451 1197 411 1214 q 540 1179 490 1179 q 699 1249 647 1179 l 736 1249 l 781 1167 z "},"ă":{"ha":763,"x_min":-31,"x_max":701,"o":"m 443 103 l 333 106 l 243 101 l 215 0 l -31 0 l 281 713 l 586 713 l 701 0 l 446 0 l 443 103 m 428 286 l 408 489 l 393 489 l 313 286 l 369 285 l 428 286 m 699 989 q 600 855 667 910 q 438 800 533 800 q 278 856 333 800 q 207 989 222 911 l 272 1074 l 310 1074 q 365 1009 326 1032 q 454 986 404 986 q 549 1009 506 986 q 618 1074 593 1032 l 656 1074 l 699 989 z "},"Ą":{"ha":869,"x_min":-36,"x_max":817,"o":"m 785 -210 q 625 -274 694 -274 q 528 -236 563 -274 q 494 -135 494 -199 q 535 0 494 -76 l 536 0 l 531 149 l 531 154 l 390 157 l 278 151 l 235 0 l -36 0 l 347 899 l 682 899 l 817 0 l 668 0 q 635 -97 635 -65 q 678 -137 635 -137 q 767 -110 718 -137 l 781 -110 l 785 -210 m 488 651 l 471 651 l 356 356 l 432 354 l 513 356 l 488 651 z "},"ą":{"ha":763,"x_min":-29,"x_max":703,"o":"m 667 -210 q 506 -274 576 -274 q 411 -240 446 -274 q 376 -151 376 -206 q 390 -78 376 -112 q 440 0 404 -44 l 447 0 l 444 103 l 332 106 l 244 101 l 217 0 l -29 0 l 282 713 l 588 713 l 703 0 l 574 0 q 517 -99 517 -62 q 560 -137 517 -137 q 649 -110 600 -137 l 663 -110 l 667 -210 m 429 286 l 410 489 l 394 489 l 314 286 l 368 285 l 429 286 z "},"Ć":{"ha":717,"x_min":35,"x_max":783,"o":"m 550 914 q 783 876 682 914 l 710 656 l 690 646 q 611 677 657 665 q 525 689 565 689 q 376 622 419 689 q 332 410 332 556 q 369 261 332 308 q 483 214 406 214 q 660 243 575 214 l 679 231 l 631 11 q 447 -15 544 -15 q 141 83 247 -15 q 35 365 35 182 q 169 769 35 624 q 550 914 303 914 m 713 1107 l 704 1085 q 374 989 521 1026 l 350 994 l 308 1104 q 621 1274 467 1182 l 644 1268 l 713 1107 z "},"ć":{"ha":622,"x_min":25,"x_max":660,"o":"m 465 725 q 660 703 575 725 l 592 493 l 574 482 q 433 518 515 518 q 332 478 364 518 q 300 347 300 438 q 326 233 300 269 q 418 197 351 197 q 556 218 489 197 l 575 207 l 529 -3 q 399 -14 467 -14 q 115 67 206 -14 q 25 311 25 149 q 76 529 25 436 q 225 674 126 622 q 465 725 324 725 m 647 956 l 643 932 q 333 781 446 832 l 310 782 l 249 882 q 528 1104 386 983 l 551 1103 l 647 956 z "},"Ĉ":{"ha":717,"x_min":35,"x_max":783,"o":"m 550 914 q 783 876 682 914 l 710 656 l 690 646 q 611 677 657 665 q 525 689 565 689 q 376 622 419 689 q 332 410 332 556 q 369 261 332 308 q 483 214 406 214 q 660 243 575 214 l 679 231 l 631 11 q 447 -15 544 -15 q 141 83 247 -15 q 35 365 35 182 q 169 769 35 624 q 550 914 303 914 m 271 1106 q 490 1269 408 1199 l 538 1269 q 743 1106 618 1193 l 683 1000 l 658 1000 l 508 1083 q 419 1042 481 1069 l 331 1000 l 306 1000 l 271 1106 z "},"ĉ":{"ha":622,"x_min":25,"x_max":697,"o":"m 465 725 q 660 703 575 725 l 592 493 l 574 482 q 433 518 515 518 q 332 478 364 518 q 300 347 300 438 q 326 233 300 269 q 418 197 351 197 q 556 218 489 197 l 575 207 l 529 -3 q 399 -14 467 -14 q 115 67 206 -14 q 25 311 25 149 q 76 529 25 436 q 225 674 126 622 q 465 725 324 725 m 199 893 q 446 1100 276 953 l 493 1100 q 697 893 565 1018 l 619 793 l 594 793 q 449 901 492 865 q 276 793 399 865 l 251 793 l 199 893 z "},"Ċ":{"ha":717,"x_min":35,"x_max":783,"o":"m 550 914 q 783 876 682 914 l 710 656 l 690 646 q 611 677 657 665 q 525 689 565 689 q 376 622 419 689 q 332 410 332 556 q 369 261 332 308 q 483 214 406 214 q 660 243 575 214 l 679 231 l 631 11 q 447 -15 544 -15 q 141 83 247 -15 q 35 365 35 182 q 169 769 35 624 q 550 914 303 914 m 511 1257 q 606 1223 572 1257 q 639 1126 639 1189 q 601 1021 639 1060 q 500 982 564 982 q 403 1016 436 982 q 369 1114 369 1050 q 408 1219 369 1181 q 511 1257 446 1257 z "},"ċ":{"ha":622,"x_min":25,"x_max":660,"o":"m 465 725 q 660 703 575 725 l 592 493 l 574 482 q 433 518 515 518 q 332 478 364 518 q 300 347 300 438 q 326 233 300 269 q 418 197 351 197 q 556 218 489 197 l 575 207 l 529 -3 q 399 -14 467 -14 q 115 67 206 -14 q 25 311 25 149 q 76 529 25 436 q 225 674 126 622 q 465 725 324 725 m 453 1071 q 547 1037 514 1071 q 581 940 581 1003 q 543 835 581 874 q 442 796 506 796 q 344 830 378 796 q 311 928 311 864 q 349 1033 311 994 q 453 1071 388 1071 z "},"Č":{"ha":717,"x_min":35,"x_max":783,"o":"m 550 914 q 783 876 682 914 l 710 656 l 690 646 q 611 677 657 665 q 525 689 565 689 q 376 622 419 689 q 332 410 332 556 q 369 261 332 308 q 483 214 406 214 q 660 243 575 214 l 679 231 l 631 11 q 447 -15 544 -15 q 141 83 247 -15 q 35 365 35 182 q 169 769 35 624 q 550 914 303 914 m 742 1154 q 522 989 618 1072 l 475 989 q 269 1154 394 1065 l 329 1258 l 354 1258 l 504 1175 q 606 1222 572 1208 l 682 1258 l 707 1258 l 742 1154 z "},"č":{"ha":622,"x_min":25,"x_max":697,"o":"m 465 725 q 660 703 575 725 l 592 493 l 574 482 q 433 518 515 518 q 332 478 364 518 q 300 347 300 438 q 326 233 300 269 q 418 197 351 197 q 556 218 489 197 l 575 207 l 529 -3 q 399 -14 467 -14 q 115 67 206 -14 q 25 311 25 149 q 76 529 25 436 q 225 674 126 622 q 465 725 324 725 m 697 996 q 475 810 650 960 l 450 788 l 403 788 q 199 996 338 863 l 276 1094 l 301 1094 q 444 986 389 1033 q 594 1079 489 1017 l 619 1094 l 644 1094 l 697 996 z "},"Ď":{"ha":928,"x_min":44,"x_max":924,"o":"m 547 904 q 824 813 725 904 q 924 551 924 721 q 788 137 924 286 q 396 -12 651 -12 q 44 0 238 -12 l 90 264 l 154 899 l 547 904 m 460 193 q 631 511 631 193 q 602 648 631 607 q 510 689 574 689 q 404 683 458 689 l 346 292 l 339 204 q 460 193 422 193 m 753 1154 q 533 989 629 1072 l 486 989 q 281 1154 406 1065 l 340 1258 l 365 1258 l 515 1175 q 617 1222 583 1208 l 693 1258 l 718 1258 l 753 1154 z "},"ď":{"ha":800,"x_min":33,"x_max":782,"o":"m 460 717 q 697 643 611 717 q 782 435 782 569 q 668 106 782 224 q 338 -11 554 -11 q 33 0 222 -11 l 71 207 l 121 713 l 460 717 m 394 178 q 481 226 450 178 q 511 396 511 274 q 491 490 511 463 q 426 518 471 518 q 351 514 396 518 l 307 233 l 304 189 q 394 178 365 178 m 708 996 q 486 810 661 960 l 461 788 l 414 788 q 210 996 349 863 l 288 1094 l 313 1094 q 456 986 400 1033 q 606 1079 500 1017 l 631 1094 l 656 1094 l 708 996 z "},"Đ":{"ha":928,"x_min":44,"x_max":924,"o":"m 547 904 q 824 813 725 904 q 924 551 924 721 q 788 137 924 286 q 396 -12 651 -12 q 44 0 238 -12 l 90 264 l 154 899 l 547 904 m 460 193 q 631 511 631 193 q 602 648 631 607 q 510 689 574 689 q 404 683 458 689 l 346 292 l 339 204 q 460 193 422 193 m 710 1036 l 326 1036 l 310 1054 l 322 1201 l 706 1201 l 722 1185 l 710 1036 z "},"đ":{"ha":800,"x_min":33,"x_max":782,"o":"m 460 717 q 697 643 611 717 q 782 435 782 569 q 668 106 782 224 q 338 -11 554 -11 q 33 0 222 -11 l 71 207 l 121 713 l 460 717 m 394 178 q 481 226 450 178 q 511 396 511 274 q 491 490 511 463 q 426 518 471 518 q 351 514 396 518 l 307 233 l 304 189 q 394 178 365 178 m 651 850 l 268 850 l 251 868 l 264 1015 l 647 1015 l 664 999 l 651 850 z "},"Ē":{"ha":750,"x_min":43,"x_max":810,"o":"m 386 558 l 522 558 l 668 563 l 681 543 l 639 340 l 479 344 l 354 344 l 346 292 l 339 213 l 472 213 l 704 221 l 717 201 l 675 0 l 43 0 l 89 264 l 154 899 l 797 899 l 810 879 l 767 678 l 547 686 l 404 686 l 386 558 m 689 1036 l 306 1036 l 289 1054 l 301 1201 l 685 1201 l 701 1185 l 689 1036 z "},"ē":{"ha":667,"x_min":33,"x_max":693,"o":"m 342 454 l 453 454 l 575 458 l 586 440 l 549 253 l 414 257 l 313 257 l 308 233 l 306 196 l 415 196 l 610 203 l 622 186 l 583 0 l 33 0 l 72 207 l 121 713 l 681 713 l 693 694 l 654 508 l 469 517 l 351 517 l 342 454 m 597 850 l 214 850 l 197 868 l 210 1015 l 593 1015 l 610 999 l 597 850 z "},"Ĕ":{"ha":750,"x_min":43,"x_max":810,"o":"m 386 558 l 522 558 l 668 563 l 681 543 l 639 340 l 479 344 l 354 344 l 346 292 l 339 213 l 472 213 l 704 221 l 717 201 l 675 0 l 43 0 l 89 264 l 154 899 l 797 899 l 810 879 l 767 678 l 547 686 l 404 686 l 386 558 m 742 1167 q 488 994 663 994 q 335 1039 397 994 q 249 1167 272 1083 l 315 1249 l 353 1249 q 412 1197 372 1214 q 501 1179 451 1179 q 660 1249 608 1179 l 697 1249 l 742 1167 z "},"ĕ":{"ha":667,"x_min":33,"x_max":693,"o":"m 342 454 l 453 454 l 575 458 l 586 440 l 549 253 l 414 257 l 313 257 l 308 233 l 306 196 l 415 196 l 610 203 l 622 186 l 583 0 l 33 0 l 72 207 l 121 713 l 681 713 l 693 694 l 654 508 l 469 517 l 351 517 l 342 454 m 649 989 q 550 855 617 910 q 388 800 483 800 q 228 856 283 800 q 157 989 172 911 l 222 1074 l 260 1074 q 315 1009 276 1032 q 404 986 354 986 q 499 1009 456 986 q 568 1074 543 1032 l 606 1074 l 649 989 z "},"Ė":{"ha":750,"x_min":43,"x_max":810,"o":"m 386 558 l 522 558 l 668 563 l 681 543 l 639 340 l 479 344 l 354 344 l 346 292 l 339 213 l 472 213 l 704 221 l 717 201 l 675 0 l 43 0 l 89 264 l 154 899 l 797 899 l 810 879 l 767 678 l 547 686 l 404 686 l 386 558 m 501 1257 q 596 1223 563 1257 q 629 1126 629 1189 q 592 1021 629 1060 q 490 982 554 982 q 393 1016 426 982 q 360 1114 360 1050 q 398 1219 360 1181 q 501 1257 436 1257 z "},"ė":{"ha":667,"x_min":33,"x_max":693,"o":"m 342 454 l 453 454 l 575 458 l 586 440 l 549 253 l 414 257 l 313 257 l 308 233 l 306 196 l 415 196 l 610 203 l 622 186 l 583 0 l 33 0 l 72 207 l 121 713 l 681 713 l 693 694 l 654 508 l 469 517 l 351 517 l 342 454 m 410 1071 q 504 1037 471 1071 q 538 940 538 1003 q 500 835 538 874 q 399 796 463 796 q 301 830 335 796 q 268 928 268 864 q 306 1033 268 994 q 410 1071 344 1071 z "},"Ę":{"ha":750,"x_min":43,"x_max":810,"o":"m 386 558 l 524 558 l 669 563 l 682 543 l 640 340 l 481 344 l 354 344 l 346 292 l 339 213 l 474 213 l 706 221 l 718 201 l 676 0 l 576 0 l 556 -31 q 533 -92 533 -64 q 583 -137 533 -137 q 668 -110 624 -137 l 682 -110 l 699 -210 q 544 -274 615 -274 q 439 -235 478 -274 q 400 -139 400 -197 q 446 -12 400 -74 l 456 0 l 43 0 l 89 264 l 154 899 l 799 899 l 810 879 l 768 678 l 549 686 l 404 686 l 386 558 z "},"ę":{"ha":667,"x_min":33,"x_max":694,"o":"m 342 454 l 454 454 l 576 458 l 588 440 l 550 253 l 414 257 l 313 257 l 308 233 l 306 196 l 417 196 l 611 203 l 624 186 l 585 0 l 464 0 l 443 -31 q 421 -92 421 -64 q 471 -137 421 -137 q 556 -110 511 -137 l 569 -110 l 586 -210 q 432 -274 503 -274 q 326 -235 365 -274 q 288 -139 288 -197 q 333 -12 288 -74 l 343 0 l 33 0 l 72 207 l 121 713 l 682 713 l 694 694 l 656 508 l 469 517 l 351 517 l 342 454 z "},"Ě":{"ha":750,"x_min":43,"x_max":810,"o":"m 386 558 l 522 558 l 668 563 l 681 543 l 639 340 l 479 344 l 354 344 l 346 292 l 339 213 l 472 213 l 704 221 l 717 201 l 675 0 l 43 0 l 89 264 l 154 899 l 797 899 l 810 879 l 767 678 l 547 686 l 404 686 l 386 558 m 732 1154 q 513 989 608 1072 l 465 989 q 260 1154 385 1065 l 319 1258 l 344 1258 l 494 1175 q 596 1222 563 1208 l 672 1258 l 697 1258 l 732 1154 z "},"ě":{"ha":667,"x_min":33,"x_max":693,"o":"m 342 454 l 453 454 l 575 458 l 586 440 l 549 253 l 414 257 l 313 257 l 308 233 l 306 196 l 415 196 l 610 203 l 622 186 l 583 0 l 33 0 l 72 207 l 121 713 l 681 713 l 693 694 l 654 508 l 469 517 l 351 517 l 342 454 m 654 996 q 432 810 607 960 l 407 788 l 360 788 q 156 996 294 863 l 233 1094 l 258 1094 q 401 986 346 1033 q 551 1079 446 1017 l 576 1094 l 601 1094 l 654 996 z "},"Ĝ":{"ha":832,"x_min":33,"x_max":860,"o":"m 592 914 q 860 872 754 914 l 771 628 l 749 628 q 635 678 683 663 q 526 693 586 693 q 415 667 458 693 q 348 569 372 642 q 324 361 324 497 q 358 228 324 265 q 476 192 393 192 q 526 197 496 192 l 532 243 l 546 394 l 801 413 l 782 290 l 751 44 q 439 -17 586 -17 q 138 82 243 -17 q 33 358 33 181 q 177 770 33 626 q 592 914 321 914 m 315 1106 q 535 1269 453 1199 l 582 1269 q 788 1106 663 1193 l 728 1000 l 703 1000 l 553 1083 q 464 1042 525 1069 l 375 1000 l 350 1000 l 315 1106 z "},"ĝ":{"ha":715,"x_min":24,"x_max":726,"o":"m 499 725 q 726 697 619 725 l 643 472 l 624 472 q 526 510 567 499 q 435 522 486 522 q 356 507 386 522 q 309 444 326 492 q 292 306 292 397 q 300 228 292 254 q 332 189 308 201 q 406 176 356 176 q 426 177 422 176 q 431 178 429 178 l 435 196 l 446 322 l 682 338 l 667 240 l 642 36 q 375 -15 500 -15 q 114 70 204 -15 q 24 321 24 156 q 145 619 24 513 q 499 725 267 725 m 190 893 q 438 1100 268 953 l 485 1100 q 689 893 557 1018 l 611 793 l 586 793 q 440 901 483 865 q 268 793 390 865 l 243 793 l 190 893 z "},"Ğ":{"ha":832,"x_min":33,"x_max":860,"o":"m 592 914 q 860 872 754 914 l 771 628 l 749 628 q 635 678 683 663 q 526 693 586 693 q 415 667 458 693 q 348 569 372 642 q 324 361 324 497 q 358 228 324 265 q 476 192 393 192 q 526 197 496 192 l 532 243 l 546 394 l 801 413 l 782 290 l 751 44 q 439 -17 586 -17 q 138 82 243 -17 q 33 358 33 181 q 177 770 33 626 q 592 914 321 914 m 796 1167 q 542 994 717 994 q 389 1039 451 994 q 303 1167 326 1083 l 369 1249 l 407 1249 q 466 1197 426 1214 q 556 1179 506 1179 q 714 1249 663 1179 l 751 1249 l 796 1167 z "},"ğ":{"ha":715,"x_min":24,"x_max":726,"o":"m 499 725 q 726 697 619 725 l 643 472 l 624 472 q 526 510 567 499 q 435 522 486 522 q 356 507 386 522 q 309 444 326 492 q 292 306 292 397 q 300 228 292 254 q 332 189 308 201 q 406 176 356 176 q 426 177 422 176 q 431 178 429 178 l 435 196 l 446 322 l 682 338 l 667 240 l 642 36 q 375 -15 500 -15 q 114 70 204 -15 q 24 321 24 156 q 145 619 24 513 q 499 725 267 725 m 683 989 q 585 855 651 910 q 422 800 518 800 q 263 856 318 800 q 192 989 207 911 l 257 1074 l 294 1074 q 350 1009 311 1032 q 439 986 389 986 q 534 1009 490 986 q 603 1074 578 1032 l 640 1074 l 683 989 z "},"Ġ":{"ha":832,"x_min":33,"x_max":860,"o":"m 592 914 q 860 872 754 914 l 771 628 l 749 628 q 635 678 683 663 q 526 693 586 693 q 415 667 458 693 q 348 569 372 642 q 324 361 324 497 q 358 228 324 265 q 476 192 393 192 q 526 197 496 192 l 532 243 l 546 394 l 801 413 l 782 290 l 751 44 q 439 -17 586 -17 q 138 82 243 -17 q 33 358 33 181 q 177 770 33 626 q 592 914 321 914 m 556 1257 q 650 1223 617 1257 q 683 1126 683 1189 q 646 1021 683 1060 q 544 982 608 982 q 447 1016 481 982 q 414 1114 414 1050 q 452 1219 414 1181 q 556 1257 490 1257 z "},"ġ":{"ha":715,"x_min":24,"x_max":726,"o":"m 499 725 q 726 697 619 725 l 643 472 l 624 472 q 526 510 567 499 q 435 522 486 522 q 356 507 386 522 q 309 444 326 492 q 292 306 292 397 q 300 228 292 254 q 332 189 308 201 q 406 176 356 176 q 426 177 422 176 q 431 178 429 178 l 435 196 l 446 322 l 682 338 l 667 240 l 642 36 q 375 -15 500 -15 q 114 70 204 -15 q 24 321 24 156 q 145 619 24 513 q 499 725 267 725 m 444 1071 q 539 1037 506 1071 q 572 940 572 1003 q 535 835 572 874 q 433 796 497 796 q 336 830 369 796 q 303 928 303 864 q 341 1033 303 994 q 444 1071 379 1071 z "},"Ģ":{"ha":832,"x_min":33,"x_max":860,"o":"m 592 914 q 860 872 754 914 l 771 628 l 749 628 q 635 678 683 663 q 526 693 586 693 q 415 667 458 693 q 348 569 372 642 q 324 361 324 497 q 358 228 324 265 q 476 192 393 192 q 526 197 496 192 l 532 243 l 546 394 l 801 413 l 782 290 l 751 44 q 439 -17 586 -17 q 138 82 243 -17 q 33 358 33 181 q 177 770 33 626 q 592 914 321 914 m 490 -46 q 547 -172 547 -101 q 365 -432 547 -308 l 293 -369 l 290 -353 q 357 -224 357 -296 q 318 -133 357 -172 l 319 -115 q 490 -46 401 -68 z "},"ģ":{"ha":715,"x_min":24,"x_max":726,"o":"m 499 725 q 726 697 619 725 l 643 472 l 624 472 q 526 510 567 499 q 435 522 486 522 q 356 507 386 522 q 309 444 326 492 q 292 306 292 397 q 300 228 292 254 q 332 189 308 201 q 406 176 356 176 q 426 177 422 176 q 431 178 429 178 l 435 196 l 446 322 l 682 338 l 667 240 l 642 36 q 375 -15 500 -15 q 114 70 204 -15 q 24 321 24 156 q 145 619 24 513 q 499 725 267 725 m 426 -46 q 483 -172 483 -101 q 301 -432 483 -308 l 229 -369 l 226 -353 q 293 -224 293 -296 q 254 -133 293 -172 l 256 -115 q 426 -46 338 -68 z "},"Ĥ":{"ha":988,"x_min":43,"x_max":972,"o":"m 882 292 l 857 0 l 579 0 l 626 264 l 633 333 l 483 336 l 351 332 l 346 292 l 321 0 l 43 0 l 90 264 l 154 899 l 436 899 l 386 558 l 526 556 l 656 558 l 690 899 l 972 899 l 882 292 m 357 1106 q 576 1269 494 1199 l 624 1269 q 829 1106 704 1193 l 769 1000 l 744 1000 l 594 1083 q 506 1042 567 1069 l 417 1000 l 392 1000 l 357 1106 z "},"ĥ":{"ha":854,"x_min":35,"x_max":828,"o":"m 754 233 l 736 0 l 479 0 l 517 207 l 521 247 l 410 250 l 311 247 l 308 233 l 292 0 l 35 0 l 72 207 l 122 713 l 383 713 l 343 456 l 449 453 l 542 456 l 567 713 l 828 713 l 754 233 m 249 893 q 496 1100 326 953 l 543 1100 q 747 893 615 1018 l 669 793 l 644 793 q 499 901 542 865 q 326 793 449 865 l 301 793 l 249 893 z "},"Ħ":{"ha":1035,"x_min":64,"x_max":1068,"o":"m 960 656 l 906 292 l 881 0 l 603 0 l 650 264 l 657 333 l 507 336 l 375 332 l 369 292 l 344 0 l 67 0 l 114 264 l 153 656 l 75 656 l 64 669 l 72 796 l 168 796 l 178 899 l 460 899 l 444 796 l 704 796 l 714 899 l 996 899 l 981 796 l 1057 796 l 1068 782 l 1061 656 l 960 656 m 424 656 l 410 558 l 550 556 l 679 558 l 689 656 l 424 656 z "},"ħ":{"ha":854,"x_min":18,"x_max":893,"o":"m 796 508 l 754 233 l 736 0 l 479 0 l 517 207 l 521 247 l 408 250 l 311 247 l 308 233 l 292 0 l 35 0 l 72 207 l 101 508 l 26 508 l 18 521 l 40 638 l 115 638 l 122 713 l 383 713 l 372 638 l 560 638 l 567 713 l 828 713 l 817 638 l 885 638 l 893 625 l 871 508 l 796 508 m 351 508 l 343 456 l 447 453 l 542 456 l 546 508 l 351 508 z "},"Ĩ":{"ha":454,"x_min":43,"x_max":558,"o":"m 321 0 l 43 0 l 90 264 l 154 899 l 436 899 l 346 292 l 321 0 m 558 1169 l 458 1015 l 438 1007 q 338 1033 407 1013 q 267 1051 281 1051 q 226 1033 243 1051 q 183 974 210 1014 l 161 974 l 83 1050 l 83 1072 l 183 1225 l 204 1233 q 304 1207 235 1228 q 375 1189 361 1189 q 415 1208 399 1189 q 458 1267 432 1226 l 481 1267 l 558 1192 l 558 1169 z "},"ĩ":{"ha":422,"x_min":35,"x_max":510,"o":"m 292 0 l 35 0 l 72 207 l 122 713 l 383 713 l 308 233 l 292 0 m 510 983 l 410 829 l 389 821 q 289 847 358 826 q 218 865 232 865 q 178 847 194 865 q 135 788 161 828 l 113 788 l 35 864 l 35 886 l 135 1039 l 156 1047 q 256 1021 186 1042 q 326 1003 313 1003 q 367 1022 350 1003 q 410 1081 383 1040 l 432 1081 l 510 1006 l 510 983 z "},"Ī":{"ha":454,"x_min":43,"x_max":499,"o":"m 321 0 l 43 0 l 90 264 l 154 899 l 436 899 l 346 292 l 321 0 m 486 1036 l 158 1036 l 142 1054 l 154 1201 l 482 1201 l 499 1185 l 486 1036 z "},"ī":{"ha":422,"x_min":35,"x_max":450,"o":"m 292 0 l 35 0 l 72 207 l 122 713 l 383 713 l 308 233 l 292 0 m 438 850 l 110 850 l 93 868 l 106 1015 l 433 1015 l 450 999 l 438 850 z "},"Ĭ":{"ha":454,"x_min":43,"x_max":567,"o":"m 321 0 l 43 0 l 90 264 l 154 899 l 436 899 l 346 292 l 321 0 m 567 1167 q 313 994 488 994 q 160 1039 222 994 q 74 1167 97 1083 l 140 1249 l 178 1249 q 237 1197 197 1214 q 326 1179 276 1179 q 485 1249 433 1179 l 522 1249 l 567 1167 z "},"ĭ":{"ha":422,"x_min":25,"x_max":517,"o":"m 292 0 l 35 0 l 72 207 l 122 713 l 383 713 l 308 233 l 292 0 m 517 989 q 418 855 485 910 q 256 800 351 800 q 96 856 151 800 q 25 989 40 911 l 90 1074 l 128 1074 q 183 1009 144 1032 q 272 986 222 986 q 367 1009 324 986 q 436 1074 411 1032 l 474 1074 l 517 989 z "},"Į":{"ha":454,"x_min":0,"x_max":436,"o":"m 346 292 l 321 0 l 169 0 q 133 -94 133 -56 q 182 -137 133 -137 q 271 -106 229 -137 l 285 -106 l 301 -207 q 144 -274 221 -274 q 39 -235 78 -274 q 0 -136 0 -196 q 44 0 0 -71 l 43 0 l 90 264 l 154 899 l 436 899 l 346 292 z "},"į":{"ha":422,"x_min":-8,"x_max":383,"o":"m 161 0 q 125 -94 125 -56 q 174 -137 125 -137 q 263 -106 221 -137 l 276 -106 l 293 -207 q 136 -274 213 -274 q 31 -235 69 -274 q -8 -136 -8 -196 q 36 0 -8 -71 l 35 0 l 72 207 l 122 713 l 383 713 l 308 233 l 292 0 l 161 0 z "},"İ":{"ha":454,"x_min":43,"x_max":454,"o":"m 321 0 l 43 0 l 90 264 l 154 899 l 436 899 l 346 292 l 321 0 m 326 1257 q 421 1223 388 1257 q 454 1126 454 1189 q 417 1021 454 1060 q 315 982 379 982 q 218 1016 251 982 q 185 1114 185 1050 q 223 1219 185 1181 q 326 1257 261 1257 z "},"ı":{"ha":422,"x_min":35,"x_max":383,"o":"m 292 0 l 35 0 l 72 207 l 122 713 l 383 713 l 308 233 l 292 0 z "},"Ĳ":{"ha":958,"x_min":43,"x_max":938,"o":"m 321 0 l 43 0 l 90 264 l 154 899 l 436 899 l 346 292 l 321 0 m 846 296 l 835 172 q 786 25 822 85 q 678 -78 750 -35 q 486 -156 607 -121 l 431 -12 l 433 8 q 540 81 507 43 q 579 181 572 119 l 590 268 l 636 704 l 521 700 l 508 718 l 542 899 l 938 899 l 846 296 z "},"ĳ":{"ha":901,"x_min":35,"x_max":849,"o":"m 292 0 l 35 0 l 72 207 l 122 713 l 383 713 l 308 233 l 292 0 m 778 233 l 769 138 q 728 18 760 67 q 634 -67 697 -31 q 463 -137 571 -104 l 408 -6 l 410 14 q 499 65 472 38 q 531 139 525 93 l 540 208 l 572 525 l 463 522 l 451 538 l 488 713 l 849 713 l 778 233 z "},"Ĵ":{"ha":503,"x_min":-24,"x_max":557,"o":"m 392 296 l 381 172 q 332 25 368 85 q 224 -78 296 -35 q 32 -156 153 -121 l -24 -12 l -21 8 q 85 81 53 43 q 125 181 118 119 l 136 268 l 182 704 l 67 700 l 54 718 l 88 899 l 483 899 l 392 296 m 85 1106 q 304 1269 222 1199 l 351 1269 q 557 1106 432 1193 l 497 1000 l 472 1000 l 322 1083 q 233 1042 294 1069 l 144 1000 l 119 1000 l 85 1106 z "},"ĵ":{"ha":479,"x_min":-14,"x_max":525,"o":"m 356 233 l 347 138 q 306 18 338 67 q 212 -67 275 -31 q 40 -137 149 -104 l -14 -6 l -12 14 q 76 65 50 38 q 108 139 103 93 l 118 208 l 150 525 l 40 522 l 29 538 l 65 713 l 426 713 l 356 233 m 26 893 q 274 1100 104 953 l 321 1100 q 525 893 393 1018 l 447 793 l 422 793 q 276 901 319 865 q 104 793 226 865 l 79 793 l 26 893 z "},"Ķ":{"ha":874,"x_min":43,"x_max":940,"o":"m 622 458 q 864 58 718 281 l 857 28 q 575 -17 706 -6 l 546 0 q 364 414 435 243 l 346 292 l 321 0 l 43 0 l 90 264 l 154 899 l 436 899 l 381 522 l 588 801 l 647 899 l 940 899 l 622 458 m 474 -46 q 531 -172 531 -101 q 349 -432 531 -308 l 276 -369 l 274 -353 q 340 -224 340 -296 q 301 -133 340 -172 l 303 -115 q 474 -46 385 -68 z "},"ķ":{"ha":771,"x_min":33,"x_max":807,"o":"m 557 369 q 750 54 625 243 l 742 26 q 482 -14 606 -4 l 454 1 q 321 314 374 185 l 308 233 l 290 0 l 33 0 l 71 207 l 121 713 l 382 713 l 338 425 l 489 631 l 538 713 l 807 713 l 557 369 m 408 -46 q 465 -172 465 -101 q 283 -432 465 -308 l 211 -369 l 208 -353 q 275 -224 275 -296 q 236 -133 275 -172 l 238 -115 q 408 -46 319 -68 z "},"ĸ":{"ha":771,"x_min":33,"x_max":807,"o":"m 557 369 q 750 54 625 243 l 742 26 q 482 -14 606 -4 l 454 1 q 321 314 374 185 l 308 233 l 290 0 l 33 0 l 71 207 l 121 713 l 382 713 l 338 425 l 489 631 l 538 713 l 807 713 l 557 369 z "},"Ĺ":{"ha":628,"x_min":38,"x_max":613,"o":"m 572 0 l 38 0 l 83 264 l 147 899 l 429 899 l 340 292 l 335 226 l 600 226 l 613 207 l 572 0 m 515 1107 l 507 1085 q 176 989 324 1026 l 153 994 l 111 1104 q 424 1274 269 1182 l 447 1268 l 515 1107 z "},"ĺ":{"ha":560,"x_min":26,"x_max":528,"o":"m 489 0 l 26 0 l 65 207 l 114 713 l 375 713 l 301 233 l 300 208 l 517 208 l 528 192 l 489 0 m 468 956 l 464 932 q 154 781 267 832 l 131 782 l 69 882 q 349 1104 207 983 l 372 1103 l 468 956 z "},"Ļ":{"ha":628,"x_min":38,"x_max":613,"o":"m 572 0 l 38 0 l 83 264 l 147 899 l 429 899 l 340 292 l 335 226 l 600 226 l 613 207 l 572 0 m 332 -46 q 389 -172 389 -101 q 207 -432 389 -308 l 135 -369 l 132 -353 q 199 -224 199 -296 q 160 -133 199 -172 l 161 -115 q 332 -46 243 -68 z "},"ļ":{"ha":560,"x_min":26,"x_max":528,"o":"m 489 0 l 26 0 l 65 207 l 114 713 l 375 713 l 301 233 l 300 208 l 517 208 l 528 192 l 489 0 m 299 -46 q 356 -172 356 -101 q 174 -432 356 -308 l 101 -369 l 99 -353 q 165 -224 165 -296 q 126 -133 165 -172 l 128 -115 q 299 -46 210 -68 z "},"Ľ":{"ha":672,"x_min":38,"x_max":744,"o":"m 614 207 l 572 0 l 38 0 l 83 264 l 147 899 l 429 899 l 340 292 l 335 226 l 601 226 l 614 207 m 644 497 l 529 481 l 514 493 l 540 824 l 733 835 l 744 819 l 644 497 z "},"ľ":{"ha":621,"x_min":26,"x_max":686,"o":"m 529 192 l 489 0 l 26 0 l 65 207 l 114 713 l 375 713 l 301 233 l 300 208 l 517 208 l 529 192 m 586 358 l 469 340 l 456 354 l 482 685 l 675 696 l 686 681 l 586 358 z "},"Ŀ":{"ha":700,"x_min":51,"x_max":725,"o":"m 626 207 l 585 0 l 51 0 l 97 264 l 161 899 l 443 899 l 354 292 l 349 226 l 614 226 l 626 207 m 597 694 q 692 660 658 694 q 725 564 725 625 q 688 458 725 497 q 586 419 650 419 q 489 453 522 419 q 456 551 456 488 q 494 656 456 617 q 597 694 532 694 z "},"ŀ":{"ha":639,"x_min":26,"x_max":660,"o":"m 529 192 l 489 0 l 26 0 l 65 207 l 114 713 l 375 713 l 301 233 l 300 208 l 517 208 l 529 192 m 532 604 q 626 569 593 604 q 660 474 660 535 q 622 368 660 407 q 521 329 585 329 q 424 363 457 329 q 390 461 390 397 q 428 565 390 526 q 532 604 467 604 z "},"Ł":{"ha":638,"x_min":-24,"x_max":622,"o":"m 582 0 l 47 0 l 93 264 l 94 279 l 26 247 l 6 260 l -24 418 l 115 485 l 157 899 l 439 899 l 397 618 l 499 667 l 519 654 l 550 497 l 367 410 l 350 292 l 344 226 l 610 226 l 622 207 l 582 0 z "},"ł":{"ha":574,"x_min":-1,"x_max":542,"o":"m 501 0 l 40 0 l 79 207 l 81 226 l 21 204 l 3 217 l -1 356 l 97 393 l 128 713 l 389 713 l 354 490 l 478 536 l 494 524 l 500 386 l 329 321 l 315 233 l 314 208 l 529 208 l 542 192 l 501 0 z "},"Ń":{"ha":986,"x_min":44,"x_max":974,"o":"m 858 0 l 557 0 l 363 483 l 346 483 l 325 325 l 296 0 l 44 0 l 90 264 l 154 899 l 456 899 l 651 415 l 668 415 l 718 889 l 974 904 l 883 293 l 858 0 m 799 1107 l 790 1085 q 460 989 607 1026 l 436 994 l 394 1104 q 707 1274 553 1182 l 731 1268 l 799 1107 z "},"ń":{"ha":856,"x_min":33,"x_max":829,"o":"m 736 0 l 461 0 l 310 335 l 297 335 l 286 263 l 263 0 l 33 0 l 72 208 l 121 713 l 396 713 l 549 376 l 564 376 l 594 703 l 829 717 l 756 238 l 736 0 m 697 956 l 693 932 q 383 781 496 832 l 360 782 l 299 882 q 578 1104 436 983 l 601 1103 l 697 956 z "},"Ņ":{"ha":986,"x_min":44,"x_max":974,"o":"m 858 0 l 557 0 l 363 483 l 346 483 l 325 325 l 296 0 l 44 0 l 90 264 l 154 899 l 456 899 l 651 415 l 668 415 l 718 889 l 974 904 l 883 293 l 858 0 m 492 -46 q 549 -172 549 -101 q 367 -432 549 -308 l 294 -369 l 292 -353 q 358 -224 358 -296 q 319 -133 358 -172 l 321 -115 q 492 -46 403 -68 z "},"ņ":{"ha":856,"x_min":33,"x_max":829,"o":"m 736 0 l 461 0 l 310 335 l 297 335 l 286 263 l 263 0 l 33 0 l 72 208 l 121 713 l 396 713 l 549 376 l 564 376 l 594 703 l 829 717 l 756 238 l 736 0 m 422 -46 q 479 -172 479 -101 q 297 -432 479 -308 l 225 -369 l 222 -353 q 289 -224 289 -296 q 250 -133 289 -172 l 251 -115 q 422 -46 333 -68 z "},"Ň":{"ha":986,"x_min":44,"x_max":974,"o":"m 858 0 l 557 0 l 363 483 l 346 483 l 325 325 l 296 0 l 44 0 l 90 264 l 154 899 l 456 899 l 651 415 l 668 415 l 718 889 l 974 904 l 883 293 l 858 0 m 828 1154 q 608 989 704 1072 l 561 989 q 356 1154 481 1065 l 415 1258 l 440 1258 l 590 1175 q 692 1222 658 1208 l 768 1258 l 793 1258 l 828 1154 z "},"ň":{"ha":856,"x_min":33,"x_max":829,"o":"m 736 0 l 461 0 l 310 335 l 297 335 l 286 263 l 263 0 l 33 0 l 72 208 l 121 713 l 396 713 l 549 376 l 564 376 l 594 703 l 829 717 l 756 238 l 736 0 m 747 996 q 525 810 700 960 l 500 788 l 453 788 q 249 996 388 863 l 326 1094 l 351 1094 q 494 986 439 1033 q 644 1079 539 1017 l 669 1094 l 694 1094 l 747 996 z "},"Ŋ":{"ha":993,"x_min":44,"x_max":974,"o":"m 865 75 q 818 -72 854 -12 q 709 -175 782 -132 q 514 -253 636 -218 l 460 -110 l 461 -87 q 582 0 549 -49 l 363 483 l 346 483 l 325 325 l 296 0 l 44 0 l 92 264 l 156 899 l 457 899 l 656 443 l 672 443 l 718 889 l 974 904 l 883 293 l 865 75 z "},"ŋ":{"ha":854,"x_min":36,"x_max":826,"o":"m 739 61 q 702 -53 731 -7 q 617 -135 674 -100 q 464 -203 560 -171 l 396 -97 l 397 -78 q 482 -12 464 -46 l 314 329 l 299 329 l 292 264 l 268 0 l 36 0 l 75 208 l 124 713 l 403 713 l 546 414 l 561 414 l 589 703 l 826 717 l 753 239 l 739 61 z "},"Ō":{"ha":914,"x_min":33,"x_max":908,"o":"m 528 915 q 809 817 710 915 q 908 519 908 719 q 851 242 908 364 q 682 52 793 121 q 415 -17 571 -17 q 133 83 233 -17 q 33 383 33 182 q 91 659 33 539 q 260 847 149 779 q 528 915 372 915 m 496 694 q 403 669 440 694 q 345 576 367 644 q 324 379 324 507 q 333 264 324 304 q 369 206 343 224 q 444 188 394 188 q 536 213 499 188 q 595 306 574 238 q 617 503 617 375 q 607 617 617 576 q 572 676 597 658 q 496 694 546 694 m 747 1036 l 364 1036 l 347 1054 l 360 1201 l 743 1201 l 760 1185 l 747 1036 z "},"ō":{"ha":789,"x_min":24,"x_max":769,"o":"m 442 726 q 684 647 599 726 q 769 406 769 567 q 720 188 769 283 q 576 39 671 93 q 351 -15 482 -15 q 109 65 194 -15 q 24 308 24 146 q 73 525 24 431 q 217 673 122 619 q 442 726 311 726 m 410 524 q 345 509 369 524 q 306 448 321 494 q 292 311 292 401 q 299 224 292 253 q 326 185 307 196 q 385 174 346 174 q 448 188 424 174 q 486 249 472 203 q 500 388 500 296 q 492 473 500 444 q 466 513 485 501 q 410 524 447 524 m 654 850 l 271 850 l 254 868 l 267 1015 l 650 1015 l 667 999 l 654 850 z "},"Ŏ":{"ha":914,"x_min":33,"x_max":908,"o":"m 528 915 q 809 817 710 915 q 908 519 908 719 q 851 242 908 364 q 682 52 793 121 q 415 -17 571 -17 q 133 83 233 -17 q 33 383 33 182 q 91 659 33 539 q 260 847 149 779 q 528 915 372 915 m 496 694 q 403 669 440 694 q 345 576 367 644 q 324 379 324 507 q 333 264 324 304 q 369 206 343 224 q 444 188 394 188 q 536 213 499 188 q 595 306 574 238 q 617 503 617 375 q 607 617 617 576 q 572 676 597 658 q 496 694 546 694 m 800 1167 q 546 994 721 994 q 393 1039 456 994 q 307 1167 331 1083 l 374 1249 l 411 1249 q 470 1197 431 1214 q 560 1179 510 1179 q 718 1249 667 1179 l 756 1249 l 800 1167 z "},"ŏ":{"ha":789,"x_min":24,"x_max":769,"o":"m 442 726 q 684 647 599 726 q 769 406 769 567 q 720 188 769 283 q 576 39 671 93 q 351 -15 482 -15 q 109 65 194 -15 q 24 308 24 146 q 73 525 24 431 q 217 673 122 619 q 442 726 311 726 m 410 524 q 345 509 369 524 q 306 448 321 494 q 292 311 292 401 q 299 224 292 253 q 326 185 307 196 q 385 174 346 174 q 448 188 424 174 q 486 249 472 203 q 500 388 500 296 q 492 473 500 444 q 466 513 485 501 q 410 524 447 524 m 706 989 q 607 855 674 910 q 444 800 540 800 q 285 856 340 800 q 214 989 229 911 l 279 1074 l 317 1074 q 372 1009 333 1032 q 461 986 411 986 q 556 1009 513 986 q 625 1074 600 1032 l 663 1074 l 706 989 z "},"Ő":{"ha":914,"x_min":33,"x_max":908,"o":"m 528 915 q 809 817 710 915 q 908 519 908 719 q 851 242 908 364 q 682 52 793 121 q 415 -17 571 -17 q 133 83 233 -17 q 33 383 33 182 q 91 659 33 539 q 260 847 149 779 q 528 915 372 915 m 496 694 q 403 669 440 694 q 345 576 367 644 q 324 379 324 507 q 333 264 324 304 q 369 206 343 224 q 444 188 394 188 q 536 213 499 188 q 595 306 574 238 q 617 503 617 375 q 607 617 617 576 q 572 676 597 658 q 496 694 546 694 m 294 1051 q 432 1258 389 1188 l 451 1263 l 576 1183 l 581 1164 q 399 994 492 1076 l 376 988 l 294 1051 m 561 1099 q 667 1258 611 1172 l 685 1263 l 811 1183 l 815 1164 q 632 994 719 1071 l 611 988 l 529 1051 l 561 1099 z "},"ő":{"ha":789,"x_min":24,"x_max":769,"o":"m 442 726 q 684 647 599 726 q 769 406 769 567 q 720 188 769 283 q 576 39 671 93 q 351 -15 482 -15 q 109 65 194 -15 q 24 308 24 146 q 73 525 24 431 q 217 673 122 619 q 442 726 311 726 m 410 524 q 345 509 369 524 q 306 448 321 494 q 292 311 292 401 q 299 224 292 253 q 326 185 307 196 q 385 174 346 174 q 448 188 424 174 q 486 249 472 203 q 500 388 500 296 q 492 473 500 444 q 466 513 485 501 q 410 524 447 524 m 224 846 q 381 1110 290 953 l 397 1115 l 522 1029 l 526 1010 q 325 789 440 908 l 304 782 l 224 846 m 453 846 q 608 1110 531 972 l 626 1115 l 751 1029 l 756 1010 q 554 789 669 908 l 533 782 l 453 846 z "},"Œ":{"ha":1236,"x_min":33,"x_max":1296,"o":"m 558 915 q 718 906 633 915 q 836 899 822 899 l 1282 899 l 1296 879 l 1253 678 l 1032 686 l 889 686 l 871 558 l 1008 558 l 1154 563 l 1167 543 l 1125 340 l 964 344 l 838 344 l 832 292 l 825 213 l 958 213 l 1190 221 l 1203 201 l 1161 0 l 726 0 q 571 -7 693 1 q 407 -17 479 -17 q 131 83 228 -17 q 33 364 33 182 q 97 658 33 533 q 280 849 161 782 q 558 915 399 915 m 507 694 q 406 668 444 694 q 346 570 367 642 q 325 367 325 499 q 355 229 325 271 q 456 188 385 188 q 550 208 528 188 q 576 283 572 229 l 608 604 q 610 633 610 615 q 601 672 610 660 q 507 694 583 694 z "},"œ":{"ha":1061,"x_min":25,"x_max":1096,"o":"m 451 725 q 599 718 485 725 q 706 713 676 713 l 1085 713 l 1096 694 l 1056 508 l 871 517 l 756 517 l 746 454 l 858 454 l 978 458 l 990 440 l 951 253 l 817 257 l 714 257 l 711 235 l 710 196 l 817 196 l 1013 203 l 1024 186 l 986 0 l 618 0 q 490 -6 581 3 q 357 -12 390 -12 q 113 67 201 -12 q 25 290 25 146 q 137 610 25 494 q 451 725 249 725 m 418 522 q 346 506 372 522 q 306 440 319 489 q 293 293 293 390 q 314 201 293 226 q 385 175 335 175 q 461 192 446 175 q 479 257 475 207 l 497 446 q 499 471 499 456 q 492 503 499 492 q 418 522 478 522 z "},"Ŕ":{"ha":875,"x_min":43,"x_max":864,"o":"m 864 660 q 816 484 864 565 q 681 347 768 403 q 842 65 765 188 l 835 35 q 550 -17 688 -8 l 526 6 q 439 268 456 214 l 344 268 l 321 0 l 43 0 l 90 264 l 154 899 l 565 900 q 784 837 704 900 q 864 660 864 774 m 567 614 q 541 683 567 661 q 458 708 515 706 l 407 704 l 372 471 l 474 465 q 545 522 524 486 q 567 614 567 558 m 736 1142 l 732 1118 q 422 967 535 1018 l 399 968 l 338 1068 q 617 1290 475 1169 l 640 1289 l 736 1142 z "},"ŕ":{"ha":772,"x_min":33,"x_max":744,"o":"m 744 507 q 706 377 744 438 q 600 274 668 317 q 732 60 661 164 l 724 32 q 468 -14 589 -6 l 438 13 q 376 197 404 110 l 304 197 l 290 0 l 33 0 l 71 207 l 121 713 l 486 713 q 674 658 604 713 q 744 507 744 603 m 331 383 l 413 378 q 469 468 469 406 q 455 519 469 504 q 406 538 440 535 l 354 533 l 331 383 m 629 956 l 625 932 q 315 781 428 832 l 292 782 l 231 882 q 510 1104 368 983 l 533 1103 l 629 956 z "},"Ŗ":{"ha":875,"x_min":43,"x_max":864,"o":"m 864 660 q 816 484 864 565 q 681 347 768 403 q 842 65 765 188 l 835 35 q 550 -17 688 -8 l 526 6 q 439 268 456 214 l 344 268 l 321 0 l 43 0 l 90 264 l 154 899 l 565 900 q 784 837 704 900 q 864 660 864 774 m 567 614 q 541 683 567 661 q 458 708 515 706 l 407 704 l 372 471 l 474 465 q 545 522 524 486 q 567 614 567 558 m 436 -46 q 493 -172 493 -101 q 311 -432 493 -308 l 239 -369 l 236 -353 q 303 -224 303 -296 q 264 -133 303 -172 l 265 -115 q 436 -46 347 -68 z "},"ŗ":{"ha":772,"x_min":33,"x_max":744,"o":"m 744 507 q 706 377 744 438 q 600 274 668 317 q 732 60 661 164 l 724 32 q 468 -14 589 -6 l 438 13 q 376 197 404 110 l 304 197 l 290 0 l 33 0 l 71 207 l 121 713 l 486 713 q 674 658 604 713 q 744 507 744 603 m 331 383 l 413 378 q 469 468 469 406 q 455 519 469 504 q 406 538 440 535 l 354 533 l 331 383 m 403 -46 q 460 -172 460 -101 q 278 -432 460 -308 l 206 -369 l 203 -353 q 269 -224 269 -296 q 231 -133 269 -172 l 232 -115 q 403 -46 314 -68 z "},"Ř":{"ha":875,"x_min":43,"x_max":864,"o":"m 864 660 q 816 484 864 565 q 681 347 768 403 q 842 65 765 188 l 835 35 q 550 -17 688 -8 l 526 6 q 439 268 456 214 l 344 268 l 321 0 l 43 0 l 90 264 l 154 899 l 565 900 q 784 837 704 900 q 864 660 864 774 m 567 614 q 541 683 567 661 q 458 708 515 706 l 407 704 l 372 471 l 474 465 q 545 522 524 486 q 567 614 567 558 m 786 1182 q 564 996 739 1146 l 539 974 l 492 974 q 288 1182 426 1049 l 365 1281 l 390 1281 q 533 1172 478 1219 q 683 1265 578 1203 l 708 1281 l 733 1281 l 786 1182 z "},"ř":{"ha":772,"x_min":33,"x_max":744,"o":"m 744 507 q 706 377 744 438 q 600 274 668 317 q 732 60 661 164 l 724 32 q 468 -14 589 -6 l 438 13 q 376 197 404 110 l 304 197 l 290 0 l 33 0 l 71 207 l 121 713 l 486 713 q 674 658 604 713 q 744 507 744 603 m 331 383 l 413 378 q 469 468 469 406 q 455 519 469 504 q 406 538 440 535 l 354 533 l 331 383 m 679 996 q 457 810 632 960 l 432 788 l 385 788 q 181 996 319 863 l 258 1094 l 283 1094 q 426 986 371 1033 q 576 1079 471 1017 l 601 1094 l 626 1094 l 679 996 z "},"Ś":{"ha":733,"x_min":-4,"x_max":743,"o":"m 486 915 q 743 867 619 915 l 674 642 l 635 625 q 526 682 581 661 q 436 703 471 703 q 381 688 401 703 q 361 653 361 674 q 388 608 361 626 q 475 561 415 589 q 588 501 543 529 q 667 424 633 472 q 700 308 700 376 q 648 146 700 221 q 502 27 596 71 q 289 -17 408 -17 q -4 36 146 -17 l 63 276 l 92 293 q 221 215 151 243 q 340 188 290 188 q 417 238 417 188 q 388 285 417 265 q 300 333 360 306 q 189 393 232 365 q 114 468 146 421 q 82 583 82 515 q 135 751 82 675 q 280 872 188 828 q 486 915 372 915 m 671 1142 l 667 1118 q 357 967 469 1018 l 333 968 l 272 1068 q 551 1290 410 1169 l 575 1289 l 671 1142 z "},"ś":{"ha":650,"x_min":1,"x_max":629,"o":"m 415 726 q 629 689 526 726 l 569 476 l 533 467 q 438 518 489 499 q 358 538 388 538 q 328 515 328 538 q 347 488 328 499 q 407 461 365 476 q 501 418 463 440 q 567 356 539 396 q 596 256 596 317 q 560 124 596 186 q 445 23 524 63 q 249 -17 367 -17 q 1 22 122 -17 l 63 244 l 88 263 q 199 192 138 219 q 301 164 260 164 q 338 190 338 164 q 319 217 338 206 q 260 243 300 228 q 164 286 203 264 q 97 349 125 308 q 68 451 68 389 q 110 590 68 528 q 230 690 151 653 q 415 726 308 726 m 592 956 l 588 932 q 278 781 390 832 l 254 782 l 193 882 q 472 1104 331 983 l 496 1103 l 592 956 z "},"Ŝ":{"ha":733,"x_min":-4,"x_max":743,"o":"m 486 915 q 743 867 619 915 l 674 642 l 635 625 q 526 682 581 661 q 436 703 471 703 q 381 688 401 703 q 361 653 361 674 q 388 608 361 626 q 475 561 415 589 q 588 501 543 529 q 667 424 633 472 q 700 308 700 376 q 648 146 700 221 q 502 27 596 71 q 289 -17 408 -17 q -4 36 146 -17 l 63 276 l 92 293 q 221 215 151 243 q 340 188 290 188 q 417 238 417 188 q 388 285 417 265 q 300 333 360 306 q 189 393 232 365 q 114 468 146 421 q 82 583 82 515 q 135 751 82 675 q 280 872 188 828 q 486 915 372 915 m 222 1079 q 469 1286 300 1139 l 517 1286 q 721 1079 589 1204 l 643 979 l 618 979 q 472 1088 515 1051 q 300 979 422 1051 l 275 979 l 222 1079 z "},"ŝ":{"ha":650,"x_min":1,"x_max":642,"o":"m 415 726 q 629 689 526 726 l 569 476 l 533 467 q 438 518 489 499 q 358 538 388 538 q 328 515 328 538 q 347 488 328 499 q 407 461 365 476 q 501 418 463 440 q 567 356 539 396 q 596 256 596 317 q 560 124 596 186 q 445 23 524 63 q 249 -17 367 -17 q 1 22 122 -17 l 63 244 l 88 263 q 199 192 138 219 q 301 164 260 164 q 338 190 338 164 q 319 217 338 206 q 260 243 300 228 q 164 286 203 264 q 97 349 125 308 q 68 451 68 389 q 110 590 68 528 q 230 690 151 653 q 415 726 308 726 m 143 893 q 390 1100 221 953 l 438 1100 q 642 893 510 1018 l 564 793 l 539 793 q 393 901 436 865 q 221 793 343 865 l 196 793 l 143 893 z "},"Ş":{"ha":733,"x_min":-3,"x_max":744,"o":"m 363 653 q 390 608 363 626 q 476 561 417 589 q 590 501 544 529 q 668 424 635 472 q 701 308 701 376 q 658 158 701 228 q 536 43 615 89 q 354 -14 457 -3 l 346 -58 l 393 -85 q 454 -172 454 -117 q 413 -256 454 -224 q 301 -289 372 -289 q 174 -256 233 -289 l 189 -151 l 200 -147 q 283 -186 246 -186 q 306 -167 306 -186 q 289 -146 306 -154 l 219 -108 l 238 -15 q -3 36 122 -7 l 64 276 l 93 293 q 222 216 151 244 q 340 188 292 188 q 418 238 418 188 q 390 285 418 265 q 301 333 361 306 q 190 393 233 365 q 115 468 147 421 q 83 583 83 515 q 136 751 83 675 q 281 872 189 828 q 488 915 374 915 q 744 867 621 915 l 675 642 l 635 625 q 527 682 582 661 q 438 703 472 703 q 383 688 403 703 q 363 653 363 674 z "},"ş":{"ha":650,"x_min":1,"x_max":629,"o":"m 328 515 q 347 488 328 499 q 407 461 365 476 q 501 418 463 440 q 567 356 539 396 q 596 256 596 317 q 567 138 596 194 q 478 41 539 82 q 324 -12 417 0 l 315 -58 l 363 -85 q 424 -172 424 -117 q 383 -256 424 -224 q 271 -289 342 -289 q 143 -256 203 -289 l 158 -151 l 169 -147 q 253 -186 215 -186 q 275 -167 275 -186 q 258 -146 275 -154 l 189 -108 l 207 -15 q 1 22 101 -10 l 63 244 l 88 263 q 198 192 138 219 q 300 164 258 164 q 338 190 338 164 q 319 217 338 206 q 260 243 300 228 q 164 286 203 264 q 97 349 125 308 q 68 451 68 389 q 110 590 68 528 q 230 690 151 653 q 414 726 308 726 q 629 689 526 726 l 569 476 l 532 467 q 437 518 486 499 q 358 538 388 538 q 328 515 328 538 z "},"Š":{"ha":733,"x_min":-4,"x_max":743,"o":"m 486 915 q 743 867 619 915 l 674 642 l 635 625 q 526 682 581 661 q 436 703 471 703 q 381 688 401 703 q 361 653 361 674 q 388 608 361 626 q 475 561 415 589 q 588 501 543 529 q 667 424 633 472 q 700 308 700 376 q 648 146 700 221 q 502 27 596 71 q 289 -17 408 -17 q -4 36 146 -17 l 63 276 l 92 293 q 221 215 151 243 q 340 188 290 188 q 417 238 417 188 q 388 285 417 265 q 300 333 360 306 q 189 393 232 365 q 114 468 146 421 q 82 583 82 515 q 135 751 82 675 q 280 872 188 828 q 486 915 372 915 m 721 1182 q 499 996 674 1146 l 474 974 l 426 974 q 222 1182 361 1049 l 300 1281 l 325 1281 q 468 1172 413 1219 q 618 1265 513 1203 l 643 1281 l 668 1281 l 721 1182 z "},"š":{"ha":650,"x_min":1,"x_max":642,"o":"m 415 726 q 629 689 526 726 l 569 476 l 533 467 q 438 518 489 499 q 358 538 388 538 q 328 515 328 538 q 347 488 328 499 q 407 461 365 476 q 501 418 463 440 q 567 356 539 396 q 596 256 596 317 q 560 124 596 186 q 445 23 524 63 q 249 -17 367 -17 q 1 22 122 -17 l 63 244 l 88 263 q 199 192 138 219 q 301 164 260 164 q 338 190 338 164 q 319 217 338 206 q 260 243 300 228 q 164 286 203 264 q 97 349 125 308 q 68 451 68 389 q 110 590 68 528 q 230 690 151 653 q 415 726 308 726 m 642 996 q 419 810 594 960 l 394 788 l 347 788 q 143 996 282 863 l 221 1094 l 246 1094 q 389 986 333 1033 q 539 1079 433 1017 l 564 1094 l 589 1094 l 642 996 z "},"Ţ":{"ha":719,"x_min":56,"x_max":778,"o":"m 738 678 l 557 686 l 539 686 l 483 292 l 458 0 l 376 0 l 365 -57 l 411 -82 q 469 -167 469 -115 q 430 -249 469 -217 q 322 -281 390 -281 q 199 -249 258 -281 l 214 -147 l 224 -143 q 306 -181 269 -181 q 326 -162 326 -181 q 311 -142 326 -150 l 243 -106 l 264 0 l 182 0 l 229 264 l 274 686 l 256 686 l 69 678 l 56 697 l 96 899 l 765 899 l 778 879 l 738 678 z "},"ţ":{"ha":636,"x_min":35,"x_max":656,"o":"m 618 508 l 463 517 l 457 517 l 417 233 l 399 0 l 335 0 l 315 -60 l 358 -86 q 410 -162 410 -115 q 364 -254 410 -218 q 243 -290 318 -290 q 121 -257 176 -290 l 150 -153 l 160 -149 q 238 -187 201 -187 q 263 -165 263 -187 q 250 -147 263 -156 l 183 -110 l 218 0 l 143 0 l 181 207 l 213 517 l 207 517 l 47 508 l 35 526 l 72 713 l 644 713 l 656 694 l 618 508 z "},"Ť":{"ha":719,"x_min":56,"x_max":778,"o":"m 739 678 l 557 686 l 539 686 l 483 292 l 458 0 l 182 0 l 229 264 l 274 686 l 256 686 l 69 678 l 56 697 l 96 899 l 765 899 l 778 879 l 739 678 m 707 1182 q 485 996 660 1146 l 460 974 l 413 974 q 208 1182 347 1049 l 286 1281 l 311 1281 q 454 1172 399 1219 q 604 1265 499 1203 l 629 1281 l 654 1281 l 707 1182 z "},"ť":{"ha":635,"x_min":40,"x_max":660,"o":"m 624 508 l 468 517 l 463 517 l 422 233 l 404 0 l 149 0 l 186 207 l 218 517 l 213 517 l 53 508 l 40 526 l 78 713 l 650 713 l 660 694 l 624 508 m 639 996 q 417 810 592 960 l 392 788 l 344 788 q 140 996 279 863 l 218 1094 l 243 1094 q 386 986 331 1033 q 536 1079 431 1017 l 561 1094 l 586 1094 l 639 996 z "},"Ŧ":{"ha":719,"x_min":56,"x_max":778,"o":"m 508 465 l 621 465 l 638 447 l 628 326 l 489 326 l 483 292 l 458 0 l 182 0 l 229 264 l 236 326 l 128 326 l 111 344 l 121 465 l 250 465 l 274 686 l 256 686 l 69 678 l 56 697 l 96 899 l 765 899 l 778 879 l 738 678 l 557 686 l 539 686 l 508 465 z "},"ŧ":{"ha":636,"x_min":42,"x_max":661,"o":"m 442 354 l 539 354 l 553 336 l 528 214 l 422 214 l 406 0 l 150 0 l 188 207 l 189 214 l 83 214 l 69 232 l 94 354 l 203 354 l 219 517 l 214 517 l 54 508 l 42 526 l 79 713 l 651 713 l 661 694 l 625 508 l 469 517 l 464 517 l 442 354 z "},"Ũ":{"ha":907,"x_min":63,"x_max":913,"o":"m 829 300 q 704 65 810 146 q 413 -17 599 -17 q 155 50 247 -17 q 63 240 63 117 q 67 300 63 269 l 88 443 l 135 899 l 413 899 l 332 338 q 329 300 329 310 q 354 225 329 249 q 436 201 379 201 q 535 233 501 201 q 575 338 568 265 l 631 899 l 913 899 l 847 443 l 829 300 m 824 1174 l 711 1017 l 689 1008 q 569 1036 651 1013 q 476 1056 489 1056 q 435 1038 453 1056 q 381 975 417 1019 l 358 975 l 279 1051 l 279 1074 l 392 1229 l 414 1238 q 533 1210 451 1233 q 626 1190 614 1190 q 668 1208 650 1190 q 722 1271 686 1226 l 744 1271 l 824 1196 l 824 1174 z "},"ũ":{"ha":786,"x_min":47,"x_max":774,"o":"m 706 235 q 599 49 690 113 q 347 -15 508 -15 q 126 38 206 -15 q 47 189 47 90 q 51 235 47 213 l 68 350 l 106 713 l 361 713 l 296 269 q 294 247 294 261 q 313 200 294 214 q 374 186 331 186 q 444 206 422 186 q 471 269 467 225 l 514 713 l 774 713 l 721 351 l 706 235 m 736 988 l 624 831 l 601 822 q 482 850 564 826 q 389 869 401 869 q 347 851 365 869 q 293 789 329 833 l 271 789 l 192 865 l 192 888 l 304 1043 l 326 1051 q 446 1024 364 1047 q 539 1004 526 1004 q 581 1022 563 1004 q 635 1085 599 1040 l 657 1085 l 736 1010 l 736 988 z "},"Ū":{"ha":907,"x_min":63,"x_max":913,"o":"m 829 300 q 704 65 810 146 q 413 -17 599 -17 q 155 50 247 -17 q 63 240 63 117 q 67 300 63 269 l 88 443 l 135 899 l 413 899 l 332 338 q 329 300 329 310 q 354 225 329 249 q 436 201 379 201 q 535 233 501 201 q 575 338 568 265 l 631 899 l 913 899 l 847 443 l 829 300 m 744 1036 l 361 1036 l 344 1054 l 357 1201 l 740 1201 l 757 1185 l 744 1036 z "},"ū":{"ha":786,"x_min":47,"x_max":774,"o":"m 706 235 q 599 49 690 113 q 347 -15 508 -15 q 126 38 206 -15 q 47 189 47 90 q 51 235 47 213 l 68 350 l 106 713 l 361 713 l 296 269 q 294 247 294 261 q 313 200 294 214 q 374 186 331 186 q 444 206 422 186 q 471 269 467 225 l 514 713 l 774 713 l 721 351 l 706 235 m 657 850 l 274 850 l 257 868 l 269 1015 l 653 1015 l 669 999 l 657 850 z "},"Ŭ":{"ha":907,"x_min":63,"x_max":913,"o":"m 829 300 q 704 65 810 146 q 413 -17 599 -17 q 155 50 247 -17 q 63 240 63 117 q 67 300 63 269 l 88 443 l 135 899 l 413 899 l 332 338 q 329 300 329 310 q 354 225 329 249 q 436 201 379 201 q 535 233 501 201 q 575 338 568 265 l 631 899 l 913 899 l 847 443 l 829 300 m 796 1175 q 697 1041 764 1096 q 535 986 631 986 q 375 1042 431 986 q 304 1175 319 1097 l 369 1260 l 407 1260 q 463 1195 424 1218 q 551 1172 501 1172 q 647 1195 603 1172 q 715 1260 690 1218 l 753 1260 l 796 1175 z "},"ŭ":{"ha":786,"x_min":47,"x_max":774,"o":"m 706 235 q 599 49 690 113 q 347 -15 508 -15 q 126 38 206 -15 q 47 189 47 90 q 51 235 47 213 l 68 350 l 106 713 l 361 713 l 296 269 q 294 247 294 261 q 313 200 294 214 q 374 186 331 186 q 444 206 422 186 q 471 269 467 225 l 514 713 l 774 713 l 721 351 l 706 235 m 708 989 q 610 855 676 910 q 447 800 543 800 q 288 856 343 800 q 217 989 232 911 l 282 1074 l 319 1074 q 375 1009 336 1032 q 464 986 414 986 q 559 1009 515 986 q 628 1074 603 1032 l 665 1074 l 708 989 z "},"Ů":{"ha":907,"x_min":63,"x_max":913,"o":"m 829 300 q 704 65 810 146 q 413 -17 599 -17 q 155 50 247 -17 q 63 240 63 117 q 67 300 63 269 l 88 443 l 135 899 l 413 899 l 332 338 q 329 300 329 310 q 354 225 329 249 q 436 201 379 201 q 535 233 501 201 q 575 338 568 265 l 631 899 l 913 899 l 847 443 l 829 300 m 558 1292 q 706 1149 706 1292 q 665 1031 706 1072 q 547 990 625 990 q 400 1139 400 990 q 558 1292 400 1292 m 551 1185 q 515 1176 525 1185 q 504 1143 504 1167 q 515 1106 504 1117 q 554 1096 526 1096 q 591 1106 581 1096 q 601 1139 601 1115 q 590 1174 601 1164 q 551 1185 579 1185 z "},"ů":{"ha":786,"x_min":47,"x_max":774,"o":"m 706 235 q 599 49 690 113 q 347 -15 508 -15 q 126 38 206 -15 q 47 189 47 90 q 51 235 47 213 l 68 350 l 106 713 l 361 713 l 296 269 q 294 247 294 261 q 313 200 294 214 q 374 186 331 186 q 444 206 422 186 q 471 269 467 225 l 514 713 l 774 713 l 721 351 l 706 235 m 471 1106 q 618 963 618 1106 q 578 845 618 886 q 460 804 538 804 q 313 953 313 804 q 471 1106 313 1106 m 464 999 q 427 990 438 999 q 417 957 417 981 q 428 920 417 931 q 467 910 439 910 q 503 919 493 910 q 514 953 514 929 q 503 988 514 978 q 464 999 492 999 z "},"Ű":{"ha":907,"x_min":63,"x_max":913,"o":"m 829 300 q 704 65 810 146 q 413 -17 599 -17 q 155 50 247 -17 q 63 240 63 117 q 67 300 63 269 l 88 443 l 135 899 l 413 899 l 332 338 q 329 300 329 310 q 354 225 329 249 q 436 201 379 201 q 535 233 501 201 q 575 338 568 265 l 631 899 l 913 899 l 847 443 l 829 300 m 292 1051 q 429 1258 386 1188 l 449 1263 l 574 1183 l 578 1164 q 396 994 489 1076 l 374 988 l 292 1051 m 558 1099 q 664 1258 608 1172 l 682 1263 l 808 1183 l 813 1164 q 629 994 717 1071 l 608 988 l 526 1051 l 558 1099 z "},"ű":{"ha":786,"x_min":47,"x_max":774,"o":"m 706 235 q 599 49 690 113 q 347 -15 508 -15 q 126 38 206 -15 q 47 189 47 90 q 51 235 47 213 l 68 350 l 106 713 l 361 713 l 296 269 q 294 247 294 261 q 313 200 294 214 q 374 186 331 186 q 444 206 422 186 q 471 269 467 225 l 514 713 l 774 713 l 721 351 l 706 235 m 226 846 q 383 1110 293 953 l 400 1115 l 525 1029 l 529 1010 q 328 789 443 908 l 307 782 l 226 846 m 456 846 q 611 1110 533 972 l 629 1115 l 754 1029 l 758 1010 q 557 789 672 908 l 536 782 l 456 846 z "},"Ų":{"ha":907,"x_min":63,"x_max":913,"o":"m 847 443 l 829 300 q 696 58 808 139 l 639 -31 q 617 -92 617 -64 q 667 -137 617 -137 q 751 -110 707 -137 l 765 -110 l 782 -210 q 628 -274 699 -274 q 522 -235 561 -274 q 483 -139 483 -197 q 529 -12 483 -78 l 533 -7 q 413 -17 483 -17 q 155 50 247 -17 q 63 240 63 117 q 67 300 63 269 l 88 443 l 135 899 l 413 899 l 332 338 q 329 300 329 310 q 354 225 329 249 q 435 201 379 201 q 535 233 501 201 q 575 338 568 265 l 631 899 l 913 899 l 847 443 z "},"ų":{"ha":786,"x_min":47,"x_max":774,"o":"m 721 351 l 706 235 q 599 49 689 111 l 539 -31 q 513 -92 513 -65 q 563 -137 513 -137 q 647 -110 603 -137 l 661 -110 l 678 -210 q 524 -274 594 -274 q 418 -235 457 -274 q 379 -139 379 -197 q 429 -12 379 -71 l 431 -10 q 347 -15 397 -15 q 126 38 206 -15 q 47 189 47 90 q 51 235 47 213 l 68 350 l 106 713 l 361 713 l 296 269 q 294 247 294 261 q 313 200 294 214 q 372 186 331 186 q 444 206 421 186 q 471 269 467 225 l 514 713 l 774 713 l 721 351 z "},"Ŵ":{"ha":1269,"x_min":94,"x_max":1339,"o":"m 669 0 l 625 325 l 610 325 l 490 0 l 194 0 l 94 899 l 364 899 l 361 760 l 390 279 l 406 279 l 560 690 l 538 899 l 819 899 l 818 731 l 857 279 l 872 279 l 1039 743 l 1083 899 l 1339 899 l 964 0 l 669 0 m 469 1106 q 689 1269 607 1199 l 736 1269 q 942 1106 817 1193 l 882 1000 l 857 1000 l 707 1083 q 618 1042 679 1069 l 529 1000 l 504 1000 l 469 1106 z "},"ŵ":{"ha":1083,"x_min":76,"x_max":1126,"o":"m 550 0 l 519 210 l 504 210 l 432 0 l 154 0 l 76 713 l 329 713 l 325 589 l 336 260 l 351 260 l 458 551 l 443 713 l 707 713 l 706 561 l 726 260 l 742 260 l 850 574 l 888 713 l 1126 713 l 828 0 l 550 0 m 346 893 q 593 1100 424 953 l 640 1100 q 844 893 713 1018 l 767 793 l 742 793 q 596 901 639 865 q 424 793 546 865 l 399 793 l 346 893 z "},"Ŷ":{"ha":825,"x_min":60,"x_max":922,"o":"m 518 236 l 501 0 l 225 0 l 267 236 l 271 288 l 60 899 l 349 899 l 361 824 l 429 551 l 446 551 l 597 814 l 639 899 l 922 899 l 526 283 l 518 236 m 276 1106 q 496 1269 414 1199 l 543 1269 q 749 1106 624 1193 l 689 1000 l 664 1000 l 514 1083 q 425 1042 486 1069 l 336 1000 l 311 1000 l 276 1106 z "},"ŷ":{"ha":728,"x_min":43,"x_max":792,"o":"m 453 182 l 442 0 l 186 0 l 221 182 l 224 211 l 43 713 l 311 713 l 322 647 l 374 461 l 388 461 l 493 638 l 531 713 l 792 713 l 458 208 l 453 182 m 186 893 q 433 1100 264 953 l 481 1100 q 685 893 553 1018 l 607 793 l 582 793 q 436 901 479 865 q 264 793 386 865 l 239 793 l 186 893 z "},"Ÿ":{"ha":825,"x_min":60,"x_max":922,"o":"m 518 236 l 501 0 l 225 0 l 267 236 l 271 288 l 60 899 l 349 899 l 361 824 l 429 551 l 446 551 l 597 814 l 639 899 l 922 899 l 526 283 l 518 236 m 381 1236 q 463 1207 433 1236 q 493 1124 493 1178 q 460 1031 493 1065 q 371 997 428 997 q 287 1027 315 997 q 258 1113 258 1057 q 291 1203 258 1171 q 381 1236 324 1236 m 650 1236 q 732 1206 703 1236 q 761 1124 761 1176 q 728 1031 761 1065 q 640 997 696 997 q 556 1027 585 997 q 526 1113 526 1057 q 560 1203 526 1171 q 650 1236 593 1236 z "},"Ź":{"ha":790,"x_min":-3,"x_max":817,"o":"m 349 204 l 572 204 l 744 217 l 751 204 l 703 -7 l 458 0 l 139 0 l -3 -8 l 22 189 l 474 694 l 254 694 l 86 681 l 78 692 l 124 903 l 332 899 l 713 899 l 817 900 l 792 701 l 349 204 m 636 1107 l 628 1085 q 297 989 444 1026 l 274 994 l 232 1104 q 544 1274 390 1182 l 568 1268 l 636 1107 z "},"ź":{"ha":693,"x_min":1,"x_max":693,"o":"m 328 188 l 492 188 l 642 199 l 647 189 l 604 -7 l 383 0 l 126 0 l 1 -7 l 24 174 l 374 524 l 214 524 l 64 511 l 57 521 l 99 715 l 285 713 l 693 713 l 672 531 l 328 188 m 618 956 l 614 932 q 304 781 417 832 l 281 782 l 219 882 q 499 1104 357 983 l 522 1103 l 618 956 z "},"Ż":{"ha":790,"x_min":-3,"x_max":817,"o":"m 349 204 l 572 204 l 744 217 l 751 204 l 703 -7 l 458 0 l 139 0 l -3 -8 l 22 189 l 474 694 l 254 694 l 86 681 l 78 692 l 124 903 l 332 899 l 713 899 l 817 900 l 792 701 l 349 204 m 435 1257 q 529 1223 496 1257 q 563 1126 563 1189 q 525 1021 563 1060 q 424 982 488 982 q 326 1016 360 982 q 293 1114 293 1050 q 331 1219 293 1181 q 435 1257 369 1257 z "},"ż":{"ha":693,"x_min":1,"x_max":693,"o":"m 328 188 l 492 188 l 642 199 l 647 189 l 604 -7 l 383 0 l 126 0 l 1 -7 l 24 174 l 374 524 l 214 524 l 64 511 l 57 521 l 99 715 l 285 713 l 693 713 l 672 531 l 328 188 m 424 1071 q 518 1037 485 1071 q 551 940 551 1003 q 514 835 551 874 q 413 796 476 796 q 315 830 349 796 q 282 928 282 864 q 320 1033 282 994 q 424 1071 358 1071 z "},"Ž":{"ha":790,"x_min":-3,"x_max":817,"o":"m 349 204 l 572 204 l 744 217 l 751 204 l 703 -7 l 458 0 l 139 0 l -3 -8 l 22 189 l 474 694 l 254 694 l 86 681 l 78 692 l 124 903 l 332 899 l 713 899 l 817 900 l 792 701 l 349 204 m 665 1154 q 446 989 542 1072 l 399 989 q 193 1154 318 1065 l 253 1258 l 278 1258 l 428 1175 q 529 1222 496 1208 l 606 1258 l 631 1258 l 665 1154 z "},"ž":{"ha":693,"x_min":1,"x_max":693,"o":"m 328 188 l 492 188 l 642 199 l 647 189 l 604 -7 l 383 0 l 126 0 l 1 -7 l 24 174 l 374 524 l 214 524 l 64 511 l 57 521 l 99 715 l 285 713 l 693 713 l 672 531 l 328 188 m 668 996 q 446 810 621 960 l 421 788 l 374 788 q 169 996 308 863 l 247 1094 l 272 1094 q 415 986 360 1033 q 565 1079 460 1017 l 590 1094 l 615 1094 l 668 996 z "},"ƒ":{"ha":500,"x_min":-22,"x_max":618,"o":"m 494 869 q 618 857 556 869 l 582 676 l 565 665 q 450 696 493 696 q 383 640 390 696 l 371 551 l 497 551 l 503 538 l 489 403 l 350 403 l 332 258 l 314 89 q 250 -87 301 -17 q 89 -210 199 -157 l -22 -100 l -19 -82 q 49 -16 26 -54 q 82 83 72 22 l 99 232 l 115 403 l 24 403 l 18 415 l 32 551 l 131 551 l 136 596 q 246 799 151 728 q 494 869 340 869 z "},"Ơ":{"ha":922,"x_min":33,"x_max":1047,"o":"m 946 1096 q 1019 1062 992 1096 q 1047 972 1047 1028 q 993 835 1047 894 q 856 757 939 776 q 907 529 907 664 q 848 246 907 369 q 678 53 789 122 q 414 -17 567 -17 q 132 86 231 -17 q 33 385 33 189 q 96 664 33 543 q 269 850 158 785 q 518 915 379 915 q 686 890 589 915 q 764 876 744 876 q 836 947 836 876 q 806 1025 836 994 l 813 1044 q 946 1096 890 1096 m 494 694 q 403 669 440 694 q 345 575 367 644 q 324 378 324 506 q 333 266 324 306 q 369 207 343 226 q 449 188 396 188 q 538 213 501 188 q 597 307 575 238 q 618 506 618 376 q 609 616 618 576 q 573 675 600 656 q 494 694 546 694 z "},"ơ":{"ha":803,"x_min":24,"x_max":889,"o":"m 674 826 q 799 874 747 874 q 864 845 839 874 q 889 771 889 817 q 842 653 889 706 q 731 590 796 601 q 768 422 768 524 q 719 192 768 290 q 577 39 671 93 q 351 -15 483 -15 q 110 65 197 -15 q 24 288 24 144 q 74 522 24 422 q 215 674 125 621 q 422 726 306 726 q 571 707 490 726 q 639 697 619 697 q 693 751 693 697 q 668 808 693 788 l 674 826 m 385 174 q 450 189 426 174 q 487 256 474 204 q 500 413 500 307 q 480 501 500 478 q 410 524 460 524 q 342 508 367 524 q 304 441 317 492 q 292 286 292 390 q 312 197 292 221 q 385 174 332 174 z "},"Ư":{"ha":929,"x_min":63,"x_max":1022,"o":"m 1022 990 q 990 890 1022 936 q 900 811 958 843 l 847 443 l 829 300 q 704 65 810 146 q 413 -17 599 -17 q 155 50 247 -17 q 63 240 63 117 q 67 300 63 269 l 88 443 l 135 899 l 413 899 l 332 338 q 329 300 329 310 q 354 225 329 249 q 435 201 379 201 q 535 233 501 201 q 575 338 568 265 l 631 899 l 735 899 q 796 914 778 899 q 814 965 814 929 q 774 1047 814 1014 l 778 1067 q 907 1118 850 1118 q 990 1082 957 1118 q 1022 990 1022 1046 z "},"ư":{"ha":806,"x_min":47,"x_max":889,"o":"m 889 800 q 855 706 889 751 q 763 632 821 661 l 721 351 l 706 235 q 599 49 690 113 q 347 -15 508 -15 q 126 38 206 -15 q 47 189 47 90 q 51 235 47 213 l 68 350 l 106 713 l 361 713 l 296 269 q 294 247 294 261 q 313 200 294 214 q 372 186 331 186 q 444 206 421 186 q 471 269 467 225 l 514 713 l 622 713 q 678 726 663 713 q 693 772 693 740 q 667 828 693 808 l 674 846 q 800 893 747 893 q 865 867 840 893 q 889 800 889 842 z "},"Ǎ":{"ha":869,"x_min":-37,"x_max":815,"o":"m 535 0 l 529 149 l 529 154 l 392 157 l 276 151 l 233 0 l -37 0 l 346 899 l 681 899 l 815 0 l 535 0 m 486 651 l 469 651 l 354 356 l 433 354 l 511 356 l 486 651 m 771 1154 q 551 989 647 1072 l 504 989 q 299 1154 424 1065 l 358 1258 l 383 1258 l 533 1175 q 635 1222 601 1208 l 711 1258 l 736 1258 l 771 1154 z "},"ǎ":{"ha":763,"x_min":-31,"x_max":704,"o":"m 443 103 l 333 106 l 243 101 l 215 0 l -31 0 l 281 713 l 586 713 l 701 0 l 446 0 l 443 103 m 428 286 l 408 489 l 393 489 l 313 286 l 369 285 l 428 286 m 704 996 q 482 810 657 960 l 457 788 l 410 788 q 206 996 344 863 l 283 1094 l 308 1094 q 451 986 396 1033 q 601 1079 496 1017 l 626 1094 l 651 1094 l 704 996 z "},"Ǐ":{"ha":454,"x_min":43,"x_max":557,"o":"m 321 0 l 43 0 l 90 264 l 154 899 l 436 899 l 346 292 l 321 0 m 557 1154 q 338 989 433 1072 l 290 989 q 85 1154 210 1065 l 144 1258 l 169 1258 l 319 1175 q 421 1222 388 1208 l 497 1258 l 522 1258 l 557 1154 z "},"ǐ":{"ha":422,"x_min":24,"x_max":522,"o":"m 292 0 l 35 0 l 72 207 l 122 713 l 383 713 l 308 233 l 292 0 m 522 996 q 300 810 475 960 l 275 788 l 228 788 q 24 996 163 863 l 101 1094 l 126 1094 q 269 986 214 1033 q 419 1079 314 1017 l 444 1094 l 469 1094 l 522 996 z "},"Ǒ":{"ha":914,"x_min":33,"x_max":908,"o":"m 528 915 q 809 817 710 915 q 908 519 908 719 q 851 242 908 364 q 682 52 793 121 q 415 -17 571 -17 q 133 83 233 -17 q 33 383 33 182 q 91 659 33 539 q 260 847 149 779 q 528 915 372 915 m 496 694 q 403 669 440 694 q 345 576 367 644 q 324 379 324 507 q 333 264 324 304 q 369 206 343 224 q 444 188 394 188 q 536 213 499 188 q 595 306 574 238 q 617 503 617 375 q 607 617 617 576 q 572 676 597 658 q 496 694 546 694 m 790 1154 q 571 989 667 1072 l 524 989 q 318 1154 443 1065 l 378 1258 l 403 1258 l 553 1175 q 654 1222 621 1208 l 731 1258 l 756 1258 l 790 1154 z "},"ǒ":{"ha":789,"x_min":24,"x_max":769,"o":"m 442 726 q 684 647 599 726 q 769 406 769 567 q 720 188 769 283 q 576 39 671 93 q 351 -15 482 -15 q 109 65 194 -15 q 24 308 24 146 q 73 525 24 431 q 217 673 122 619 q 442 726 311 726 m 410 524 q 345 509 369 524 q 306 448 321 494 q 292 311 292 401 q 299 224 292 253 q 326 185 307 196 q 385 174 346 174 q 448 188 424 174 q 486 249 472 203 q 500 388 500 296 q 492 473 500 444 q 466 513 485 501 q 410 524 447 524 m 711 996 q 489 810 664 960 l 464 788 l 417 788 q 213 996 351 863 l 290 1094 l 315 1094 q 458 986 403 1033 q 608 1079 503 1017 l 633 1094 l 658 1094 l 711 996 z "},"Ǔ":{"ha":907,"x_min":63,"x_max":913,"o":"m 829 300 q 704 65 810 146 q 413 -17 599 -17 q 155 50 247 -17 q 63 240 63 117 q 67 300 63 269 l 88 443 l 135 899 l 413 899 l 332 338 q 329 300 329 310 q 354 225 329 249 q 436 201 379 201 q 535 233 501 201 q 575 338 568 265 l 631 899 l 913 899 l 847 443 l 829 300 m 801 1182 q 579 996 754 1146 l 554 974 l 507 974 q 303 1182 442 1049 l 381 1281 l 406 1281 q 549 1172 493 1219 q 699 1265 593 1203 l 724 1281 l 749 1281 l 801 1182 z "},"ǔ":{"ha":786,"x_min":47,"x_max":774,"o":"m 706 235 q 599 49 690 113 q 347 -15 508 -15 q 126 38 206 -15 q 47 189 47 90 q 51 235 47 213 l 68 350 l 106 713 l 361 713 l 296 269 q 294 247 294 261 q 313 200 294 214 q 374 186 331 186 q 444 206 422 186 q 471 269 467 225 l 514 713 l 774 713 l 721 351 l 706 235 m 714 996 q 492 810 667 960 l 467 788 l 419 788 q 215 996 354 863 l 293 1094 l 318 1094 q 461 986 406 1033 q 611 1079 506 1017 l 636 1094 l 661 1094 l 714 996 z "},"Ǖ":{"ha":907,"x_min":63,"x_max":913,"o":"m 829 300 q 704 65 810 146 q 413 -17 599 -17 q 155 50 247 -17 q 63 240 63 117 q 67 300 63 269 l 88 443 l 135 899 l 413 899 l 332 338 q 329 300 329 310 q 354 225 329 249 q 436 201 379 201 q 535 233 501 201 q 575 338 568 265 l 631 899 l 913 899 l 847 443 l 829 300 m 779 1276 l 358 1276 l 340 1293 l 354 1442 l 775 1442 l 793 1424 l 779 1276 m 424 1210 q 506 1180 476 1210 q 535 1097 535 1150 q 502 1005 535 1039 q 414 971 469 971 q 331 1001 360 971 q 301 1086 301 1031 q 334 1176 301 1143 q 424 1210 367 1210 m 692 1210 q 774 1180 744 1210 q 803 1097 803 1150 q 770 1005 803 1039 q 682 971 738 971 q 597 1001 626 971 q 568 1086 568 1031 q 601 1176 568 1143 q 692 1210 635 1210 z "},"ǖ":{"ha":786,"x_min":47,"x_max":774,"o":"m 706 235 q 599 49 690 113 q 347 -15 508 -15 q 126 38 206 -15 q 47 189 47 90 q 51 235 47 213 l 68 350 l 106 713 l 361 713 l 296 269 q 294 247 294 261 q 313 200 294 214 q 374 186 331 186 q 444 206 422 186 q 471 269 467 225 l 514 713 l 774 713 l 721 351 l 706 235 m 692 1090 l 271 1090 l 253 1107 l 267 1256 l 688 1256 l 706 1238 l 692 1090 m 336 1024 q 418 994 389 1024 q 447 911 447 964 q 415 819 447 853 q 326 785 382 785 q 243 815 272 785 q 214 900 214 844 q 247 990 214 957 q 336 1024 279 1024 m 604 1024 q 686 994 657 1024 q 715 911 715 964 q 683 819 715 853 q 594 785 650 785 q 510 815 539 785 q 481 900 481 844 q 514 990 481 957 q 604 1024 547 1024 z "},"Ǘ":{"ha":907,"x_min":63,"x_max":913,"o":"m 829 300 q 704 65 810 146 q 413 -17 599 -17 q 155 50 247 -17 q 63 240 63 117 q 67 300 63 269 l 88 443 l 135 899 l 413 899 l 332 338 q 329 300 329 310 q 354 225 329 249 q 436 201 379 201 q 535 233 501 201 q 575 338 568 265 l 631 899 l 913 899 l 847 443 l 829 300 m 761 1322 l 749 1301 q 407 1264 542 1276 l 385 1274 l 363 1389 q 700 1503 543 1443 l 722 1493 l 761 1322 m 424 1210 q 506 1180 476 1210 q 535 1097 535 1150 q 502 1005 535 1039 q 414 971 469 971 q 330 1001 358 971 q 301 1086 301 1031 q 334 1176 301 1143 q 424 1210 367 1210 m 692 1210 q 773 1180 744 1210 q 801 1097 801 1150 q 769 1005 801 1039 q 682 971 738 971 q 597 1001 626 971 q 568 1086 568 1031 q 601 1176 568 1143 q 692 1210 635 1210 z "},"ǘ":{"ha":786,"x_min":47,"x_max":774,"o":"m 706 235 q 599 49 690 113 q 347 -15 508 -15 q 126 38 206 -15 q 47 189 47 90 q 51 235 47 213 l 68 350 l 106 713 l 361 713 l 296 269 q 294 247 294 261 q 313 200 294 214 q 374 186 331 186 q 444 206 422 186 q 471 269 467 225 l 514 713 l 774 713 l 721 351 l 706 235 m 674 1136 l 661 1115 q 319 1078 454 1090 l 297 1088 l 275 1203 q 613 1317 456 1257 l 635 1307 l 674 1136 m 336 1024 q 418 994 389 1024 q 447 911 447 964 q 415 819 447 853 q 326 785 382 785 q 242 815 271 785 q 214 900 214 844 q 247 990 214 957 q 336 1024 279 1024 m 604 1024 q 685 994 657 1024 q 714 911 714 964 q 682 819 714 853 q 594 785 650 785 q 510 815 539 785 q 481 900 481 844 q 514 990 481 957 q 604 1024 547 1024 z "},"Ǚ":{"ha":907,"x_min":63,"x_max":913,"o":"m 829 300 q 704 65 810 146 q 413 -17 599 -17 q 155 50 247 -17 q 63 240 63 117 q 67 300 63 269 l 88 443 l 135 899 l 413 899 l 332 338 q 329 300 329 310 q 354 225 329 249 q 436 201 379 201 q 535 233 501 201 q 575 338 568 265 l 631 899 l 913 899 l 847 443 l 829 300 m 801 1379 q 582 1215 681 1300 l 535 1215 q 329 1379 453 1292 l 389 1485 l 414 1485 l 564 1401 q 665 1449 632 1435 l 742 1485 l 767 1485 l 801 1379 m 432 1210 q 514 1180 485 1210 q 543 1097 543 1150 q 510 1005 543 1039 q 422 971 478 971 q 338 1001 367 971 q 310 1086 310 1031 q 342 1176 310 1143 q 432 1210 375 1210 m 700 1210 q 781 1180 751 1210 q 810 1097 810 1150 q 778 1005 810 1039 q 690 971 746 971 q 606 1001 635 971 q 576 1086 576 1031 q 610 1176 576 1143 q 700 1210 643 1210 z "},"ǚ":{"ha":786,"x_min":47,"x_max":774,"o":"m 706 235 q 599 49 690 113 q 347 -15 508 -15 q 126 38 206 -15 q 47 189 47 90 q 51 235 47 213 l 68 350 l 106 713 l 361 713 l 296 269 q 294 247 294 261 q 313 200 294 214 q 374 186 331 186 q 444 206 422 186 q 471 269 467 225 l 514 713 l 774 713 l 721 351 l 706 235 m 714 1193 q 494 1029 593 1114 l 447 1029 q 242 1193 365 1106 l 301 1299 l 326 1299 l 476 1215 q 578 1263 544 1249 l 654 1299 l 679 1299 l 714 1193 m 344 1024 q 426 994 397 1024 q 456 911 456 964 q 423 819 456 853 q 335 785 390 785 q 251 815 279 785 q 222 900 222 844 q 255 990 222 957 q 344 1024 288 1024 m 613 1024 q 693 994 664 1024 q 722 911 722 964 q 690 819 722 853 q 603 785 658 785 q 518 815 547 785 q 489 900 489 844 q 522 990 489 957 q 613 1024 556 1024 z "},"Ǜ":{"ha":907,"x_min":63,"x_max":913,"o":"m 829 300 q 704 65 810 146 q 413 -17 599 -17 q 155 50 247 -17 q 63 240 63 117 q 67 300 63 269 l 88 443 l 135 899 l 413 899 l 332 338 q 329 300 329 310 q 354 225 329 249 q 436 201 379 201 q 535 233 501 201 q 575 338 568 265 l 631 899 l 913 899 l 847 443 l 829 300 m 451 1503 q 775 1389 601 1444 l 739 1274 l 715 1264 q 379 1301 579 1276 l 368 1322 l 429 1493 l 451 1503 m 414 1210 q 496 1181 467 1210 q 525 1097 525 1151 q 492 1005 525 1039 q 404 971 460 971 q 320 1001 349 971 q 292 1086 292 1031 q 324 1176 292 1143 q 414 1210 357 1210 m 682 1210 q 763 1181 735 1210 q 792 1097 792 1151 q 760 1005 792 1039 q 672 971 728 971 q 588 1001 617 971 q 558 1086 558 1031 q 592 1176 558 1143 q 682 1210 625 1210 z "},"ǜ":{"ha":786,"x_min":47,"x_max":774,"o":"m 706 235 q 599 49 690 113 q 347 -15 508 -15 q 126 38 206 -15 q 47 189 47 90 q 51 235 47 213 l 68 350 l 106 713 l 361 713 l 296 269 q 294 247 294 261 q 313 200 294 214 q 374 186 331 186 q 444 206 422 186 q 471 269 467 225 l 514 713 l 774 713 l 721 351 l 706 235 m 364 1317 q 688 1203 514 1258 l 651 1088 l 628 1078 q 292 1115 492 1090 l 281 1136 l 342 1307 l 364 1317 m 326 1024 q 408 994 379 1024 q 438 911 438 965 q 405 819 438 853 q 317 785 372 785 q 233 815 261 785 q 204 900 204 844 q 237 990 204 957 q 326 1024 269 1024 m 594 1024 q 676 994 647 1024 q 704 911 704 965 q 672 819 704 853 q 585 785 640 785 q 500 815 529 785 q 471 900 471 844 q 504 990 471 957 q 594 1024 538 1024 z "},"Ǫ":{"ha":914,"x_min":33,"x_max":908,"o":"m 764 -210 q 610 -274 681 -274 q 504 -235 543 -274 q 465 -139 465 -197 q 511 -12 465 -74 l 514 -8 q 415 -17 468 -17 q 133 83 233 -17 q 33 383 33 182 q 91 659 33 539 q 260 847 149 779 q 528 915 372 915 q 809 817 710 915 q 908 519 908 719 q 847 236 908 360 q 672 46 786 113 l 621 -31 q 599 -92 599 -64 q 649 -137 599 -137 q 733 -110 689 -137 l 747 -110 l 764 -210 m 324 379 q 333 264 324 304 q 369 206 343 224 q 444 188 394 188 q 536 213 499 188 q 595 306 574 238 q 617 503 617 375 q 607 617 617 576 q 572 676 597 658 q 496 694 546 694 q 403 669 440 694 q 345 576 367 644 q 324 379 324 507 z "},"ǫ":{"ha":789,"x_min":24,"x_max":768,"o":"m 465 -31 q 443 -92 443 -64 q 493 -137 443 -137 q 578 -110 533 -137 l 592 -110 l 608 -210 q 454 -274 525 -274 q 349 -235 388 -274 q 310 -139 310 -197 q 354 -15 310 -76 l 351 -15 q 109 65 194 -15 q 24 308 24 146 q 73 525 24 431 q 217 673 122 619 q 442 726 311 726 q 683 647 597 726 q 768 406 768 567 q 694 148 768 256 q 488 3 621 40 l 465 -31 m 292 311 q 299 224 292 253 q 326 185 307 196 q 385 174 346 174 q 447 188 424 174 q 485 249 471 203 q 499 388 499 296 q 492 473 499 444 q 466 513 485 501 q 410 524 447 524 q 345 509 369 524 q 306 448 321 494 q 292 311 292 401 z "},"Ǻ":{"ha":913,"x_min":6,"x_max":858,"o":"m 393 1232 q 725 1358 557 1289 l 747 1350 l 792 1181 l 781 1160 q 440 1111 600 1129 l 418 1119 l 393 1232 m 578 0 l 571 143 l 571 149 l 432 151 l 318 146 l 276 0 l 6 0 l 411 886 q 404 942 404 914 q 561 1096 404 1096 q 708 951 708 1096 q 697 882 708 913 l 858 0 l 578 0 m 554 988 q 517 978 528 988 q 507 946 507 969 q 518 909 507 919 q 557 899 529 899 q 594 908 583 899 q 604 942 604 918 q 593 977 604 967 q 554 988 582 988 m 525 626 l 508 626 l 396 343 l 472 342 l 551 343 l 525 626 z "},"ǻ":{"ha":763,"x_min":-31,"x_max":701,"o":"m 443 103 l 333 106 l 243 101 l 215 0 l -31 0 l 281 713 l 586 713 l 701 0 l 446 0 l 443 103 m 428 286 l 408 489 l 393 489 l 313 286 l 369 285 l 428 286 m 692 1163 l 681 1142 q 340 1092 515 1114 l 317 1100 l 292 1214 q 625 1340 454 1269 l 647 1332 l 692 1163 m 461 1076 q 608 933 608 1076 q 568 816 608 857 q 450 775 528 775 q 303 924 303 775 q 461 1076 303 1076 m 454 969 q 417 960 428 969 q 407 928 407 951 q 418 891 407 901 q 457 881 429 881 q 494 890 483 881 q 504 924 504 900 q 493 959 504 949 q 454 969 482 969 z "},"Ǽ":{"ha":1164,"x_min":-68,"x_max":1157,"o":"m 1149 201 l 1107 0 l 503 0 l 514 149 l 518 242 l 271 169 l 269 165 l 203 0 l -68 0 l 425 899 l 1144 899 l 1157 879 l 1115 678 l 908 686 l 804 686 l 796 528 l 1039 601 l 1057 586 l 1058 394 l 785 318 l 779 213 l 906 213 l 1135 221 l 1149 201 m 535 651 l 518 651 l 393 408 l 526 447 l 535 651 m 1006 1107 l 997 1085 q 667 989 814 1026 l 643 994 l 601 1104 q 914 1274 760 1182 l 938 1268 l 1006 1107 z "},"ǽ":{"ha":1006,"x_min":-54,"x_max":990,"o":"m 989 168 l 954 0 l 439 0 l 450 122 l 451 185 l 222 119 l 174 0 l -54 0 l 367 711 l 978 711 l 990 693 l 954 525 l 775 533 l 685 533 l 681 419 l 892 481 l 907 467 l 907 307 l 674 246 l 671 178 l 781 178 l 979 185 l 989 168 m 460 504 l 444 504 l 338 322 l 456 356 l 460 504 m 875 956 l 871 932 q 561 781 674 832 l 538 782 l 476 882 q 756 1104 614 983 l 779 1103 l 875 956 z "},"Ǿ":{"ha":914,"x_min":33,"x_max":908,"o":"m 801 825 q 908 519 908 722 q 851 242 908 364 q 682 52 793 121 q 415 -17 571 -17 q 300 -6 358 -17 l 190 -187 l 56 -122 l 47 -99 l 149 68 q 33 383 33 171 q 91 659 33 539 q 260 847 149 779 q 528 915 372 915 q 650 901 596 915 l 736 1044 l 867 981 l 879 954 l 801 825 m 444 188 q 536 213 499 188 q 595 306 574 238 q 617 503 617 375 q 607 617 617 576 q 572 676 597 658 q 496 694 546 694 q 403 669 440 694 q 345 576 367 644 q 324 379 324 507 q 333 264 324 304 q 369 206 343 224 q 444 188 394 188 m 742 1111 l 733 1089 q 403 993 550 1031 l 379 999 l 338 1108 q 650 1278 496 1186 l 674 1272 l 742 1111 z "},"ǿ":{"ha":789,"x_min":-3,"x_max":785,"o":"m 699 631 q 768 406 768 549 q 719 188 768 283 q 576 39 669 93 q 351 -15 482 -15 q 238 -3 290 -15 l 119 -164 l 0 -82 l -3 -60 l 99 76 q 24 308 24 160 q 73 525 24 431 q 217 673 122 619 q 442 726 311 726 q 561 713 510 726 l 664 853 l 775 772 l 785 749 l 699 631 m 385 174 q 447 188 424 174 q 485 249 471 203 q 499 388 499 296 q 492 473 499 444 q 466 513 485 501 q 410 524 447 524 q 345 509 369 524 q 306 448 321 494 q 292 311 292 401 q 299 224 292 253 q 326 185 307 196 q 385 174 346 174 m 651 958 l 647 935 q 338 783 450 835 l 314 785 l 253 885 q 532 1107 390 986 l 556 1106 l 651 958 z "},"Ș":{"ha":733,"x_min":-4,"x_max":743,"o":"m 486 915 q 743 867 619 915 l 674 642 l 635 625 q 526 682 581 661 q 436 703 471 703 q 381 688 401 703 q 361 653 361 674 q 388 608 361 626 q 475 561 415 589 q 588 501 543 529 q 667 424 633 472 q 700 308 700 376 q 648 146 700 221 q 502 27 596 71 q 289 -17 408 -17 q -4 36 146 -17 l 63 276 l 92 293 q 221 215 151 243 q 340 188 290 188 q 417 238 417 188 q 388 285 417 265 q 300 333 360 306 q 189 393 232 365 q 114 468 146 421 q 82 583 82 515 q 135 751 82 675 q 280 872 188 828 q 486 915 372 915 m 365 -46 q 422 -172 422 -101 q 240 -432 422 -308 l 168 -369 l 165 -353 q 232 -224 232 -296 q 193 -133 232 -172 l 194 -115 q 365 -46 276 -68 z "},"ș":{"ha":650,"x_min":1,"x_max":629,"o":"m 415 726 q 629 689 526 726 l 569 476 l 533 467 q 438 518 489 499 q 358 538 388 538 q 328 515 328 538 q 347 488 328 499 q 407 461 365 476 q 501 418 463 440 q 567 356 539 396 q 596 256 596 317 q 560 124 596 186 q 445 23 524 63 q 249 -17 367 -17 q 1 22 122 -17 l 63 244 l 88 263 q 199 192 138 219 q 301 164 260 164 q 338 190 338 164 q 319 217 338 206 q 260 243 300 228 q 164 286 203 264 q 97 349 125 308 q 68 451 68 389 q 110 590 68 528 q 230 690 151 653 q 415 726 308 726 m 335 -46 q 392 -172 392 -101 q 210 -432 392 -308 l 138 -369 l 135 -353 q 201 -224 201 -296 q 163 -133 201 -172 l 164 -115 q 335 -46 246 -68 z "},"Ț":{"ha":719,"x_min":56,"x_max":778,"o":"m 739 678 l 557 686 l 539 686 l 483 292 l 458 0 l 182 0 l 229 264 l 274 686 l 256 686 l 69 678 l 56 697 l 96 899 l 765 899 l 778 879 l 739 678 m 357 -46 q 414 -172 414 -101 q 232 -432 414 -308 l 160 -369 l 157 -353 q 224 -224 224 -296 q 185 -133 224 -172 l 186 -115 q 357 -46 268 -68 z "},"ț":{"ha":635,"x_min":40,"x_max":660,"o":"m 624 508 l 468 517 l 463 517 l 422 233 l 404 0 l 149 0 l 186 207 l 218 517 l 213 517 l 53 508 l 40 526 l 78 713 l 650 713 l 660 694 l 624 508 m 338 -46 q 394 -172 394 -101 q 213 -432 394 -308 l 140 -369 l 138 -353 q 204 -224 204 -296 q 165 -133 204 -172 l 167 -115 q 338 -46 249 -68 z "},"ȷ":{"ha":479,"x_min":-14,"x_max":426,"o":"m 356 233 l 347 138 q 306 18 338 67 q 212 -67 275 -31 q 40 -137 149 -104 l -14 -6 l -12 14 q 76 65 50 38 q 108 139 103 93 l 118 208 l 150 525 l 40 522 l 29 538 l 65 713 l 426 713 l 356 233 z "},"ˆ":{"ha":542,"x_min":83,"x_max":582,"o":"m 83 836 q 331 1043 161 896 l 378 1043 q 582 836 450 961 l 504 736 l 479 736 q 333 844 376 808 q 161 736 283 808 l 136 736 l 83 836 z "},"ˇ":{"ha":542,"x_min":96,"x_max":594,"o":"m 594 939 q 372 753 547 903 l 347 731 l 300 731 q 96 939 235 806 l 174 1038 l 199 1038 q 342 929 286 976 q 492 1022 386 960 l 517 1038 l 542 1038 l 594 939 z "},"ˉ":{"ha":542,"x_min":132,"x_max":544,"o":"m 532 793 l 149 793 l 132 811 l 144 958 l 528 958 l 544 942 l 532 793 z "},"˘":{"ha":542,"x_min":97,"x_max":589,"o":"m 589 932 q 490 798 557 853 q 328 743 424 743 q 168 799 224 743 q 97 932 113 854 l 163 1017 l 200 1017 q 256 952 217 975 q 344 929 294 929 q 440 952 396 929 q 508 1017 483 975 l 546 1017 l 589 932 z "},"˙":{"ha":542,"x_min":201,"x_max":471,"o":"m 343 1014 q 438 980 404 1014 q 471 883 471 946 q 433 778 471 817 q 332 739 396 739 q 235 773 268 739 q 201 871 201 807 q 240 976 201 938 q 343 1014 278 1014 z "},"˚":{"ha":542,"x_min":189,"x_max":494,"o":"m 347 1049 q 494 906 494 1049 q 454 788 494 829 q 336 747 414 747 q 189 896 189 747 q 347 1049 189 1049 m 340 942 q 303 933 314 942 q 293 900 293 924 q 304 863 293 874 q 343 853 315 853 q 380 863 369 853 q 390 896 390 872 q 379 931 390 921 q 340 942 368 942 z "},"˛":{"ha":542,"x_min":60,"x_max":358,"o":"m 215 -31 q 193 -92 193 -64 q 243 -137 193 -137 q 328 -110 283 -137 l 342 -110 l 358 -210 q 204 -274 275 -274 q 99 -235 138 -274 q 60 -139 60 -197 q 106 -12 60 -74 l 200 114 l 311 114 l 215 -31 z "},"˜":{"ha":542,"x_min":65,"x_max":610,"o":"m 610 931 l 497 774 l 475 765 q 356 793 438 769 q 263 813 275 813 q 221 794 239 813 q 167 732 203 776 l 144 732 l 65 808 l 65 831 l 178 986 l 200 994 q 319 967 238 990 q 413 947 400 947 q 454 965 436 947 q 508 1028 472 983 l 531 1028 l 610 953 l 610 931 z "},"˝":{"ha":542,"x_min":69,"x_max":601,"o":"m 69 789 q 226 1053 136 896 l 243 1058 l 368 972 l 372 953 q 171 732 286 851 l 150 725 l 69 789 m 299 789 q 454 1053 376 915 l 472 1058 l 597 972 l 601 953 q 400 732 515 851 l 379 725 l 299 789 z "},"̃":{"ha":0,"x_min":65,"x_max":610,"o":"m 610 931 l 497 774 l 475 765 q 356 793 438 769 q 263 813 275 813 q 221 794 239 813 q 167 732 203 776 l 144 732 l 65 808 l 65 831 l 178 986 l 200 994 q 319 967 238 990 q 413 947 400 947 q 454 965 436 947 q 508 1028 472 983 l 531 1028 l 610 953 l 610 931 z "},"̣":{"ha":0,"x_min":72,"x_max":342,"o":"m 213 -49 q 308 -83 274 -49 q 342 -181 342 -118 q 304 -285 342 -247 q 201 -324 267 -324 q 106 -290 139 -324 q 72 -193 72 -256 q 110 -87 72 -126 q 213 -49 147 -49 z "},"̦":{"ha":0,"x_min":64,"x_max":321,"o":"m 264 -46 q 321 -172 321 -101 q 139 -432 321 -308 l 67 -369 l 64 -353 q 131 -224 131 -296 q 92 -133 131 -172 l 93 -115 q 264 -46 175 -68 z "},"Δ":{"ha":869,"x_min":-37,"x_max":815,"o":"m -37 0 l 344 899 l 679 899 l 815 0 l -37 0 m 294 200 l 524 200 l 485 651 l 468 651 l 294 200 z "},"Ω":{"ha":1063,"x_min":-25,"x_max":1033,"o":"m 594 915 q 886 826 783 915 q 989 578 989 738 q 950 398 989 485 q 824 211 911 311 l 828 204 l 899 204 l 1021 218 l 1033 201 l 976 -11 l 793 0 l 582 0 l 531 -4 l 519 6 l 538 156 q 661 337 628 250 q 694 525 694 424 q 669 653 694 613 q 571 694 643 694 q 448 637 490 694 q 406 435 406 579 q 423 281 406 346 q 479 156 440 215 l 461 6 l 449 -4 l 400 0 l 142 0 l -12 -8 l -25 8 l 32 214 l 167 203 l 203 204 l 207 211 q 121 489 121 344 q 176 710 121 614 q 339 861 232 807 q 594 915 446 915 z "},"μ":{"ha":725,"x_min":-14,"x_max":703,"o":"m 638 161 l 632 10 l 386 -6 l 408 163 l 390 163 q 251 1 325 74 l 238 -103 l 232 -254 l -14 -269 l 86 489 l 92 646 l 338 661 l 288 276 l 288 269 q 313 244 288 244 q 436 376 353 244 l 451 489 l 457 646 l 703 661 l 638 161 z "},"π":{"ha":1003,"x_min":0,"x_max":989,"o":"m 817 199 q 835 176 817 176 q 874 182 840 176 l 888 168 l 843 28 q 717 -12 760 -12 q 610 22 651 -12 q 568 133 568 56 q 571 169 568 144 l 611 499 l 494 499 l 468 292 l 426 -118 l 164 -118 l 219 264 l 242 497 q 195 474 218 493 q 135 414 172 454 l 94 372 l 68 372 l 0 474 l 3 499 l 175 697 l 203 711 l 814 711 l 976 715 l 989 696 l 947 494 l 861 496 l 817 210 l 817 199 z "},"Ẁ":{"ha":1269,"x_min":94,"x_max":1339,"o":"m 669 0 l 625 325 l 610 325 l 490 0 l 194 0 l 94 899 l 364 899 l 361 760 l 390 279 l 406 279 l 560 690 l 538 899 l 819 899 l 818 731 l 857 279 l 872 279 l 1039 743 l 1083 899 l 1339 899 l 964 0 l 669 0 m 594 1274 q 907 1104 726 1196 l 865 994 l 842 989 q 511 1085 694 1026 l 503 1107 l 571 1268 l 594 1274 z "},"ẁ":{"ha":1083,"x_min":76,"x_max":1126,"o":"m 550 0 l 519 210 l 504 210 l 432 0 l 154 0 l 76 713 l 329 713 l 325 589 l 336 260 l 351 260 l 458 551 l 443 713 l 707 713 l 706 561 l 726 260 l 742 260 l 850 574 l 888 713 l 1126 713 l 828 0 l 550 0 m 489 1104 q 768 882 631 983 l 707 782 l 683 781 q 374 932 571 832 l 369 956 l 465 1103 l 489 1104 z "},"Ẃ":{"ha":1269,"x_min":94,"x_max":1339,"o":"m 669 0 l 625 325 l 610 325 l 490 0 l 194 0 l 94 899 l 364 899 l 361 760 l 390 279 l 406 279 l 560 690 l 538 899 l 819 899 l 818 731 l 857 279 l 872 279 l 1039 743 l 1083 899 l 1339 899 l 964 0 l 669 0 m 911 1107 l 903 1085 q 572 989 719 1026 l 549 994 l 507 1104 q 819 1274 665 1182 l 843 1268 l 911 1107 z "},"ẃ":{"ha":1083,"x_min":76,"x_max":1126,"o":"m 550 0 l 519 210 l 504 210 l 432 0 l 154 0 l 76 713 l 329 713 l 325 589 l 336 260 l 351 260 l 458 551 l 443 713 l 707 713 l 706 561 l 726 260 l 742 260 l 850 574 l 888 713 l 1126 713 l 828 0 l 550 0 m 794 956 l 790 932 q 481 781 593 832 l 457 782 l 396 882 q 675 1104 533 983 l 699 1103 l 794 956 z "},"Ẅ":{"ha":1269,"x_min":94,"x_max":1339,"o":"m 669 0 l 625 325 l 610 325 l 490 0 l 194 0 l 94 899 l 364 899 l 361 760 l 390 279 l 406 279 l 560 690 l 538 899 l 819 899 l 818 731 l 857 279 l 872 279 l 1039 743 l 1083 899 l 1339 899 l 964 0 l 669 0 m 574 1236 q 656 1207 626 1236 q 686 1124 686 1178 q 653 1031 686 1065 q 564 997 621 997 q 480 1027 508 997 q 451 1113 451 1057 q 484 1203 451 1171 q 574 1236 517 1236 m 843 1236 q 925 1206 896 1236 q 954 1124 954 1176 q 922 1031 954 1065 q 833 997 889 997 q 749 1027 778 997 q 719 1113 719 1057 q 753 1203 719 1171 q 843 1236 786 1236 z "},"ẅ":{"ha":1083,"x_min":76,"x_max":1126,"o":"m 550 0 l 519 210 l 504 210 l 432 0 l 154 0 l 76 713 l 329 713 l 325 589 l 336 260 l 351 260 l 458 551 l 443 713 l 707 713 l 706 561 l 726 260 l 742 260 l 850 574 l 888 713 l 1126 713 l 828 0 l 550 0 m 464 1050 q 547 1021 517 1050 q 576 938 576 992 q 544 845 576 879 q 454 811 511 811 q 370 841 399 811 q 342 926 342 871 q 374 1017 342 985 q 464 1050 407 1050 m 733 1050 q 815 1020 786 1050 q 844 938 844 990 q 812 845 844 879 q 724 811 779 811 q 639 841 668 811 q 610 926 610 871 q 643 1017 610 985 q 733 1050 676 1050 z "},"ẞ":{"ha":988,"x_min":26,"x_max":971,"o":"m 574 915 q 763 891 675 915 q 960 814 850 867 l 967 782 l 776 544 q 894 446 860 478 q 950 375 929 414 q 971 285 971 336 q 919 118 971 186 q 783 17 868 50 q 597 -17 699 -17 q 350 36 464 -17 l 418 276 l 449 293 q 550 217 499 244 q 639 189 601 189 q 690 229 690 189 q 637 301 690 257 q 446 428 583 346 l 443 461 l 614 681 q 519 697 568 697 q 412 665 446 697 q 369 561 378 633 l 329 292 l 304 0 l 26 0 l 74 264 l 104 561 q 242 820 121 725 q 574 915 364 915 z "},"Ạ":{"ha":869,"x_min":-37,"x_max":815,"o":"m 535 0 l 529 149 l 529 154 l 392 157 l 276 151 l 233 0 l -37 0 l 346 899 l 681 899 l 815 0 l 535 0 m 486 651 l 469 651 l 354 356 l 433 354 l 511 356 l 486 651 m 389 -49 q 484 -83 450 -49 q 518 -181 518 -118 q 481 -285 518 -247 q 378 -324 443 -324 q 282 -290 315 -324 q 249 -193 249 -256 q 286 -87 249 -126 q 389 -49 324 -49 z "},"ạ":{"ha":763,"x_min":-31,"x_max":701,"o":"m 443 103 l 333 106 l 243 101 l 215 0 l -31 0 l 281 713 l 586 713 l 701 0 l 446 0 l 443 103 m 428 286 l 408 489 l 393 489 l 313 286 l 369 285 l 428 286 m 332 -49 q 427 -83 393 -49 q 461 -181 461 -118 q 424 -285 461 -247 q 321 -324 386 -324 q 225 -290 258 -324 q 192 -193 192 -256 q 229 -87 192 -126 q 332 -49 267 -49 z "},"Ả":{"ha":869,"x_min":-37,"x_max":815,"o":"m 535 0 l 529 149 l 529 154 l 392 157 l 276 151 l 233 0 l -37 0 l 346 899 l 681 899 l 815 0 l 535 0 m 486 651 l 469 651 l 354 356 l 433 354 l 511 356 l 486 651 m 494 1315 q 594 1282 554 1315 q 633 1194 633 1249 q 615 1138 633 1164 q 549 1067 597 1111 l 586 1007 l 497 953 l 422 1064 q 477 1118 457 1089 q 497 1169 497 1147 q 456 1203 497 1203 q 358 1167 406 1203 l 318 1232 q 401 1293 354 1271 q 494 1315 447 1315 z "},"ả":{"ha":763,"x_min":-31,"x_max":701,"o":"m 443 103 l 333 106 l 243 101 l 215 0 l -31 0 l 281 713 l 586 713 l 701 0 l 446 0 l 443 103 m 428 286 l 408 489 l 393 489 l 313 286 l 369 285 l 428 286 m 414 1129 q 513 1096 474 1129 q 553 1008 553 1063 q 535 951 553 978 q 468 881 517 925 l 506 821 l 417 767 l 342 878 q 397 932 376 903 q 417 983 417 961 q 375 1017 417 1017 q 278 981 325 1017 l 238 1046 q 320 1107 274 1085 q 414 1129 367 1129 z "},"Ấ":{"ha":869,"x_min":-37,"x_max":886,"o":"m 535 0 l 529 149 l 529 154 l 392 157 l 276 151 l 233 0 l -37 0 l 346 899 l 681 899 l 815 0 l 535 0 m 486 651 l 469 651 l 354 356 l 433 354 l 511 356 l 486 651 m 886 1385 l 733 1179 l 718 1179 l 631 1243 l 728 1450 l 744 1460 l 879 1403 l 886 1385 m 568 1243 q 772 1079 646 1168 l 714 974 l 689 974 l 539 1057 q 450 1015 511 1043 l 361 974 l 336 974 l 301 1079 q 521 1243 439 1172 l 568 1243 z "},"ấ":{"ha":763,"x_min":-31,"x_max":806,"o":"m 443 103 l 333 106 l 243 101 l 215 0 l -31 0 l 281 713 l 586 713 l 701 0 l 446 0 l 443 103 m 428 286 l 408 489 l 393 489 l 313 286 l 369 285 l 428 286 m 806 1199 l 653 993 l 638 993 l 550 1057 l 647 1264 l 664 1274 l 799 1217 l 806 1199 m 488 1057 q 692 893 565 982 l 633 788 l 608 788 l 458 871 q 369 829 431 857 l 281 788 l 256 788 l 221 893 q 440 1057 358 986 l 488 1057 z "},"Ầ":{"ha":869,"x_min":-37,"x_max":815,"o":"m 535 0 l 529 149 l 529 154 l 392 157 l 276 151 l 233 0 l -37 0 l 346 899 l 681 899 l 815 0 l 535 0 m 486 651 l 469 651 l 354 356 l 433 354 l 511 356 l 486 651 m 792 1243 l 704 1179 l 689 1179 l 536 1385 l 543 1403 l 679 1460 l 694 1450 l 792 1243 m 558 1242 q 764 1078 639 1165 l 704 972 l 679 972 l 529 1056 q 440 1014 501 1042 l 351 972 l 326 972 l 292 1078 q 511 1242 429 1171 l 558 1242 z "},"ầ":{"ha":763,"x_min":-31,"x_max":711,"o":"m 443 103 l 333 106 l 243 101 l 215 0 l -31 0 l 281 713 l 586 713 l 701 0 l 446 0 l 443 103 m 428 286 l 408 489 l 393 489 l 313 286 l 369 285 l 428 286 m 711 1057 l 624 993 l 608 993 l 456 1199 l 463 1217 l 599 1274 l 614 1264 l 711 1057 m 478 1056 q 683 892 558 979 l 624 786 l 599 786 l 449 869 q 360 828 421 856 l 271 786 l 246 786 l 211 892 q 431 1056 349 985 l 478 1056 z "},"Ẩ":{"ha":869,"x_min":-37,"x_max":815,"o":"m 535 0 l 529 149 l 529 154 l 392 157 l 276 151 l 233 0 l -37 0 l 346 899 l 681 899 l 815 0 l 535 0 m 486 651 l 469 651 l 354 356 l 433 354 l 511 356 l 486 651 m 679 1528 q 774 1496 736 1528 q 811 1411 811 1464 q 794 1358 811 1383 q 731 1290 776 1332 l 765 1233 l 681 1182 l 610 1288 q 661 1338 642 1310 q 681 1388 681 1365 q 642 1419 681 1419 q 549 1385 594 1419 l 511 1447 q 590 1506 544 1485 q 679 1528 635 1528 m 560 1243 q 765 1079 640 1167 l 706 974 l 681 974 l 531 1057 q 442 1015 503 1043 l 353 974 l 328 974 l 293 1079 q 513 1243 431 1172 l 560 1243 z "},"ẩ":{"ha":763,"x_min":-31,"x_max":731,"o":"m 443 103 l 333 106 l 243 101 l 215 0 l -31 0 l 281 713 l 586 713 l 701 0 l 446 0 l 443 103 m 428 286 l 408 489 l 393 489 l 313 286 l 369 285 l 428 286 m 599 1342 q 693 1310 656 1342 q 731 1225 731 1278 q 713 1172 731 1197 q 650 1104 696 1146 l 685 1047 l 600 996 l 529 1101 q 581 1151 561 1124 q 600 1201 600 1179 q 561 1233 600 1233 q 468 1199 514 1233 l 431 1261 q 509 1320 464 1299 q 599 1342 554 1342 m 479 1057 q 685 893 560 981 l 625 788 l 600 788 l 450 871 q 361 829 422 857 l 272 788 l 247 788 l 213 893 q 432 1057 350 986 l 479 1057 z "},"Ẫ":{"ha":869,"x_min":-37,"x_max":828,"o":"m 535 0 l 529 149 l 529 154 l 392 157 l 276 151 l 233 0 l -37 0 l 346 899 l 681 899 l 815 0 l 535 0 m 486 651 l 469 651 l 354 356 l 433 354 l 511 356 l 486 651 m 828 1410 l 726 1268 l 706 1261 q 596 1286 674 1265 q 513 1304 532 1304 q 476 1290 493 1304 q 445 1256 460 1275 q 425 1231 431 1238 l 406 1231 l 333 1299 l 333 1319 l 436 1461 l 456 1469 q 561 1444 486 1465 q 649 1426 631 1426 q 688 1443 671 1426 q 736 1500 704 1460 l 757 1500 l 828 1431 l 828 1410 m 569 1244 q 774 1081 647 1169 l 715 975 l 690 975 l 540 1058 q 451 1017 513 1044 l 363 975 l 338 975 l 303 1081 q 522 1244 440 1174 l 569 1244 z "},"ẫ":{"ha":763,"x_min":-31,"x_max":747,"o":"m 443 103 l 333 106 l 243 101 l 215 0 l -31 0 l 281 713 l 586 713 l 701 0 l 446 0 l 443 103 m 428 286 l 408 489 l 393 489 l 313 286 l 369 285 l 428 286 m 747 1224 l 646 1082 l 625 1075 q 515 1100 593 1079 q 432 1118 451 1118 q 396 1103 413 1118 q 365 1070 379 1089 q 344 1044 350 1051 l 325 1044 l 253 1113 l 253 1133 l 356 1275 l 375 1283 q 481 1258 406 1279 q 568 1240 550 1240 q 607 1257 590 1240 q 656 1314 624 1274 l 676 1314 l 747 1244 l 747 1224 m 489 1058 q 693 894 567 983 l 635 789 l 610 789 l 460 872 q 371 831 432 858 l 282 789 l 257 789 l 222 894 q 442 1058 360 988 l 489 1058 z "},"Ậ":{"ha":869,"x_min":-36,"x_max":817,"o":"m 300 1106 q 519 1269 438 1199 l 567 1269 q 772 1106 647 1193 l 713 1000 l 688 1000 l 538 1083 q 449 1042 510 1069 l 360 1000 l 335 1000 l 300 1106 m 536 0 l 531 149 l 531 154 l 390 157 l 278 151 l 235 0 l -36 0 l 347 899 l 682 899 l 817 0 l 536 0 m 488 651 l 471 651 l 356 356 l 432 354 l 513 356 l 488 651 m 389 -49 q 484 -83 450 -49 q 518 -181 518 -118 q 481 -285 518 -247 q 378 -324 443 -324 q 282 -290 315 -324 q 249 -193 249 -256 q 286 -87 249 -126 q 389 -49 324 -49 z "},"ậ":{"ha":763,"x_min":-29,"x_max":703,"o":"m 204 893 q 451 1100 282 953 l 499 1100 q 703 893 571 1018 l 625 793 l 600 793 q 454 901 497 865 q 282 793 404 865 l 257 793 l 204 893 m 703 0 l 447 0 l 444 103 l 332 106 l 244 101 l 217 0 l -29 0 l 282 713 l 588 713 l 703 0 m 429 286 l 410 489 l 394 489 l 314 286 l 368 285 l 429 286 m 332 -49 q 427 -83 393 -49 q 461 -181 461 -118 q 424 -285 461 -247 q 321 -324 386 -324 q 225 -290 258 -324 q 192 -193 192 -256 q 229 -87 192 -126 q 332 -49 267 -49 z "},"Ắ":{"ha":869,"x_min":-37,"x_max":815,"o":"m 535 0 l 529 149 l 529 154 l 392 157 l 276 151 l 233 0 l -37 0 l 346 899 l 681 899 l 815 0 l 535 0 m 486 651 l 469 651 l 354 356 l 433 354 l 511 356 l 486 651 m 733 1367 q 556 1201 647 1281 l 535 1196 l 454 1257 q 589 1460 546 1390 l 607 1465 l 731 1386 l 733 1367 m 786 1139 q 532 967 707 967 q 379 1011 442 967 q 293 1139 317 1056 l 360 1221 l 397 1221 q 456 1169 417 1186 q 546 1151 496 1151 q 704 1221 653 1151 l 742 1221 l 786 1139 z "},"ắ":{"ha":763,"x_min":-31,"x_max":706,"o":"m 443 103 l 333 106 l 243 101 l 215 0 l -31 0 l 281 713 l 586 713 l 701 0 l 446 0 l 443 103 m 428 286 l 408 489 l 393 489 l 313 286 l 369 285 l 428 286 m 653 1181 q 475 1015 567 1094 l 454 1010 l 374 1071 q 508 1274 465 1204 l 526 1279 l 650 1200 l 653 1181 m 706 953 q 451 781 626 781 q 299 825 361 781 q 213 953 236 869 l 279 1035 l 317 1035 q 376 983 336 1000 q 465 965 415 965 q 624 1035 572 965 l 661 1035 l 706 953 z "},"Ằ":{"ha":869,"x_min":-37,"x_max":815,"o":"m 535 0 l 529 149 l 529 154 l 392 157 l 276 151 l 233 0 l -37 0 l 346 899 l 681 899 l 815 0 l 535 0 m 486 651 l 469 651 l 354 356 l 433 354 l 511 356 l 486 651 m 531 1201 q 351 1367 444 1275 l 356 1386 l 479 1465 l 497 1460 q 632 1257 540 1390 l 551 1196 l 531 1201 m 786 1139 q 532 967 707 967 q 379 1011 442 967 q 293 1139 317 1056 l 360 1221 l 397 1221 q 456 1169 417 1186 q 546 1151 496 1151 q 704 1221 653 1151 l 742 1221 l 786 1139 z "},"ằ":{"ha":763,"x_min":-31,"x_max":706,"o":"m 443 103 l 333 106 l 243 101 l 215 0 l -31 0 l 281 713 l 586 713 l 701 0 l 446 0 l 443 103 m 428 286 l 408 489 l 393 489 l 313 286 l 369 285 l 428 286 m 450 1015 q 271 1181 364 1089 l 275 1200 l 399 1279 l 417 1274 q 551 1071 460 1204 l 471 1010 l 450 1015 m 706 953 q 451 781 626 781 q 299 825 361 781 q 213 953 236 869 l 279 1035 l 317 1035 q 376 983 336 1000 q 465 965 415 965 q 624 1035 572 965 l 661 1035 l 706 953 z "},"Ẳ":{"ha":869,"x_min":-37,"x_max":815,"o":"m 535 0 l 529 149 l 529 154 l 392 157 l 276 151 l 233 0 l -37 0 l 346 899 l 681 899 l 815 0 l 535 0 m 486 651 l 469 651 l 354 356 l 433 354 l 511 356 l 486 651 m 529 1549 q 628 1515 589 1549 q 668 1426 668 1481 q 650 1369 668 1396 q 583 1299 632 1343 l 621 1239 l 532 1186 l 457 1296 q 512 1350 492 1321 q 532 1401 532 1379 q 490 1435 532 1435 q 393 1399 440 1435 l 353 1464 q 435 1526 389 1503 q 529 1549 482 1549 m 786 1139 q 532 967 707 967 q 379 1011 442 967 q 293 1139 317 1056 l 360 1221 l 397 1221 q 456 1169 417 1186 q 546 1151 496 1151 q 704 1221 653 1151 l 742 1221 l 786 1139 z "},"ẳ":{"ha":763,"x_min":-31,"x_max":706,"o":"m 443 103 l 333 106 l 243 101 l 215 0 l -31 0 l 281 713 l 586 713 l 701 0 l 446 0 l 443 103 m 428 286 l 408 489 l 393 489 l 313 286 l 369 285 l 428 286 m 449 1363 q 548 1328 508 1363 q 588 1240 588 1294 q 569 1183 588 1210 q 503 1113 551 1157 l 540 1053 l 451 1000 l 376 1110 q 431 1164 411 1135 q 451 1215 451 1193 q 410 1249 451 1249 q 313 1213 360 1249 l 272 1278 q 355 1340 308 1317 q 449 1363 401 1363 m 706 953 q 451 781 626 781 q 299 825 361 781 q 213 953 236 869 l 279 1035 l 317 1035 q 376 983 336 1000 q 465 965 415 965 q 624 1035 572 965 l 661 1035 l 706 953 z "},"Ẵ":{"ha":869,"x_min":-37,"x_max":831,"o":"m 535 0 l 529 149 l 529 154 l 392 157 l 276 151 l 233 0 l -37 0 l 346 899 l 681 899 l 815 0 l 535 0 m 486 651 l 469 651 l 354 356 l 433 354 l 511 356 l 486 651 m 831 1417 l 729 1274 l 708 1267 q 599 1293 668 1272 q 515 1311 532 1311 q 479 1297 496 1311 q 448 1263 463 1282 q 428 1238 433 1244 l 408 1238 l 336 1306 l 336 1326 l 439 1468 l 458 1476 q 564 1451 489 1472 q 651 1433 633 1433 q 690 1450 674 1433 q 739 1507 707 1467 l 760 1507 l 831 1438 l 831 1417 m 769 1125 q 532 965 694 965 q 390 1007 449 965 q 310 1125 332 1049 l 372 1201 l 407 1201 q 463 1153 425 1169 q 546 1138 500 1138 q 693 1201 644 1138 l 728 1201 l 769 1125 z "},"ẵ":{"ha":763,"x_min":-31,"x_max":750,"o":"m 443 103 l 333 106 l 243 101 l 215 0 l -31 0 l 281 713 l 586 713 l 701 0 l 446 0 l 443 103 m 428 286 l 408 489 l 393 489 l 313 286 l 369 285 l 428 286 m 750 1231 l 649 1088 l 628 1081 q 518 1107 588 1086 q 435 1125 451 1125 q 399 1110 415 1125 q 367 1077 382 1096 q 347 1051 353 1058 l 328 1051 l 256 1119 l 256 1140 l 358 1282 l 378 1290 q 483 1265 408 1286 q 571 1247 553 1247 q 610 1264 593 1247 q 658 1321 626 1281 l 679 1321 l 750 1251 l 750 1231 m 689 939 q 451 779 614 779 q 310 821 368 779 q 229 939 251 863 l 292 1015 l 326 1015 q 382 967 344 983 q 465 951 419 951 q 613 1015 564 951 l 647 1015 l 689 939 z "},"Ặ":{"ha":869,"x_min":-36,"x_max":817,"o":"m 526 994 q 374 1039 436 994 q 288 1167 311 1083 l 354 1249 l 392 1249 q 451 1197 411 1214 q 540 1179 490 1179 q 699 1249 647 1179 l 736 1249 l 781 1167 q 526 994 701 994 m 536 0 l 531 149 l 531 154 l 390 157 l 278 151 l 235 0 l -36 0 l 347 899 l 682 899 l 817 0 l 536 0 m 488 651 l 471 651 l 356 356 l 432 354 l 513 356 l 488 651 m 389 -49 q 484 -83 450 -49 q 518 -181 518 -118 q 481 -285 518 -247 q 378 -324 443 -324 q 282 -290 315 -324 q 249 -193 249 -256 q 286 -87 249 -126 q 389 -49 324 -49 z "},"ặ":{"ha":763,"x_min":-29,"x_max":703,"o":"m 436 800 q 276 856 332 800 q 206 989 221 911 l 271 1074 l 308 1074 q 364 1009 325 1032 q 453 986 403 986 q 548 1009 504 986 q 617 1074 592 1032 l 654 1074 l 697 989 q 599 855 665 910 q 436 800 532 800 m -29 0 l 282 713 l 588 713 l 703 0 l 447 0 l 444 103 l 332 106 l 244 101 l 217 0 l -29 0 m 314 286 l 368 285 l 429 286 l 410 489 l 394 489 l 314 286 m 332 -49 q 427 -83 393 -49 q 461 -181 461 -118 q 424 -285 461 -247 q 321 -324 386 -324 q 225 -290 258 -324 q 192 -193 192 -256 q 229 -87 192 -126 q 332 -49 267 -49 z "},"Ẹ":{"ha":750,"x_min":43,"x_max":810,"o":"m 386 558 l 522 558 l 668 563 l 681 543 l 639 340 l 479 344 l 354 344 l 346 292 l 339 213 l 472 213 l 704 221 l 717 201 l 675 0 l 43 0 l 89 264 l 154 899 l 797 899 l 810 879 l 767 678 l 547 686 l 404 686 l 386 558 m 397 -49 q 492 -83 458 -49 q 526 -181 526 -118 q 489 -285 526 -247 q 386 -324 451 -324 q 290 -290 324 -324 q 257 -193 257 -256 q 294 -87 257 -126 q 397 -49 332 -49 z "},"ẹ":{"ha":667,"x_min":33,"x_max":693,"o":"m 342 454 l 453 454 l 575 458 l 586 440 l 549 253 l 414 257 l 313 257 l 308 233 l 306 196 l 415 196 l 610 203 l 622 186 l 583 0 l 33 0 l 72 207 l 121 713 l 681 713 l 693 694 l 654 508 l 469 517 l 351 517 l 342 454 m 317 -49 q 412 -83 378 -49 q 446 -181 446 -118 q 408 -285 446 -247 q 306 -324 371 -324 q 210 -290 243 -324 q 176 -193 176 -256 q 214 -87 176 -126 q 317 -49 251 -49 z "},"Ẻ":{"ha":750,"x_min":43,"x_max":810,"o":"m 386 558 l 522 558 l 668 563 l 681 543 l 639 340 l 479 344 l 354 344 l 346 292 l 339 213 l 472 213 l 704 221 l 717 201 l 675 0 l 43 0 l 89 264 l 154 899 l 797 899 l 810 879 l 767 678 l 547 686 l 404 686 l 386 558 m 456 1315 q 555 1282 515 1315 q 594 1194 594 1249 q 576 1138 594 1164 q 510 1067 558 1111 l 547 1007 l 458 953 l 383 1064 q 438 1118 418 1089 q 458 1169 458 1147 q 417 1203 458 1203 q 319 1167 367 1203 l 279 1232 q 362 1293 315 1271 q 456 1315 408 1315 z "},"ẻ":{"ha":667,"x_min":33,"x_max":693,"o":"m 342 454 l 453 454 l 575 458 l 586 440 l 549 253 l 414 257 l 313 257 l 308 233 l 306 196 l 415 196 l 610 203 l 622 186 l 583 0 l 33 0 l 72 207 l 121 713 l 681 713 l 693 694 l 654 508 l 469 517 l 351 517 l 342 454 m 364 1129 q 463 1096 424 1129 q 503 1008 503 1063 q 485 951 503 978 q 418 881 467 925 l 456 821 l 367 767 l 292 878 q 347 932 326 903 q 367 983 367 961 q 325 1017 367 1017 q 228 981 275 1017 l 188 1046 q 270 1107 224 1085 q 364 1129 317 1129 z "},"Ẽ":{"ha":750,"x_min":43,"x_max":810,"o":"m 386 558 l 522 558 l 668 563 l 681 543 l 639 340 l 479 344 l 354 344 l 346 292 l 339 213 l 472 213 l 704 221 l 717 201 l 675 0 l 43 0 l 89 264 l 154 899 l 797 899 l 810 879 l 767 678 l 547 686 l 404 686 l 386 558 m 768 1174 l 656 1017 l 633 1008 q 514 1036 596 1013 q 421 1056 433 1056 q 379 1038 397 1056 q 325 975 361 1019 l 303 975 l 224 1051 l 224 1074 l 336 1229 l 358 1238 q 478 1210 396 1233 q 571 1190 558 1190 q 613 1208 594 1190 q 667 1271 631 1226 l 689 1271 l 768 1196 l 768 1174 z "},"ẽ":{"ha":667,"x_min":33,"x_max":693,"o":"m 342 454 l 453 454 l 575 458 l 586 440 l 549 253 l 414 257 l 313 257 l 308 233 l 306 196 l 415 196 l 610 203 l 622 186 l 583 0 l 33 0 l 72 207 l 121 713 l 681 713 l 693 694 l 654 508 l 469 517 l 351 517 l 342 454 m 676 988 l 564 831 l 542 822 q 422 850 504 826 q 329 869 342 869 q 288 851 306 869 q 233 789 269 833 l 211 789 l 132 865 l 132 888 l 244 1043 l 267 1051 q 386 1024 304 1047 q 479 1004 467 1004 q 521 1022 503 1004 q 575 1085 539 1040 l 597 1085 l 676 1010 l 676 988 z "},"Ế":{"ha":750,"x_min":43,"x_max":847,"o":"m 386 558 l 522 558 l 668 563 l 681 543 l 639 340 l 479 344 l 354 344 l 346 292 l 339 213 l 472 213 l 704 221 l 717 201 l 675 0 l 43 0 l 89 264 l 154 899 l 797 899 l 810 879 l 767 678 l 547 686 l 404 686 l 386 558 m 847 1385 l 694 1179 l 679 1179 l 592 1243 l 689 1450 l 706 1460 l 840 1403 l 847 1385 m 529 1243 q 733 1079 607 1168 l 675 974 l 650 974 l 500 1057 q 411 1015 472 1043 l 322 974 l 297 974 l 263 1079 q 482 1243 400 1172 l 529 1243 z "},"ế":{"ha":667,"x_min":33,"x_max":756,"o":"m 342 454 l 453 454 l 575 458 l 586 440 l 549 253 l 414 257 l 313 257 l 308 233 l 306 196 l 415 196 l 610 203 l 622 186 l 583 0 l 33 0 l 72 207 l 121 713 l 681 713 l 693 694 l 654 508 l 469 517 l 351 517 l 342 454 m 756 1199 l 603 993 l 588 993 l 500 1057 l 597 1264 l 614 1274 l 749 1217 l 756 1199 m 438 1057 q 642 893 515 982 l 583 788 l 558 788 l 408 871 q 319 829 381 857 l 231 788 l 206 788 l 171 893 q 390 1057 308 986 l 438 1057 z "},"Ề":{"ha":750,"x_min":43,"x_max":810,"o":"m 386 558 l 522 558 l 668 563 l 681 543 l 639 340 l 479 344 l 354 344 l 346 292 l 339 213 l 472 213 l 704 221 l 717 201 l 675 0 l 43 0 l 89 264 l 154 899 l 797 899 l 810 879 l 767 678 l 547 686 l 404 686 l 386 558 m 753 1243 l 665 1179 l 650 1179 l 497 1385 l 504 1403 l 640 1460 l 656 1450 l 753 1243 m 519 1242 q 725 1078 600 1165 l 665 972 l 640 972 l 490 1056 q 401 1014 463 1042 l 313 972 l 288 972 l 253 1078 q 472 1242 390 1171 l 519 1242 z "},"ề":{"ha":667,"x_min":33,"x_max":693,"o":"m 342 454 l 453 454 l 575 458 l 586 440 l 549 253 l 414 257 l 313 257 l 308 233 l 306 196 l 415 196 l 610 203 l 622 186 l 583 0 l 33 0 l 72 207 l 121 713 l 681 713 l 693 694 l 654 508 l 469 517 l 351 517 l 342 454 m 661 1057 l 574 993 l 558 993 l 406 1199 l 413 1217 l 549 1274 l 564 1264 l 661 1057 m 428 1056 q 633 892 508 979 l 574 786 l 549 786 l 399 869 q 310 828 371 856 l 221 786 l 196 786 l 161 892 q 381 1056 299 985 l 428 1056 z "},"Ể":{"ha":750,"x_min":43,"x_max":810,"o":"m 386 558 l 522 558 l 668 563 l 681 543 l 639 340 l 479 344 l 354 344 l 346 292 l 339 213 l 472 213 l 704 221 l 717 201 l 675 0 l 43 0 l 89 264 l 154 899 l 797 899 l 810 879 l 767 678 l 547 686 l 404 686 l 386 558 m 640 1528 q 735 1496 697 1528 q 772 1411 772 1464 q 755 1358 772 1383 q 692 1290 738 1332 l 726 1233 l 642 1182 l 571 1288 q 622 1338 603 1310 q 642 1388 642 1365 q 603 1419 642 1419 q 510 1385 556 1419 l 472 1447 q 551 1506 506 1485 q 640 1528 596 1528 m 521 1243 q 726 1079 601 1167 l 667 974 l 642 974 l 492 1057 q 403 1015 464 1043 l 314 974 l 289 974 l 254 1079 q 474 1243 392 1172 l 521 1243 z "},"ể":{"ha":667,"x_min":33,"x_max":693,"o":"m 342 454 l 453 454 l 575 458 l 586 440 l 549 253 l 414 257 l 313 257 l 308 233 l 306 196 l 415 196 l 610 203 l 622 186 l 583 0 l 33 0 l 72 207 l 121 713 l 681 713 l 693 694 l 654 508 l 469 517 l 351 517 l 342 454 m 549 1342 q 643 1310 606 1342 q 681 1225 681 1278 q 663 1172 681 1197 q 600 1104 646 1146 l 635 1047 l 550 996 l 479 1101 q 531 1151 511 1124 q 550 1201 550 1179 q 511 1233 550 1233 q 418 1199 464 1233 l 381 1261 q 459 1320 414 1299 q 549 1342 504 1342 m 429 1057 q 635 893 510 981 l 575 788 l 550 788 l 400 871 q 311 829 372 857 l 222 788 l 197 788 l 163 893 q 382 1057 300 986 l 429 1057 z "},"Ễ":{"ha":750,"x_min":43,"x_max":810,"o":"m 386 558 l 522 558 l 668 563 l 681 543 l 639 340 l 479 344 l 354 344 l 346 292 l 339 213 l 472 213 l 704 221 l 717 201 l 675 0 l 43 0 l 89 264 l 154 899 l 797 899 l 810 879 l 767 678 l 547 686 l 404 686 l 386 558 m 753 1243 l 665 1179 l 650 1179 l 497 1385 l 504 1403 l 640 1460 l 656 1450 l 753 1243 m 519 1242 q 725 1078 600 1165 l 665 972 l 640 972 l 490 1056 q 401 1014 463 1042 l 313 972 l 288 972 l 253 1078 q 472 1242 390 1171 l 519 1242 z "},"ễ":{"ha":667,"x_min":33,"x_max":697,"o":"m 342 454 l 453 454 l 575 458 l 586 440 l 549 253 l 414 257 l 313 257 l 308 233 l 306 196 l 415 196 l 610 203 l 622 186 l 583 0 l 33 0 l 72 207 l 121 713 l 681 713 l 693 694 l 654 508 l 469 517 l 351 517 l 342 454 m 697 1224 l 596 1082 l 575 1075 q 465 1100 543 1079 q 382 1118 401 1118 q 346 1103 363 1118 q 315 1070 329 1089 q 294 1044 300 1051 l 275 1044 l 203 1113 l 203 1133 l 306 1275 l 325 1283 q 431 1258 356 1279 q 518 1240 500 1240 q 557 1257 540 1240 q 606 1314 574 1274 l 626 1314 l 697 1244 l 697 1224 m 439 1058 q 643 894 517 983 l 585 789 l 560 789 l 410 872 q 321 831 382 858 l 232 789 l 207 789 l 172 894 q 392 1058 310 988 l 439 1058 z "},"Ệ":{"ha":750,"x_min":43,"x_max":810,"o":"m 386 558 l 522 558 l 668 563 l 681 543 l 639 340 l 479 344 l 354 344 l 346 292 l 339 213 l 472 213 l 704 221 l 717 201 l 675 0 l 43 0 l 89 264 l 154 899 l 797 899 l 810 879 l 767 678 l 547 686 l 404 686 l 386 558 m 397 -49 q 492 -83 458 -49 q 526 -181 526 -118 q 489 -285 526 -247 q 386 -324 451 -324 q 290 -290 324 -324 q 257 -193 257 -256 q 294 -87 257 -126 q 397 -49 332 -49 m 261 1106 q 481 1269 399 1199 l 528 1269 q 733 1106 608 1193 l 674 1000 l 649 1000 l 499 1083 q 410 1042 471 1069 l 321 1000 l 296 1000 l 261 1106 z "},"ệ":{"ha":667,"x_min":33,"x_max":693,"o":"m 342 454 l 453 454 l 575 458 l 586 440 l 549 253 l 414 257 l 313 257 l 308 233 l 306 196 l 415 196 l 610 203 l 622 186 l 583 0 l 33 0 l 72 207 l 121 713 l 681 713 l 693 694 l 654 508 l 469 517 l 351 517 l 342 454 m 317 -49 q 412 -83 378 -49 q 446 -181 446 -118 q 408 -285 446 -247 q 306 -324 371 -324 q 210 -290 243 -324 q 176 -193 176 -256 q 214 -87 176 -126 q 317 -49 251 -49 m 156 893 q 403 1100 233 953 l 450 1100 q 654 893 522 1018 l 576 793 l 551 793 q 406 901 449 865 q 233 793 356 865 l 208 793 l 156 893 z "},"Ỉ":{"ha":454,"x_min":43,"x_max":436,"o":"m 321 0 l 43 0 l 90 264 l 154 899 l 436 899 l 346 292 l 321 0 m 281 1315 q 380 1282 340 1315 q 419 1194 419 1249 q 401 1138 419 1164 q 335 1067 383 1111 l 372 1007 l 283 953 l 208 1064 q 263 1118 243 1089 q 283 1169 283 1147 q 242 1203 283 1203 q 144 1167 192 1203 l 104 1232 q 187 1293 140 1271 q 281 1315 233 1315 z "},"ỉ":{"ha":422,"x_min":35,"x_max":383,"o":"m 292 0 l 35 0 l 72 207 l 122 713 l 383 713 l 308 233 l 292 0 m 232 1129 q 331 1096 292 1129 q 371 1008 371 1063 q 353 951 371 978 q 286 881 335 925 l 324 821 l 235 767 l 160 878 q 215 932 194 903 q 235 983 235 961 q 193 1017 235 1017 q 96 981 143 1017 l 56 1046 q 138 1107 92 1085 q 232 1129 185 1129 z "},"Ị":{"ha":454,"x_min":33,"x_max":436,"o":"m 321 0 l 43 0 l 90 264 l 154 899 l 436 899 l 346 292 l 321 0 m 174 -49 q 269 -83 235 -49 q 303 -181 303 -118 q 265 -285 303 -247 q 163 -324 228 -324 q 67 -290 100 -324 q 33 -193 33 -256 q 71 -87 33 -126 q 174 -49 108 -49 z "},"ị":{"ha":422,"x_min":11,"x_max":383,"o":"m 292 0 l 35 0 l 72 207 l 122 713 l 383 713 l 308 233 l 292 0 m 151 -49 q 247 -83 213 -49 q 281 -181 281 -118 q 243 -285 281 -247 q 140 -324 206 -324 q 44 -290 78 -324 q 11 -193 11 -256 q 49 -87 11 -126 q 151 -49 86 -49 z "},"Ọ":{"ha":914,"x_min":33,"x_max":908,"o":"m 528 915 q 809 817 710 915 q 908 519 908 719 q 851 242 908 364 q 682 52 793 121 q 415 -17 571 -17 q 133 83 233 -17 q 33 383 33 182 q 91 659 33 539 q 260 847 149 779 q 528 915 372 915 m 496 694 q 403 669 440 694 q 345 576 367 644 q 324 379 324 507 q 333 264 324 304 q 369 206 343 224 q 444 188 394 188 q 536 213 499 188 q 595 306 574 238 q 617 503 617 375 q 607 617 617 576 q 572 676 597 658 q 496 694 546 694 m 438 -49 q 533 -83 499 -49 q 567 -181 567 -118 q 529 -285 567 -247 q 426 -324 492 -324 q 331 -290 364 -324 q 297 -193 297 -256 q 335 -87 297 -126 q 438 -49 372 -49 z "},"ọ":{"ha":789,"x_min":24,"x_max":769,"o":"m 442 726 q 684 647 599 726 q 769 406 769 567 q 720 188 769 283 q 576 39 671 93 q 351 -15 482 -15 q 109 65 194 -15 q 24 308 24 146 q 73 525 24 431 q 217 673 122 619 q 442 726 311 726 m 410 524 q 345 509 369 524 q 306 448 321 494 q 292 311 292 401 q 299 224 292 253 q 326 185 307 196 q 385 174 346 174 q 448 188 424 174 q 486 249 472 203 q 500 388 500 296 q 492 473 500 444 q 466 513 485 501 q 410 524 447 524 m 368 -49 q 463 -83 429 -49 q 497 -181 497 -118 q 460 -285 497 -247 q 357 -324 422 -324 q 261 -290 294 -324 q 228 -193 228 -256 q 265 -87 228 -126 q 368 -49 303 -49 z "},"Ỏ":{"ha":914,"x_min":33,"x_max":908,"o":"m 528 915 q 809 817 710 915 q 908 519 908 719 q 851 242 908 364 q 682 52 793 121 q 415 -17 571 -17 q 133 83 233 -17 q 33 383 33 182 q 91 659 33 539 q 260 847 149 779 q 528 915 372 915 m 496 694 q 403 669 440 694 q 345 576 367 644 q 324 379 324 507 q 333 264 324 304 q 369 206 343 224 q 444 188 394 188 q 536 213 499 188 q 595 306 574 238 q 617 503 617 375 q 607 617 617 576 q 572 676 597 658 q 496 694 546 694 m 514 1315 q 613 1282 574 1315 q 653 1194 653 1249 q 635 1138 653 1164 q 568 1067 617 1111 l 606 1007 l 517 953 l 442 1064 q 497 1118 476 1089 q 517 1169 517 1147 q 475 1203 517 1203 q 378 1167 425 1203 l 338 1232 q 420 1293 374 1271 q 514 1315 467 1315 z "},"ỏ":{"ha":789,"x_min":24,"x_max":769,"o":"m 442 726 q 684 647 599 726 q 769 406 769 567 q 720 188 769 283 q 576 39 671 93 q 351 -15 482 -15 q 109 65 194 -15 q 24 308 24 146 q 73 525 24 431 q 217 673 122 619 q 442 726 311 726 m 410 524 q 345 509 369 524 q 306 448 321 494 q 292 311 292 401 q 299 224 292 253 q 326 185 307 196 q 385 174 346 174 q 448 188 424 174 q 486 249 472 203 q 500 388 500 296 q 492 473 500 444 q 466 513 485 501 q 410 524 447 524 m 421 1129 q 520 1096 481 1129 q 560 1008 560 1063 q 542 951 560 978 q 475 881 524 925 l 513 821 l 424 767 l 349 878 q 403 932 383 903 q 424 983 424 961 q 382 1017 424 1017 q 285 981 332 1017 l 244 1046 q 327 1107 281 1085 q 421 1129 374 1129 z "},"Ố":{"ha":914,"x_min":33,"x_max":908,"o":"m 528 915 q 809 817 710 915 q 908 519 908 719 q 851 242 908 364 q 682 52 793 121 q 415 -17 571 -17 q 133 83 233 -17 q 33 383 33 182 q 91 659 33 539 q 260 847 149 779 q 528 915 372 915 m 496 694 q 403 669 440 694 q 345 576 367 644 q 324 379 324 507 q 333 264 324 304 q 369 206 343 224 q 444 188 394 188 q 536 213 499 188 q 595 306 574 238 q 617 503 617 375 q 607 617 617 576 q 572 676 597 658 q 496 694 546 694 m 906 1385 l 753 1179 l 738 1179 l 650 1243 l 747 1450 l 764 1460 l 899 1403 l 906 1385 m 588 1243 q 792 1079 665 1168 l 733 974 l 708 974 l 558 1057 q 469 1015 531 1043 l 381 974 l 356 974 l 321 1079 q 540 1243 458 1172 l 588 1243 z "},"ố":{"ha":789,"x_min":24,"x_max":813,"o":"m 442 726 q 684 647 599 726 q 769 406 769 567 q 720 188 769 283 q 576 39 671 93 q 351 -15 482 -15 q 109 65 194 -15 q 24 308 24 146 q 73 525 24 431 q 217 673 122 619 q 442 726 311 726 m 410 524 q 345 509 369 524 q 306 448 321 494 q 292 311 292 401 q 299 224 292 253 q 326 185 307 196 q 385 174 346 174 q 448 188 424 174 q 486 249 472 203 q 500 388 500 296 q 492 473 500 444 q 466 513 485 501 q 410 524 447 524 m 813 1199 l 660 993 l 644 993 l 557 1057 l 654 1264 l 671 1274 l 806 1217 l 813 1199 m 494 1057 q 699 893 572 982 l 640 788 l 615 788 l 465 871 q 376 829 438 857 l 288 788 l 263 788 l 228 893 q 447 1057 365 986 l 494 1057 z "},"Ồ":{"ha":914,"x_min":33,"x_max":908,"o":"m 528 915 q 809 817 710 915 q 908 519 908 719 q 851 242 908 364 q 682 52 793 121 q 415 -17 571 -17 q 133 83 233 -17 q 33 383 33 182 q 91 659 33 539 q 260 847 149 779 q 528 915 372 915 m 496 694 q 403 669 440 694 q 345 576 367 644 q 324 379 324 507 q 333 264 324 304 q 369 206 343 224 q 444 188 394 188 q 536 213 499 188 q 595 306 574 238 q 617 503 617 375 q 607 617 617 576 q 572 676 597 658 q 496 694 546 694 m 811 1243 l 724 1179 l 708 1179 l 556 1385 l 563 1403 l 699 1460 l 714 1450 l 811 1243 m 578 1242 q 783 1078 658 1165 l 724 972 l 699 972 l 549 1056 q 460 1014 521 1042 l 371 972 l 346 972 l 311 1078 q 531 1242 449 1171 l 578 1242 z "},"ồ":{"ha":789,"x_min":24,"x_max":769,"o":"m 442 726 q 684 647 599 726 q 769 406 769 567 q 720 188 769 283 q 576 39 671 93 q 351 -15 482 -15 q 109 65 194 -15 q 24 308 24 146 q 73 525 24 431 q 217 673 122 619 q 442 726 311 726 m 410 524 q 345 509 369 524 q 306 448 321 494 q 292 311 292 401 q 299 224 292 253 q 326 185 307 196 q 385 174 346 174 q 448 188 424 174 q 486 249 472 203 q 500 388 500 296 q 492 473 500 444 q 466 513 485 501 q 410 524 447 524 m 718 1057 l 631 993 l 615 993 l 463 1199 l 469 1217 l 606 1274 l 621 1264 l 718 1057 m 485 1056 q 690 892 565 979 l 631 786 l 606 786 l 456 869 q 367 828 428 856 l 278 786 l 253 786 l 218 892 q 438 1056 356 985 l 485 1056 z "},"Ổ":{"ha":914,"x_min":33,"x_max":908,"o":"m 528 915 q 809 817 710 915 q 908 519 908 719 q 851 242 908 364 q 682 52 793 121 q 415 -17 571 -17 q 133 83 233 -17 q 33 383 33 182 q 91 659 33 539 q 260 847 149 779 q 528 915 372 915 m 496 694 q 403 669 440 694 q 345 576 367 644 q 324 379 324 507 q 333 264 324 304 q 369 206 343 224 q 444 188 394 188 q 536 213 499 188 q 595 306 574 238 q 617 503 617 375 q 607 617 617 576 q 572 676 597 658 q 496 694 546 694 m 699 1528 q 793 1496 756 1528 q 831 1411 831 1464 q 813 1358 831 1383 q 750 1290 796 1332 l 785 1233 l 700 1182 l 629 1288 q 681 1338 661 1310 q 700 1388 700 1365 q 661 1419 700 1419 q 568 1385 614 1419 l 531 1447 q 609 1506 564 1485 q 699 1528 654 1528 m 579 1243 q 785 1079 660 1167 l 725 974 l 700 974 l 550 1057 q 461 1015 522 1043 l 372 974 l 347 974 l 313 1079 q 532 1243 450 1172 l 579 1243 z "},"ổ":{"ha":789,"x_min":24,"x_max":769,"o":"m 442 726 q 684 647 599 726 q 769 406 769 567 q 720 188 769 283 q 576 39 671 93 q 351 -15 482 -15 q 109 65 194 -15 q 24 308 24 146 q 73 525 24 431 q 217 673 122 619 q 442 726 311 726 m 410 524 q 345 509 369 524 q 306 448 321 494 q 292 311 292 401 q 299 224 292 253 q 326 185 307 196 q 385 174 346 174 q 448 188 424 174 q 486 249 472 203 q 500 388 500 296 q 492 473 500 444 q 466 513 485 501 q 410 524 447 524 m 606 1342 q 700 1310 663 1342 q 738 1225 738 1278 q 720 1172 738 1197 q 657 1104 703 1146 l 692 1047 l 607 996 l 536 1101 q 588 1151 568 1124 q 607 1201 607 1179 q 568 1233 607 1233 q 475 1199 521 1233 l 438 1261 q 516 1320 471 1299 q 606 1342 561 1342 m 486 1057 q 692 893 567 981 l 632 788 l 607 788 l 457 871 q 368 829 429 857 l 279 788 l 254 788 l 219 893 q 439 1057 357 986 l 486 1057 z "},"Ỗ":{"ha":914,"x_min":33,"x_max":908,"o":"m 528 915 q 809 817 710 915 q 908 519 908 719 q 851 242 908 364 q 682 52 793 121 q 415 -17 571 -17 q 133 83 233 -17 q 33 383 33 182 q 91 659 33 539 q 260 847 149 779 q 528 915 372 915 m 496 694 q 403 669 440 694 q 345 576 367 644 q 324 379 324 507 q 333 264 324 304 q 369 206 343 224 q 444 188 394 188 q 536 213 499 188 q 595 306 574 238 q 617 503 617 375 q 607 617 617 576 q 572 676 597 658 q 496 694 546 694 m 847 1410 l 746 1268 l 725 1261 q 615 1286 693 1265 q 532 1304 551 1304 q 496 1290 513 1304 q 465 1256 479 1275 q 444 1231 450 1238 l 425 1231 l 353 1299 l 353 1319 l 456 1461 l 475 1469 q 581 1444 506 1465 q 668 1426 650 1426 q 707 1443 690 1426 q 756 1500 724 1460 l 776 1500 l 847 1431 l 847 1410 m 589 1244 q 793 1081 667 1169 l 735 975 l 710 975 l 560 1058 q 471 1017 532 1044 l 382 975 l 357 975 l 322 1081 q 542 1244 460 1174 l 589 1244 z "},"ỗ":{"ha":789,"x_min":24,"x_max":769,"o":"m 442 726 q 684 647 599 726 q 769 406 769 567 q 720 188 769 283 q 576 39 671 93 q 351 -15 482 -15 q 109 65 194 -15 q 24 308 24 146 q 73 525 24 431 q 217 673 122 619 q 442 726 311 726 m 410 524 q 345 509 369 524 q 306 448 321 494 q 292 311 292 401 q 299 224 292 253 q 326 185 307 196 q 385 174 346 174 q 448 188 424 174 q 486 249 472 203 q 500 388 500 296 q 492 473 500 444 q 466 513 485 501 q 410 524 447 524 m 754 1224 l 653 1082 l 632 1075 q 522 1100 600 1079 q 439 1118 458 1118 q 403 1103 419 1118 q 372 1070 386 1089 q 351 1044 357 1051 l 332 1044 l 260 1113 l 260 1133 l 363 1275 l 382 1283 q 488 1258 413 1279 q 575 1240 557 1240 q 614 1257 597 1240 q 663 1314 631 1274 l 683 1314 l 754 1244 l 754 1224 m 496 1058 q 700 894 574 983 l 642 789 l 617 789 l 467 872 q 378 831 439 858 l 289 789 l 264 789 l 229 894 q 449 1058 367 988 l 496 1058 z "},"Ộ":{"ha":914,"x_min":33,"x_max":908,"o":"m 319 1106 q 539 1269 457 1199 l 586 1269 q 792 1106 667 1193 l 732 1000 l 707 1000 l 557 1083 q 468 1042 529 1069 l 379 1000 l 354 1000 l 319 1106 m 528 915 q 809 817 710 915 q 908 519 908 719 q 851 242 908 364 q 682 52 793 121 q 415 -17 571 -17 q 133 83 233 -17 q 33 383 33 182 q 91 659 33 539 q 260 847 149 779 q 528 915 372 915 m 496 694 q 403 669 440 694 q 345 576 367 644 q 324 379 324 507 q 333 264 324 304 q 369 206 343 224 q 444 188 394 188 q 536 213 499 188 q 595 306 574 238 q 617 503 617 375 q 607 617 617 576 q 572 676 597 658 q 496 694 546 694 m 438 -49 q 533 -83 499 -49 q 567 -181 567 -118 q 529 -285 567 -247 q 426 -324 492 -324 q 331 -290 364 -324 q 297 -193 297 -256 q 335 -87 297 -126 q 438 -49 372 -49 z "},"ộ":{"ha":789,"x_min":24,"x_max":768,"o":"m 217 893 q 464 1100 294 953 l 511 1100 q 715 893 583 1018 l 638 793 l 613 793 q 467 901 510 865 q 294 793 417 865 l 269 793 l 217 893 m 442 726 q 683 647 597 726 q 768 406 768 567 q 719 188 768 283 q 576 39 669 93 q 351 -15 482 -15 q 109 65 194 -15 q 24 308 24 146 q 73 525 24 431 q 217 673 122 619 q 442 726 311 726 m 410 524 q 345 509 369 524 q 306 448 321 494 q 292 311 292 401 q 299 224 292 253 q 326 185 307 196 q 385 174 346 174 q 447 188 424 174 q 485 249 471 203 q 499 388 499 296 q 492 473 499 444 q 466 513 485 501 q 410 524 447 524 m 368 -49 q 463 -83 429 -49 q 497 -181 497 -118 q 460 -285 497 -247 q 357 -324 422 -324 q 261 -290 294 -324 q 228 -193 228 -256 q 265 -87 228 -126 q 368 -49 303 -49 z "},"Ớ":{"ha":922,"x_min":33,"x_max":1047,"o":"m 946 1096 q 1019 1062 992 1096 q 1047 972 1047 1028 q 993 835 1047 894 q 856 757 939 776 q 907 529 907 664 q 848 246 907 369 q 678 53 789 122 q 414 -17 567 -17 q 132 86 231 -17 q 33 385 33 189 q 96 664 33 543 q 269 850 158 785 q 518 915 379 915 q 686 890 589 915 q 764 876 744 876 q 836 947 836 876 q 806 1025 836 994 l 813 1044 q 946 1096 890 1096 m 494 694 q 403 669 440 694 q 345 575 367 644 q 324 378 324 506 q 333 266 324 306 q 369 207 343 226 q 449 188 396 188 q 538 213 501 188 q 597 307 575 238 q 618 506 618 376 q 609 616 618 576 q 573 675 600 656 q 494 694 546 694 m 761 1107 l 753 1085 q 422 989 569 1026 l 399 994 l 357 1104 q 669 1274 515 1182 l 693 1268 l 761 1107 z "},"ớ":{"ha":803,"x_min":24,"x_max":889,"o":"m 674 826 q 799 874 747 874 q 864 845 839 874 q 889 771 889 817 q 842 653 889 706 q 731 590 796 601 q 768 422 768 524 q 719 192 768 290 q 577 39 671 93 q 351 -15 483 -15 q 110 65 197 -15 q 24 288 24 144 q 74 522 24 422 q 215 674 125 621 q 422 726 306 726 q 571 707 490 726 q 639 697 619 697 q 693 751 693 697 q 668 808 693 788 l 674 826 m 385 174 q 450 189 426 174 q 487 256 474 204 q 500 413 500 307 q 480 501 500 478 q 410 524 460 524 q 342 508 367 524 q 304 441 317 492 q 292 286 292 390 q 312 197 292 221 q 385 174 332 174 m 638 921 l 629 899 q 299 803 446 840 l 275 808 l 233 918 q 546 1088 392 996 l 569 1082 l 638 921 z "},"Ờ":{"ha":922,"x_min":33,"x_max":1047,"o":"m 946 1096 q 1019 1062 992 1096 q 1047 972 1047 1028 q 993 835 1047 894 q 856 757 939 776 q 907 529 907 664 q 848 246 907 369 q 678 53 789 122 q 414 -17 567 -17 q 132 86 231 -17 q 33 385 33 189 q 96 664 33 543 q 269 850 158 785 q 518 915 379 915 q 686 890 589 915 q 764 876 744 876 q 836 947 836 876 q 806 1025 836 994 l 813 1044 q 946 1096 890 1096 m 494 694 q 403 669 440 694 q 345 575 367 644 q 324 378 324 506 q 333 266 324 306 q 369 207 343 226 q 449 188 396 188 q 538 213 501 188 q 597 307 575 238 q 618 506 618 376 q 609 616 618 576 q 573 675 600 656 q 494 694 546 694 m 444 1274 q 757 1104 576 1196 l 715 994 l 692 989 q 361 1085 544 1026 l 353 1107 l 421 1268 l 444 1274 z "},"ờ":{"ha":803,"x_min":24,"x_max":889,"o":"m 674 826 q 799 874 747 874 q 864 845 839 874 q 889 771 889 817 q 842 653 889 706 q 731 590 796 601 q 768 422 768 524 q 719 192 768 290 q 577 39 671 93 q 351 -15 483 -15 q 110 65 197 -15 q 24 288 24 144 q 74 522 24 422 q 215 674 125 621 q 422 726 306 726 q 571 707 490 726 q 639 697 619 697 q 693 751 693 697 q 668 808 693 788 l 674 826 m 385 174 q 450 189 426 174 q 487 256 474 204 q 500 413 500 307 q 480 501 500 478 q 410 524 460 524 q 342 508 367 524 q 304 441 317 492 q 292 286 292 390 q 312 197 292 221 q 385 174 332 174 m 321 1088 q 633 918 453 1010 l 592 808 l 568 803 q 238 899 421 840 l 229 921 l 297 1082 l 321 1088 z "},"Ở":{"ha":922,"x_min":33,"x_max":1047,"o":"m 946 1096 q 1019 1062 992 1096 q 1047 972 1047 1028 q 993 835 1047 894 q 856 757 939 776 q 907 529 907 664 q 848 246 907 369 q 678 53 789 122 q 414 -17 567 -17 q 132 86 231 -17 q 33 385 33 189 q 96 664 33 543 q 269 850 158 785 q 518 915 379 915 q 686 890 589 915 q 764 876 744 876 q 836 947 836 876 q 806 1025 836 994 l 813 1044 q 946 1096 890 1096 m 494 694 q 403 669 440 694 q 345 575 367 644 q 324 378 324 506 q 333 266 324 306 q 369 207 343 226 q 449 188 396 188 q 538 213 501 188 q 597 307 575 238 q 618 506 618 376 q 609 616 618 576 q 573 675 600 656 q 494 694 546 694 m 514 1315 q 613 1282 574 1315 q 653 1194 653 1249 q 635 1138 653 1164 q 568 1067 617 1111 l 606 1007 l 517 953 l 442 1064 q 497 1118 476 1089 q 517 1169 517 1147 q 475 1203 517 1203 q 378 1167 425 1203 l 338 1232 q 420 1293 374 1271 q 514 1315 467 1315 z "},"ở":{"ha":803,"x_min":24,"x_max":889,"o":"m 674 826 q 799 874 747 874 q 864 845 839 874 q 889 771 889 817 q 842 653 889 706 q 731 590 796 601 q 768 422 768 524 q 719 192 768 290 q 577 39 671 93 q 351 -15 483 -15 q 110 65 197 -15 q 24 288 24 144 q 74 522 24 422 q 215 674 125 621 q 422 726 306 726 q 571 707 490 726 q 639 697 619 697 q 693 751 693 697 q 668 808 693 788 l 674 826 m 385 174 q 450 189 426 174 q 487 256 474 204 q 500 413 500 307 q 480 501 500 478 q 410 524 460 524 q 342 508 367 524 q 304 441 317 492 q 292 286 292 390 q 312 197 292 221 q 385 174 332 174 m 390 1129 q 490 1096 450 1129 q 529 1008 529 1063 q 511 951 529 978 q 444 881 493 925 l 482 821 l 393 767 l 318 878 q 373 932 353 903 q 393 983 393 961 q 351 1017 393 1017 q 254 981 301 1017 l 214 1046 q 297 1107 250 1085 q 390 1129 343 1129 z "},"Ỡ":{"ha":922,"x_min":33,"x_max":1047,"o":"m 946 1096 q 1019 1062 992 1096 q 1047 972 1047 1028 q 993 835 1047 894 q 856 757 939 776 q 907 529 907 664 q 848 246 907 369 q 678 53 789 122 q 414 -17 567 -17 q 132 86 231 -17 q 33 385 33 189 q 96 664 33 543 q 269 850 158 785 q 518 915 379 915 q 686 890 589 915 q 764 876 744 876 q 836 947 836 876 q 806 1025 836 994 l 813 1044 q 946 1096 890 1096 m 494 694 q 403 669 440 694 q 345 575 367 644 q 324 378 324 506 q 333 266 324 306 q 369 207 343 226 q 449 188 396 188 q 538 213 501 188 q 597 307 575 238 q 618 506 618 376 q 609 616 618 576 q 573 675 600 656 q 494 694 546 694 m 826 1174 l 714 1017 l 692 1008 q 572 1036 654 1013 q 479 1056 492 1056 q 438 1038 456 1056 q 383 975 419 1019 l 361 975 l 282 1051 l 282 1074 l 394 1229 l 417 1238 q 536 1210 454 1233 q 629 1190 617 1190 q 671 1208 653 1190 q 725 1271 689 1226 l 747 1271 l 826 1196 l 826 1174 z "},"ỡ":{"ha":803,"x_min":24,"x_max":889,"o":"m 674 826 q 799 874 747 874 q 864 845 839 874 q 889 771 889 817 q 842 653 889 706 q 731 590 796 601 q 768 422 768 524 q 719 192 768 290 q 577 39 671 93 q 351 -15 483 -15 q 110 65 197 -15 q 24 288 24 144 q 74 522 24 422 q 215 674 125 621 q 422 726 306 726 q 571 707 490 726 q 639 697 619 697 q 693 751 693 697 q 668 808 693 788 l 674 826 m 385 174 q 450 189 426 174 q 487 256 474 204 q 500 413 500 307 q 480 501 500 478 q 410 524 460 524 q 342 508 367 524 q 304 441 317 492 q 292 286 292 390 q 312 197 292 221 q 385 174 332 174 m 703 988 l 590 831 l 568 822 q 449 850 531 826 q 356 869 368 869 q 314 851 332 869 q 260 789 296 833 l 238 789 l 158 865 l 158 888 l 271 1043 l 293 1051 q 413 1024 331 1047 q 506 1004 493 1004 q 547 1022 529 1004 q 601 1085 565 1040 l 624 1085 l 703 1010 l 703 988 z "},"Ợ":{"ha":922,"x_min":33,"x_max":1047,"o":"m 946 1096 q 1019 1062 992 1096 q 1047 972 1047 1028 q 993 835 1047 894 q 856 757 939 776 q 907 529 907 664 q 848 246 907 369 q 678 53 789 122 q 414 -17 567 -17 q 132 86 231 -17 q 33 385 33 189 q 96 664 33 543 q 269 850 158 785 q 518 915 379 915 q 686 890 589 915 q 764 876 744 876 q 836 947 836 876 q 806 1025 836 994 l 813 1044 q 946 1096 890 1096 m 494 694 q 403 669 440 694 q 345 575 367 644 q 324 378 324 506 q 333 266 324 306 q 369 207 343 226 q 449 188 396 188 q 538 213 501 188 q 597 307 575 238 q 618 506 618 376 q 609 616 618 576 q 573 675 600 656 q 494 694 546 694 m 438 -49 q 533 -83 499 -49 q 567 -181 567 -118 q 529 -285 567 -247 q 426 -324 492 -324 q 331 -290 364 -324 q 297 -193 297 -256 q 335 -87 297 -126 q 438 -49 372 -49 z "},"ợ":{"ha":803,"x_min":24,"x_max":889,"o":"m 674 826 q 799 874 747 874 q 864 845 839 874 q 889 771 889 817 q 842 653 889 706 q 731 590 796 601 q 768 422 768 524 q 719 192 768 290 q 577 39 671 93 q 351 -15 483 -15 q 110 65 197 -15 q 24 288 24 144 q 74 522 24 422 q 215 674 125 621 q 422 726 306 726 q 571 707 490 726 q 639 697 619 697 q 693 751 693 697 q 668 808 693 788 l 674 826 m 385 174 q 450 189 426 174 q 487 256 474 204 q 500 413 500 307 q 480 501 500 478 q 410 524 460 524 q 342 508 367 524 q 304 441 317 492 q 292 286 292 390 q 312 197 292 221 q 385 174 332 174 m 368 -49 q 463 -83 429 -49 q 497 -181 497 -118 q 460 -285 497 -247 q 357 -324 422 -324 q 261 -290 294 -324 q 228 -193 228 -256 q 265 -87 228 -126 q 368 -49 303 -49 z "},"Ụ":{"ha":907,"x_min":63,"x_max":913,"o":"m 829 300 q 704 65 810 146 q 413 -17 599 -17 q 155 50 247 -17 q 63 240 63 117 q 67 300 63 269 l 88 443 l 135 899 l 413 899 l 332 338 q 329 300 329 310 q 354 225 329 249 q 436 201 379 201 q 535 233 501 201 q 575 338 568 265 l 631 899 l 913 899 l 847 443 l 829 300 m 400 -49 q 495 -83 461 -49 q 529 -181 529 -118 q 492 -285 529 -247 q 389 -324 454 -324 q 293 -290 326 -324 q 260 -193 260 -256 q 297 -87 260 -126 q 400 -49 335 -49 z "},"ụ":{"ha":786,"x_min":47,"x_max":774,"o":"m 706 235 q 599 49 690 113 q 347 -15 508 -15 q 126 38 206 -15 q 47 189 47 90 q 51 235 47 213 l 68 350 l 106 713 l 361 713 l 296 269 q 294 247 294 261 q 313 200 294 214 q 374 186 331 186 q 444 206 422 186 q 471 269 467 225 l 514 713 l 774 713 l 721 351 l 706 235 m 365 -49 q 460 -83 426 -49 q 494 -181 494 -118 q 457 -285 494 -247 q 354 -324 419 -324 q 258 -290 292 -324 q 225 -193 225 -256 q 263 -87 225 -126 q 365 -49 300 -49 z "},"Ủ":{"ha":907,"x_min":63,"x_max":913,"o":"m 829 300 q 704 65 810 146 q 413 -17 599 -17 q 155 50 247 -17 q 63 240 63 117 q 67 300 63 269 l 88 443 l 135 899 l 413 899 l 332 338 q 329 300 329 310 q 354 225 329 249 q 436 201 379 201 q 535 233 501 201 q 575 338 568 265 l 631 899 l 913 899 l 847 443 l 829 300 m 511 1315 q 610 1282 571 1315 q 650 1194 650 1249 q 632 1138 650 1164 q 565 1067 614 1111 l 603 1007 l 514 953 l 439 1064 q 494 1118 474 1089 q 514 1169 514 1147 q 472 1203 514 1203 q 375 1167 422 1203 l 335 1232 q 417 1293 371 1271 q 511 1315 464 1315 z "},"ủ":{"ha":786,"x_min":47,"x_max":774,"o":"m 706 235 q 599 49 690 113 q 347 -15 508 -15 q 126 38 206 -15 q 47 189 47 90 q 51 235 47 213 l 68 350 l 106 713 l 361 713 l 296 269 q 294 247 294 261 q 313 200 294 214 q 374 186 331 186 q 444 206 422 186 q 471 269 467 225 l 514 713 l 774 713 l 721 351 l 706 235 m 424 1129 q 523 1096 483 1129 q 563 1008 563 1063 q 544 951 563 978 q 478 881 526 925 l 515 821 l 426 767 l 351 878 q 406 932 386 903 q 426 983 426 961 q 385 1017 426 1017 q 288 981 335 1017 l 247 1046 q 330 1107 283 1085 q 424 1129 376 1129 z "},"Ứ":{"ha":929,"x_min":63,"x_max":1022,"o":"m 1022 990 q 990 890 1022 936 q 900 811 958 843 l 847 443 l 829 300 q 704 65 810 146 q 413 -17 599 -17 q 155 50 247 -17 q 63 240 63 117 q 67 300 63 269 l 88 443 l 135 899 l 413 899 l 332 338 q 329 300 329 310 q 354 225 329 249 q 435 201 379 201 q 535 233 501 201 q 575 338 568 265 l 631 899 l 735 899 q 796 914 778 899 q 814 965 814 929 q 774 1047 814 1014 l 778 1067 q 907 1118 850 1118 q 990 1082 957 1118 q 1022 990 1022 1046 m 731 1107 l 722 1085 q 392 989 539 1026 l 368 994 l 326 1104 q 639 1274 485 1182 l 663 1268 l 731 1107 z "},"ứ":{"ha":806,"x_min":47,"x_max":889,"o":"m 889 800 q 855 706 889 751 q 763 632 821 661 l 721 351 l 706 235 q 599 49 690 113 q 347 -15 508 -15 q 126 38 206 -15 q 47 189 47 90 q 51 235 47 213 l 68 350 l 106 713 l 361 713 l 296 269 q 294 247 294 261 q 313 200 294 214 q 372 186 331 186 q 444 206 421 186 q 471 269 467 225 l 514 713 l 622 713 q 678 726 663 713 q 693 772 693 740 q 667 828 693 808 l 674 846 q 800 893 747 893 q 865 867 840 893 q 889 800 889 842 m 660 921 l 651 899 q 321 803 468 840 l 297 808 l 256 918 q 568 1088 414 996 l 592 1082 l 660 921 z "},"Ừ":{"ha":929,"x_min":63,"x_max":1022,"o":"m 1022 990 q 990 890 1022 936 q 900 811 958 843 l 847 443 l 829 300 q 704 65 810 146 q 413 -17 599 -17 q 155 50 247 -17 q 63 240 63 117 q 67 300 63 269 l 88 443 l 135 899 l 413 899 l 332 338 q 329 300 329 310 q 354 225 329 249 q 435 201 379 201 q 535 233 501 201 q 575 338 568 265 l 631 899 l 735 899 q 796 914 778 899 q 814 965 814 929 q 774 1047 814 1014 l 778 1067 q 907 1118 850 1118 q 990 1082 957 1118 q 1022 990 1022 1046 m 414 1274 q 726 1104 546 1196 l 685 994 l 661 989 q 331 1085 514 1026 l 322 1107 l 390 1268 l 414 1274 z "},"ừ":{"ha":806,"x_min":47,"x_max":889,"o":"m 889 800 q 855 706 889 751 q 763 632 821 661 l 721 351 l 706 235 q 599 49 690 113 q 347 -15 508 -15 q 126 38 206 -15 q 47 189 47 90 q 51 235 47 213 l 68 350 l 106 713 l 361 713 l 296 269 q 294 247 294 261 q 313 200 294 214 q 372 186 331 186 q 444 206 421 186 q 471 269 467 225 l 514 713 l 622 713 q 678 726 663 713 q 693 772 693 740 q 667 828 693 808 l 674 846 q 800 893 747 893 q 865 867 840 893 q 889 800 889 842 m 343 1088 q 656 918 475 1010 l 614 808 l 590 803 q 260 899 443 840 l 251 921 l 319 1082 l 343 1088 z "},"Ử":{"ha":929,"x_min":63,"x_max":1022,"o":"m 1022 990 q 990 890 1022 936 q 900 811 958 843 l 847 443 l 829 300 q 704 65 810 146 q 413 -17 599 -17 q 155 50 247 -17 q 63 240 63 117 q 67 300 63 269 l 88 443 l 135 899 l 413 899 l 332 338 q 329 300 329 310 q 354 225 329 249 q 435 201 379 201 q 535 233 501 201 q 575 338 568 265 l 631 899 l 735 899 q 796 914 778 899 q 814 965 814 929 q 774 1047 814 1014 l 778 1067 q 907 1118 850 1118 q 990 1082 957 1118 q 1022 990 1022 1046 m 483 1315 q 583 1282 543 1315 q 622 1194 622 1249 q 604 1138 622 1164 q 538 1067 586 1111 l 575 1007 l 486 953 l 411 1064 q 466 1118 446 1089 q 486 1169 486 1147 q 444 1203 486 1203 q 347 1167 394 1203 l 307 1232 q 390 1293 343 1271 q 483 1315 436 1315 z "},"ử":{"ha":806,"x_min":47,"x_max":889,"o":"m 889 800 q 855 706 889 751 q 763 632 821 661 l 721 351 l 706 235 q 599 49 690 113 q 347 -15 508 -15 q 126 38 206 -15 q 47 189 47 90 q 51 235 47 213 l 68 350 l 106 713 l 361 713 l 296 269 q 294 247 294 261 q 313 200 294 214 q 372 186 331 186 q 444 206 421 186 q 471 269 467 225 l 514 713 l 622 713 q 678 726 663 713 q 693 772 693 740 q 667 828 693 808 l 674 846 q 800 893 747 893 q 865 867 840 893 q 889 800 889 842 m 413 1129 q 512 1096 472 1129 q 551 1008 551 1063 q 533 951 551 978 q 467 881 515 925 l 504 821 l 415 767 l 340 878 q 395 932 375 903 q 415 983 415 961 q 374 1017 415 1017 q 276 981 324 1017 l 236 1046 q 319 1107 272 1085 q 413 1129 365 1129 z "},"Ữ":{"ha":929,"x_min":63,"x_max":1022,"o":"m 1022 990 q 990 890 1022 936 q 900 811 958 843 l 847 443 l 829 300 q 704 65 810 146 q 413 -17 599 -17 q 155 50 247 -17 q 63 240 63 117 q 67 300 63 269 l 88 443 l 135 899 l 413 899 l 332 338 q 329 300 329 310 q 354 225 329 249 q 435 201 379 201 q 535 233 501 201 q 575 338 568 265 l 631 899 l 735 899 q 796 914 778 899 q 814 965 814 929 q 774 1047 814 1014 l 778 1067 q 907 1118 850 1118 q 990 1082 957 1118 q 1022 990 1022 1046 m 796 1174 l 683 1017 l 661 1008 q 542 1036 624 1013 q 449 1056 461 1056 q 407 1038 425 1056 q 353 975 389 1019 l 331 975 l 251 1051 l 251 1074 l 364 1229 l 386 1238 q 506 1210 424 1233 q 599 1190 586 1190 q 640 1208 622 1190 q 694 1271 658 1226 l 717 1271 l 796 1196 l 796 1174 z "},"ữ":{"ha":806,"x_min":47,"x_max":889,"o":"m 889 800 q 855 706 889 751 q 763 632 821 661 l 721 351 l 706 235 q 599 49 690 113 q 347 -15 508 -15 q 126 38 206 -15 q 47 189 47 90 q 51 235 47 213 l 68 350 l 106 713 l 361 713 l 296 269 q 294 247 294 261 q 313 200 294 214 q 372 186 331 186 q 444 206 421 186 q 471 269 467 225 l 514 713 l 622 713 q 678 726 663 713 q 693 772 693 740 q 667 828 693 808 l 674 846 q 800 893 747 893 q 865 867 840 893 q 889 800 889 842 m 725 988 l 613 831 l 590 822 q 471 850 553 826 q 378 869 390 869 q 336 851 354 869 q 282 789 318 833 l 260 789 l 181 865 l 181 888 l 293 1043 l 315 1051 q 435 1024 353 1047 q 528 1004 515 1004 q 569 1022 551 1004 q 624 1085 588 1040 l 646 1085 l 725 1010 l 725 988 z "},"Ự":{"ha":929,"x_min":63,"x_max":1022,"o":"m 1022 990 q 990 890 1022 936 q 900 811 958 843 l 847 443 l 829 300 q 704 65 810 146 q 413 -17 599 -17 q 155 50 247 -17 q 63 240 63 117 q 67 300 63 269 l 88 443 l 135 899 l 413 899 l 332 338 q 329 300 329 310 q 354 225 329 249 q 435 201 379 201 q 535 233 501 201 q 575 338 568 265 l 631 899 l 735 899 q 796 914 778 899 q 814 965 814 929 q 774 1047 814 1014 l 778 1067 q 907 1118 850 1118 q 990 1082 957 1118 q 1022 990 1022 1046 m 421 -49 q 516 -83 482 -49 q 550 -181 550 -118 q 513 -285 550 -247 q 410 -324 475 -324 q 314 -290 347 -324 q 281 -193 281 -256 q 318 -87 281 -126 q 421 -49 356 -49 z "},"ự":{"ha":806,"x_min":47,"x_max":889,"o":"m 889 800 q 855 706 889 751 q 763 632 821 661 l 721 351 l 706 235 q 599 49 690 113 q 347 -15 508 -15 q 126 38 206 -15 q 47 189 47 90 q 51 235 47 213 l 68 350 l 106 713 l 361 713 l 296 269 q 294 247 294 261 q 313 200 294 214 q 372 186 331 186 q 444 206 421 186 q 471 269 467 225 l 514 713 l 622 713 q 678 726 663 713 q 693 772 693 740 q 667 828 693 808 l 674 846 q 800 893 747 893 q 865 867 840 893 q 889 800 889 842 m 361 -49 q 456 -83 422 -49 q 490 -181 490 -118 q 453 -285 490 -247 q 350 -324 415 -324 q 254 -290 288 -324 q 221 -193 221 -256 q 258 -87 221 -126 q 361 -49 296 -49 z "},"Ỳ":{"ha":825,"x_min":60,"x_max":922,"o":"m 518 236 l 501 0 l 225 0 l 267 236 l 271 288 l 60 899 l 349 899 l 361 824 l 429 551 l 446 551 l 597 814 l 639 899 l 922 899 l 526 283 l 518 236 m 401 1274 q 714 1104 533 1196 l 672 994 l 649 989 q 318 1085 501 1026 l 310 1107 l 378 1268 l 401 1274 z "},"ỳ":{"ha":728,"x_min":43,"x_max":792,"o":"m 453 182 l 442 0 l 186 0 l 221 182 l 224 211 l 43 713 l 311 713 l 322 647 l 374 461 l 388 461 l 493 638 l 531 713 l 792 713 l 458 208 l 453 182 m 329 1104 q 608 882 471 983 l 547 782 l 524 781 q 214 932 411 832 l 210 956 l 306 1103 l 329 1104 z "},"Ỵ":{"ha":825,"x_min":60,"x_max":922,"o":"m 518 236 l 501 0 l 225 0 l 267 236 l 271 288 l 60 899 l 349 899 l 361 824 l 429 551 l 446 551 l 597 814 l 639 899 l 922 899 l 526 283 l 518 236 m 353 -49 q 448 -83 414 -49 q 482 -181 482 -118 q 444 -285 482 -247 q 342 -324 407 -324 q 246 -290 279 -324 q 213 -193 213 -256 q 250 -87 213 -126 q 353 -49 288 -49 z "},"ỵ":{"ha":728,"x_min":43,"x_max":792,"o":"m 453 182 l 442 0 l 186 0 l 221 182 l 224 211 l 43 713 l 311 713 l 322 647 l 374 461 l 388 461 l 493 638 l 531 713 l 792 713 l 458 208 l 453 182 m 307 -49 q 402 -83 368 -49 q 436 -181 436 -118 q 399 -285 436 -247 q 296 -324 361 -324 q 200 -290 233 -324 q 167 -193 167 -256 q 204 -87 167 -126 q 307 -49 242 -49 z "},"Ỷ":{"ha":825,"x_min":60,"x_max":922,"o":"m 518 236 l 501 0 l 225 0 l 267 236 l 271 288 l 60 899 l 349 899 l 361 824 l 429 551 l 446 551 l 597 814 l 639 899 l 922 899 l 526 283 l 518 236 m 471 1315 q 570 1282 531 1315 q 610 1194 610 1249 q 592 1138 610 1164 q 525 1067 574 1111 l 563 1007 l 474 953 l 399 1064 q 453 1118 433 1089 q 474 1169 474 1147 q 432 1203 474 1203 q 335 1167 382 1203 l 294 1232 q 377 1293 331 1271 q 471 1315 424 1315 z "},"ỷ":{"ha":728,"x_min":43,"x_max":792,"o":"m 453 182 l 442 0 l 186 0 l 221 182 l 224 211 l 43 713 l 311 713 l 322 647 l 374 461 l 388 461 l 493 638 l 531 713 l 792 713 l 458 208 l 453 182 m 394 1129 q 494 1096 454 1129 q 533 1008 533 1063 q 515 951 533 978 q 449 881 497 925 l 486 821 l 397 767 l 322 878 q 377 932 357 903 q 397 983 397 961 q 356 1017 397 1017 q 258 981 306 1017 l 218 1046 q 301 1107 254 1085 q 394 1129 347 1129 z "},"Ỹ":{"ha":825,"x_min":60,"x_max":922,"o":"m 518 236 l 501 0 l 225 0 l 267 236 l 271 288 l 60 899 l 349 899 l 361 824 l 429 551 l 446 551 l 597 814 l 639 899 l 922 899 l 526 283 l 518 236 m 783 1174 l 671 1017 l 649 1008 q 529 1036 611 1013 q 436 1056 449 1056 q 394 1038 413 1056 q 340 975 376 1019 l 318 975 l 239 1051 l 239 1074 l 351 1229 l 374 1238 q 493 1210 411 1233 q 586 1190 574 1190 q 628 1208 610 1190 q 682 1271 646 1226 l 704 1271 l 783 1196 l 783 1174 z "},"ỹ":{"ha":728,"x_min":43,"x_max":792,"o":"m 453 182 l 442 0 l 186 0 l 221 182 l 224 211 l 43 713 l 311 713 l 322 647 l 374 461 l 388 461 l 493 638 l 531 713 l 792 713 l 458 208 l 453 182 m 707 988 l 594 831 l 572 822 q 453 850 535 826 q 360 869 372 869 q 318 851 336 869 q 264 789 300 833 l 242 789 l 163 865 l 163 888 l 275 1043 l 297 1051 q 417 1024 335 1047 q 510 1004 497 1004 q 551 1022 533 1004 q 606 1085 569 1040 l 628 1085 l 707 1010 l 707 988 z "},"–":{"ha":626,"x_min":-26,"x_max":660,"o":"m 628 271 l -11 271 l -26 289 l 7 451 l 646 451 l 660 433 l 628 271 z "},"—":{"ha":1169,"x_min":-32,"x_max":1208,"o":"m 1176 271 l -17 271 l -32 289 l 1 451 l 1194 451 l 1208 433 l 1176 271 z "},"‘":{"ha":350,"x_min":90,"x_max":346,"o":"m 174 475 q 90 636 90 531 q 247 913 90 765 l 338 854 l 342 838 q 288 715 288 776 q 301 647 288 675 q 346 594 314 618 l 346 574 q 174 475 254 506 z "},"’":{"ha":350,"x_min":89,"x_max":344,"o":"m 261 915 q 344 754 344 860 q 188 478 344 625 l 97 536 l 93 553 q 147 675 147 614 q 134 744 147 715 q 89 796 121 772 l 89 817 q 261 915 181 885 z "},"‚":{"ha":317,"x_min":-33,"x_max":264,"o":"m 199 253 q 264 106 264 189 q 213 -49 264 25 q 54 -197 163 -122 l -31 -124 l -33 -104 q 44 47 44 -36 q -1 150 44 106 l 0 172 q 199 253 100 228 z "},"“":{"ha":635,"x_min":90,"x_max":629,"o":"m 457 476 q 374 638 374 532 q 531 914 374 767 l 621 856 l 625 839 q 571 717 571 778 q 584 648 571 676 q 629 596 597 619 l 629 575 q 457 476 538 507 m 174 476 q 90 638 90 532 q 247 914 90 767 l 338 856 l 342 839 q 288 717 288 778 q 301 648 288 676 q 346 596 314 619 l 346 575 q 174 476 254 507 z "},"”":{"ha":621,"x_min":89,"x_max":614,"o":"m 531 915 q 614 754 614 860 q 457 478 614 625 l 367 536 l 363 553 q 417 675 417 614 q 403 744 417 715 q 358 796 390 772 l 358 817 q 531 915 450 885 m 261 915 q 344 754 344 860 q 188 478 344 625 l 97 536 l 93 553 q 147 675 147 614 q 134 744 147 715 q 89 796 121 772 l 89 817 q 261 915 181 885 z "},"„":{"ha":600,"x_min":-33,"x_max":546,"o":"m 481 253 q 546 106 546 189 q 495 -49 546 25 q 336 -197 444 -122 l 251 -124 l 249 -104 q 326 47 326 -36 q 281 150 326 106 l 282 172 q 481 253 382 228 m 199 253 q 264 106 264 189 q 213 -49 264 25 q 54 -197 163 -122 l -31 -124 l -33 -104 q 44 47 44 -36 q -1 150 44 106 l 0 172 q 199 253 100 228 z "}}}
